<svg width="48" height="48" viewBox="0 0 48 48" fill="none" xmlns="http://www.w3.org/2000/svg">
<path d="M16 11.9999H32V15.9999H16V11.9999ZM8 19.9999V15.9999H16V19.9999H8ZM4 23.9999V19.9999H8V23.9999H4ZM4 27.9999V23.9999H0V27.9999H4ZM8 31.9999H4V27.9999H8V31.9999ZM16 35.9999H8V31.9999H16V35.9999ZM32 35.9999V39.9999H16V35.9999H32ZM40 31.9999V35.9999H32V31.9999H40ZM44 27.9999V31.9999H40V27.9999H44ZM44 23.9999H48V27.9999H44V23.9999ZM40 19.9999H44V23.9999H40V19.9999ZM40 19.9999V15.9999H32V19.9999H40ZM20 21.9999H28V29.9999H20V21.9999Z" fill="#0063FF"/>
</svg>
