<svg width="25" height="25" viewBox="0 0 25 25" fill="none" xmlns="http://www.w3.org/2000/svg">
<g clip-path="url(#clip0_290_8391)">
<path d="M12.9404 24.3594C19.5678 24.3594 24.9404 18.9868 24.9404 12.3594C24.9404 5.73196 19.5678 0.359375 12.9404 0.359375C6.31301 0.359375 0.94043 5.73196 0.94043 12.3594C0.94043 18.9868 6.31301 24.3594 12.9404 24.3594Z" fill="#6DA544"/>
<path d="M7.72339 14.707C7.72339 15.5715 8.42417 16.2722 9.28859 16.2722H13.9843C13.9843 16.9926 14.5682 17.5766 15.2886 17.5766H16.8538C17.5742 17.5766 18.1581 16.9926 18.1581 16.2722V14.707H7.72339Z" fill="white"/>
<path d="M18.2879 7.14258V10.7947C18.2879 11.3701 17.8198 11.8382 17.2444 11.8382V13.4034C18.6828 13.4034 19.8531 12.2331 19.8531 10.7947V7.14258H18.2879Z" fill="white"/>
<path d="M7.07083 10.7943C7.07083 11.3696 6.60273 11.8377 6.02734 11.8377V13.4029C7.4658 13.4029 8.63603 12.2327 8.63603 10.7943V7.14209H7.07083V10.7943Z" fill="white"/>
<path d="M17.5059 7.14258H15.9407V10.7947H17.5059V7.14258Z" fill="white"/>
<path d="M13.5926 9.22955C13.5926 9.3734 13.4756 9.4904 13.3317 9.4904C13.1879 9.4904 13.0709 9.37336 13.0709 9.22955V7.14258H11.5057V9.22955C11.5057 9.3734 11.3886 9.4904 11.2448 9.4904C11.101 9.4904 10.984 9.37336 10.984 9.22955V7.14258H9.4187V9.22955C9.4187 10.2365 10.2379 11.0557 11.2448 11.0557C11.6326 11.0557 11.9922 10.9338 12.2883 10.7268C12.5843 10.9337 12.944 11.0557 13.3318 11.0557C13.4099 11.0557 13.4867 11.0502 13.5622 11.0406C13.4513 11.4975 13.0397 11.8382 12.5492 11.8382V13.4034C13.9876 13.4034 15.1579 12.2332 15.1579 10.7947V9.22955V7.14258H13.5926V9.22955H13.5926Z" fill="white"/>
<path d="M11.7665 11.8374H9.4187V13.4026H11.7665V11.8374Z" fill="white"/>
</g>
<defs>
<clipPath id="clip0_290_8391">
<rect width="24" height="24" fill="white" transform="translate(0.94043 0.359375)"/>
</clipPath>
</defs>
</svg>
