<svg width="36" height="25" viewBox="0 0 36 25" fill="none" xmlns="http://www.w3.org/2000/svg">
<path d="M35.4682 2.09926C35.4682 2.41282 35.3436 2.71354 35.1219 2.93526C34.9002 3.15698 34.5994 3.28154 34.2859 3.28154H27.1923V9.19289C27.1923 9.50645 27.0677 9.80717 26.846 10.0289C26.6243 10.2506 26.3235 10.3752 26.01 10.3752H18.9163V16.2865C18.9163 16.6001 18.7918 16.9008 18.5701 17.1225C18.3484 17.3442 18.0476 17.4688 17.7341 17.4688H10.6404V23.3802C10.6404 23.6937 10.5159 23.9944 10.2942 24.2162C10.0724 24.4379 9.77173 24.5624 9.45817 24.5624H1.18227C0.868714 24.5624 0.567998 24.4379 0.346279 24.2162C0.12456 23.9944 0 23.6937 0 23.3802C0 23.0666 0.12456 22.7659 0.346279 22.5442C0.567998 22.3224 0.868714 22.1979 1.18227 22.1979H8.2759V16.2865C8.2759 15.973 8.40046 15.6723 8.62218 15.4505C8.8439 15.2288 9.14462 15.1043 9.45817 15.1043H16.5518V9.19289C16.5518 8.87934 16.6764 8.57862 16.8981 8.3569C17.1198 8.13518 17.4205 8.01062 17.7341 8.01062H24.8277V2.09926C24.8277 1.78571 24.9523 1.48499 25.174 1.26327C25.3957 1.04155 25.6964 0.916992 26.01 0.916992H34.2859C34.5994 0.916992 34.9002 1.04155 35.1219 1.26327C35.3436 1.48499 35.4682 1.78571 35.4682 2.09926Z" fill="#E5EFFF"/>
</svg>
