<svg width="34" height="25" viewBox="0 0 34 25" fill="none" xmlns="http://www.w3.org/2000/svg">
<path d="M14.5418 17.818L28.7291 3.6307C28.8389 3.52085 28.9693 3.43372 29.1129 3.37427C29.2564 3.31482 29.4102 3.28422 29.5655 3.28422C29.7209 3.28422 29.8747 3.31482 30.0182 3.37427C30.1617 3.43372 30.2922 3.52085 30.402 3.6307C30.5118 3.74054 30.599 3.87095 30.6584 4.01447C30.7179 4.15799 30.7485 4.31181 30.7485 4.46715C30.7485 4.6225 30.7179 4.77632 30.6584 4.91984C30.599 5.06336 30.5118 5.19377 30.402 5.30361L16.2147 19.4909C16.1049 19.6007 15.9745 19.6879 15.831 19.7473C15.6874 19.8067 15.5336 19.8373 15.3783 19.8373C15.2229 19.8373 15.0691 19.8067 14.9256 19.7473C14.7821 19.6879 14.6517 19.6007 14.5418 19.4909C14.432 19.381 14.3448 19.2506 14.2854 19.1071C14.2259 18.9636 14.1953 18.8098 14.1953 18.6544C14.1953 18.4991 14.2259 18.3452 14.2854 18.2017C14.3448 18.0582 14.432 17.9278 14.5418 17.818ZM16.5605 8.01397C17.5875 8.01267 18.6078 8.17889 19.5813 8.50609C19.729 8.55849 19.8858 8.58096 20.0424 8.57221C20.1989 8.56345 20.3522 8.52363 20.4932 8.45507C20.6342 8.38651 20.7602 8.29058 20.8638 8.17287C20.9674 8.05516 21.0466 7.91801 21.0967 7.76941C21.1467 7.62082 21.1668 7.46374 21.1556 7.30733C21.1444 7.15092 21.1022 6.9983 21.0314 6.85836C20.9607 6.71842 20.8628 6.59395 20.7435 6.4922C20.6242 6.39045 20.4858 6.31345 20.3364 6.26569C18.4524 5.63052 16.4385 5.48076 14.4813 5.83027C12.524 6.17978 10.6864 7.01727 9.13864 8.26525C7.59084 9.51324 6.38279 11.1314 5.62622 12.9701C4.86965 14.8088 4.589 16.8086 4.81024 18.7845C4.84223 19.0735 4.97957 19.3405 5.19604 19.5346C5.4125 19.7287 5.6929 19.8363 5.98365 19.8367C6.02651 19.8367 6.07084 19.8367 6.11518 19.8293C6.42675 19.7948 6.71185 19.6379 6.90778 19.3932C7.10372 19.1485 7.19444 18.836 7.16001 18.5244C7.12154 18.1749 7.10229 17.8237 7.10237 17.4721C7.10511 14.9645 8.10248 12.5604 9.87563 10.7872C11.6488 9.01407 14.0529 8.01671 16.5605 8.01397ZM31.3005 9.93516C31.2297 9.79698 31.1323 9.67411 31.014 9.57355C30.8957 9.473 30.7587 9.39674 30.6109 9.34912C30.4631 9.3015 30.3074 9.28346 30.1526 9.29602C29.9978 9.30859 29.8471 9.35151 29.7089 9.42235C29.5707 9.49319 29.4478 9.59055 29.3473 9.70887C29.2467 9.82719 29.1705 9.96416 29.1228 10.112C29.0752 10.2598 29.0572 10.4155 29.0698 10.5703C29.0823 10.725 29.1252 10.8758 29.1961 11.014C30.0708 12.7316 30.5873 14.6091 30.7143 16.5325C30.8413 18.4558 30.5762 20.3849 29.935 22.2027L3.17132 22.1924C2.42461 20.0519 2.20036 17.764 2.51728 15.5192C2.8342 13.2745 3.6831 11.1381 4.99321 9.28803C6.30333 7.43796 8.0367 5.92786 10.0488 4.88362C12.061 3.83937 14.2936 3.29122 16.5605 3.28488H16.6906C18.8925 3.29873 21.0602 3.83029 23.0187 4.83661C23.1573 4.91287 23.3097 4.96055 23.467 4.97683C23.6243 4.99312 23.7833 4.97767 23.9346 4.93141C24.0858 4.88515 24.2262 4.80902 24.3475 4.70751C24.4688 4.60601 24.5685 4.48121 24.6407 4.34049C24.7129 4.19977 24.7561 4.04599 24.7678 3.88827C24.7795 3.73055 24.7594 3.57208 24.7088 3.42225C24.6581 3.27243 24.5779 3.13428 24.4729 3.016C24.3679 2.89772 24.2403 2.80171 24.0975 2.73365C21.1492 1.22348 17.8155 0.632726 14.5278 1.03781C11.24 1.44289 8.14946 2.82517 5.65586 5.00584C3.16225 7.18651 1.38034 10.0652 0.540625 13.2696C-0.299094 16.4741 -0.157987 19.8567 0.945693 22.9801C1.10873 23.4428 1.41108 23.8437 1.8112 24.1277C2.21132 24.4116 2.68956 24.5647 3.18019 24.5658H29.9394C30.4298 24.5661 30.9082 24.4139 31.3082 24.1303C31.7083 23.8468 32.0103 23.4458 32.1724 22.983C32.9181 20.8622 33.2253 18.612 33.0754 16.3689C32.9256 14.1258 32.3217 11.9365 31.3005 9.93368V9.93516Z" fill="#E5EFFF"/>
</svg>
