<svg width="22" height="18" viewBox="0 0 22 18" fill="none" xmlns="http://www.w3.org/2000/svg">
<g clip-path="url(#clip0_290_8274)">
<path d="M12.6698 17.327V10.0325C12.6698 7.39491 13.4893 5.2931 15.1283 3.72704C16.8083 2.11976 18.7956 1.13067 21.0902 0.759766V3.66522C19.9839 4.03613 19.0005 4.71613 18.14 5.70521C17.3205 6.6943 16.9107 7.88945 16.9107 9.29066H20.9673V17.327H12.6698ZM0.5 17.327V10.0325C0.5 7.39491 1.31951 5.2931 2.95854 3.72704C4.63854 2.11976 6.62585 1.13067 8.92049 0.759766V3.66522C7.81415 4.03613 6.83073 4.71613 5.97024 5.70521C5.15073 6.6943 4.74098 7.88945 4.74098 9.29066H8.79756V17.327H0.5Z" fill="#E5EFFF" fill-opacity="0.6"/>
</g>
<defs>
<clipPath id="clip0_290_8274">
<rect width="21" height="17" fill="white" transform="translate(0.5 0.479004)"/>
</clipPath>
</defs>
</svg>
