<svg width="25" height="25" viewBox="0 0 25 25" fill="none" xmlns="http://www.w3.org/2000/svg">
<g clip-path="url(#clip0_290_8398)">
<path d="M12.3806 24.3594C19.008 24.3594 24.3806 18.9868 24.3806 12.3594C24.3806 5.73196 19.008 0.359375 12.3806 0.359375C5.7532 0.359375 0.380615 5.73196 0.380615 12.3594C0.380615 18.9868 5.7532 24.3594 12.3806 24.3594Z" fill="white"/>
<path d="M7.16333 16.5322L8.20681 23.612C9.50675 24.0944 10.9129 24.3583 12.3807 24.3583C17.5402 24.3583 21.9388 21.1018 23.6343 16.5322H7.16333Z" fill="#000A19"/>
<path d="M7.16333 8.18597L8.20681 1.10616C9.50675 0.623769 10.9129 0.359863 12.3807 0.359863C17.5402 0.359863 21.9388 3.61636 23.6343 8.18597H7.16333Z" fill="#6DA544"/>
<path d="M0.381104 12.3596C0.381104 17.5191 3.63765 21.9177 8.20721 23.6132V1.10596C3.63765 2.80147 0.381104 7.19999 0.381104 12.3596Z" fill="#A2001D"/>
</g>
<defs>
<clipPath id="clip0_290_8398">
<rect width="24" height="24" fill="white" transform="translate(0.380615 0.359375)"/>
</clipPath>
</defs>
</svg>
