<svg xmlns="http://www.w3.org/2000/svg" width="260" height="100" viewBox="0 0 260 100" fill="none">
    <path d="M139.437 47.7751H143.856C145.076 47.7751 146.065 46.786 146.065 45.566V25.6837C146.065 24.4637 145.076 23.4746 143.856 23.4746H115.137C113.917 23.4746 112.928 24.4637 112.928 25.6837V45.5658C112.928 46.7858 113.917 47.7749 115.137 47.7749H119.555" stroke="#e6ff4c" stroke-width="2.06689" stroke-miterlimit="10" stroke-linecap="round" stroke-linejoin="round"/>
    <path d="M127.287 56.6113V91.9574" stroke="#e6ff4c" stroke-width="2.06689" stroke-miterlimit="10" stroke-linecap="round" stroke-linejoin="round"/>
    <path d="M131.705 56.6113V91.9574" stroke="#e6ff4c" stroke-width="2.06689" stroke-miterlimit="10" stroke-linecap="round" stroke-linejoin="round"/>
    <path d="M121.764 43.3574H137.228" stroke="#e6ff4c" stroke-width="2.06689" stroke-miterlimit="10" stroke-linecap="round" stroke-linejoin="round"/>
    <path d="M117.346 43.3583V27.8945H141.646V43.3583" stroke="#e6ff4c" stroke-width="2.06689" stroke-miterlimit="10" stroke-linecap="round" stroke-linejoin="round"/>
    <path d="M135.02 43.3574L133.916 56.6123H125.079L123.975 43.3574" stroke="#e6ff4c" stroke-width="2.06689" stroke-miterlimit="10" stroke-linecap="round" stroke-linejoin="round"/>
    <path d="M129.496 43.3574V56.6123" stroke="#e6ff4c" stroke-width="2.06689" stroke-miterlimit="10" stroke-linecap="round" stroke-linejoin="round"/>
    <path d="M125.08 52.1934H133.917" stroke="#e6ff4c" stroke-width="2.06689" stroke-miterlimit="10" stroke-linecap="round" stroke-linejoin="round"/>
    <path d="M125.08 47.7734H133.917" stroke="#e6ff4c" stroke-width="2.06689" stroke-miterlimit="10" stroke-linecap="round" stroke-linejoin="round"/>
    <path d="M218.209 85.2129H212.636C212.013 85.2129 211.504 85.0778 211.035 84.7882C209.346 83.7426 208 80.3939 207.196 78.3932C207.105 78.1687 207.015 77.9443 206.924 77.7203C205.6 74.4753 203.954 70.437 200.682 68.3522C199.218 67.4162 197.553 66.9417 195.734 66.9417H193.545V57.6958C194.323 57.6937 195.053 57.3906 195.602 56.8424C196.153 56.2934 196.456 55.5609 196.457 54.7797C196.458 53.9971 196.154 53.2621 195.602 52.7093L189.55 46.6792C189.233 46.3626 188.719 46.3634 188.402 46.6812C188.086 46.9988 188.086 47.5129 188.404 47.8294L194.455 53.8584C194.699 54.1032 194.834 54.4298 194.833 54.7782C194.833 55.125 194.699 55.4496 194.455 55.6931C193.949 56.1989 193.126 56.1989 192.62 55.6931L180.873 43.949C180.556 43.6319 180.042 43.6319 179.725 43.949L167.978 55.6931C167.734 55.9376 167.407 56.0721 167.06 56.0721C167.059 56.0721 167.059 56.0721 167.058 56.0721C166.711 56.0718 166.387 55.9376 166.142 55.6921C165.899 55.4496 165.765 55.125 165.764 54.7782C165.764 54.4298 165.899 54.1032 166.143 53.8584L179.383 40.6188C179.625 40.3755 179.95 40.2412 180.297 40.2409H180.298C180.646 40.2409 180.972 40.3755 181.216 40.6199L185.905 45.309C186.222 45.6261 186.736 45.6261 187.053 45.309C187.37 44.9919 187.37 44.4779 187.053 44.1608L182.364 39.4718C181.813 38.9206 181.079 38.6172 180.298 38.6172C180.297 38.6172 180.296 38.6172 180.295 38.6172C179.514 38.6179 178.781 38.9217 178.234 39.4718L164.995 52.7103C164.443 53.2622 164.14 53.997 164.141 54.7797C164.141 55.5607 164.445 56.2933 164.994 56.8402C165.542 57.3904 166.273 57.694 167.053 57.6958V71.9975V89.4569H164.953C164.504 89.4569 164.141 89.8204 164.141 90.2688C164.141 90.7172 164.504 91.0807 164.953 91.0807H218.243C218.973 91.0807 219.567 90.4879 219.567 89.7593V86.5709C219.567 85.8222 218.958 85.2129 218.209 85.2129ZM170.64 89.457H168.677V72.8095H170.64V89.457ZM176.222 89.457H172.264V72.8095H175.42H176.222V89.457ZM182.752 89.457H177.846V86.8644H182.752V89.457ZM182.752 85.2405H177.846V82.1815H182.752V85.2405ZM182.752 80.5576H177.846V77.4955H182.752V80.5576ZM182.752 75.8717H177.846V72.8095H182.752V75.8717ZM184.366 71.1856H176.232V67.1613C176.232 64.9185 178.056 63.0939 180.299 63.0939C182.542 63.0939 184.366 64.9185 184.366 67.1613V71.1856ZM188.331 89.457H184.376V72.8095H185.178H188.331V89.457ZM185.99 71.1856V67.1613C185.99 64.0232 183.437 61.4701 180.299 61.4701C177.161 61.4701 174.608 64.0231 174.608 67.1613V71.1856H171.452H168.677V57.2099C168.837 57.1034 168.987 56.9803 169.126 56.8413L180.299 45.6712L191.472 56.8413C191.611 56.9803 191.761 57.1034 191.921 57.21V71.1856H189.143H185.99ZM193.545 89.457V84.0823C193.545 83.6339 193.181 83.2704 192.733 83.2704C192.285 83.2704 191.921 83.6339 191.921 84.0823V89.457H189.955V72.8095H191.921V80.3354C191.921 80.7838 192.285 81.1473 192.733 81.1473C193.181 81.1473 193.545 80.7838 193.545 80.3354V72.8095H195.734C196.432 72.8095 197.001 72.9651 197.526 73.299C199.245 74.3948 200.525 77.5543 201.371 79.645C201.476 79.9034 201.581 80.1617 201.686 80.4201C202.944 83.5182 204.493 87.3358 207.465 89.457H193.545ZM217.943 89.457H212.636C211.23 89.457 209.939 89.1003 208.802 88.3971C205.963 86.639 204.49 83.0106 203.191 79.8094C203.086 79.5514 202.981 79.2934 202.876 79.0353C201.952 76.7531 200.555 73.3043 198.398 71.9295C197.612 71.4289 196.741 71.1855 195.734 71.1855H193.545V68.5653H195.734C197.238 68.5653 198.609 68.9539 199.809 69.7208C202.645 71.5285 204.119 75.1436 205.42 78.3332C205.51 78.5547 205.6 78.7765 205.689 78.9985C206.625 81.3258 208.038 84.8427 210.181 86.1693C210.908 86.6183 211.712 86.8366 212.636 86.8366H217.943V89.457Z" fill="#e6ff4c"/>
    <path d="M201.376 52.9892H213.267C216.742 52.9892 219.569 50.1635 219.569 46.6904C219.569 43.2155 216.742 40.3885 213.267 40.3885C213.226 40.3885 213.184 40.389 213.143 40.3898C211.873 38.1499 209.467 36.7305 206.866 36.7305C202.887 36.7305 199.65 39.9664 199.65 43.9438C199.65 44.0911 199.654 44.2393 199.663 44.3875C198.01 45.0674 196.906 46.6772 196.906 48.5192C196.906 50.984 198.911 52.9892 201.376 52.9892ZM200.726 45.7472C201.14 45.6505 201.409 45.2505 201.343 44.8302C201.297 44.5357 201.273 44.2374 201.273 43.9438C201.273 40.8618 203.782 38.3543 206.866 38.3543C209.028 38.3543 211.015 39.6196 211.93 41.5776C212.077 41.8921 212.407 42.0784 212.752 42.0414C212.935 42.0218 213.103 42.0122 213.267 42.0122C215.846 42.0122 217.945 44.1108 217.945 46.6903C217.945 49.268 215.846 51.3653 213.267 51.3653H201.376C199.807 51.3653 198.53 50.0886 198.53 48.5192C198.53 47.1889 199.433 46.049 200.726 45.7472Z" fill="#e6ff4c"/>
    <path d="M180.298 51.8301C178.307 51.8301 176.688 53.4498 176.688 55.4407C176.688 57.4316 178.307 59.0513 180.298 59.0513C182.289 59.0513 183.909 57.4316 183.909 55.4407C183.909 53.4498 182.289 51.8301 180.298 51.8301ZM180.298 57.4275C179.203 57.4275 178.311 56.5363 178.311 55.4407C178.311 54.3452 179.203 53.4539 180.298 53.4539C181.393 53.4539 182.285 54.3452 182.285 55.4407C182.285 56.5363 181.393 57.4275 180.298 57.4275Z" fill="#e6ff4c"/>
    <path d="M84.5608 88.3862C85.3679 88.2237 86.0289 87.8696 86.0925 87.8343C87.3726 87.1774 88.3935 86.1818 89.0869 84.9924C89.167 84.9918 89.2483 84.9812 89.329 84.9583C92.4413 84.0428 94.6145 81.1385 94.6145 77.8973C94.6145 74.649 92.4413 71.7406 89.3438 70.8293C89.1282 70.7621 88.9125 70.7073 88.6969 70.6678C88.2162 70.5753 87.7491 70.8964 87.6589 71.3806C87.5688 71.8643 87.8881 72.3291 88.3717 72.4181C88.5178 72.4457 88.6639 72.4817 88.8259 72.5329C91.1853 73.2275 92.833 75.4325 92.833 77.8967C92.833 79.948 91.676 81.8072 89.924 82.7733C90.0236 82.289 90.0913 81.7954 90.0913 81.2876C90.0913 78.51 88.5585 75.9968 86.0843 74.7262C85.4798 74.4234 84.8442 74.2013 84.1956 74.064C83.7137 73.9527 83.2419 74.2702 83.1405 74.7503C83.0392 75.2328 83.3467 75.7047 83.828 75.8054C84.3276 75.9108 84.8183 76.0834 85.2784 76.3144C87.1488 77.274 88.3105 79.1804 88.3105 81.2876C88.3105 83.3247 87.2112 85.168 85.4198 86.1642C85.5187 85.6834 85.57 85.1868 85.57 84.6784C85.57 81.1857 83.0887 78.1471 79.6701 77.4525C79.1865 77.3577 78.7181 77.667 78.6203 78.1483C78.5226 78.6307 78.8342 79.1002 79.3161 79.1986C81.9081 79.7247 83.7897 82.0298 83.7897 84.6784C83.7897 87.7624 81.2807 90.2708 78.1974 90.2708C75.114 90.2708 72.6044 87.7618 72.6044 84.6784C72.6044 82.765 73.567 81.029 75.1446 80.0021L77.3838 85.0401C77.5311 85.3718 77.8569 85.5686 78.198 85.5686C78.3187 85.5686 78.4413 85.5444 78.5591 85.492C79.0086 85.2929 79.2106 84.7662 79.0109 84.3167L73.9016 72.8198V70.4157C73.9016 69.4767 74.6651 68.7126 75.6041 68.7126H78.1974C79.1364 68.7126 79.8999 69.4767 79.8999 70.4157C79.8999 70.8699 79.7226 71.2982 79.4009 71.6204C79.084 71.9368 78.6451 72.1188 78.1974 72.1188H76.9008C76.4089 72.1188 76.0106 72.5176 76.0106 73.0089C76.0106 73.5002 76.4089 73.8991 76.9008 73.8991H78.1974C79.114 73.8991 80.0112 73.5267 80.6604 72.8787C81.2955 72.2431 81.6472 71.4036 81.6713 70.5105H82.7229C83.6395 70.5105 84.5361 70.1394 85.1847 69.4926C85.808 68.8675 86.1667 68.0057 86.1927 67.1185H87.2454C88.162 67.1185 89.0586 66.7474 89.7072 66.1005C90.3541 65.4525 90.7246 64.5506 90.7246 63.6275C90.7246 61.7088 89.1641 60.1483 87.2454 60.1483H84.6451C82.7564 60.1483 81.2218 61.6622 81.1747 63.5403H80.1226C78.2339 63.5403 76.7005 65.0537 76.6522 66.9312H75.6041C73.6837 66.9312 72.1208 68.4941 72.1208 70.4145V72.1176H60.9361V70.0086H63.9352C64.4271 70.0086 64.8254 69.6098 64.8254 69.1185C64.8254 68.6272 64.4271 68.2284 63.9352 68.2284H57.4527C56.9608 68.2284 56.5626 68.6272 56.5626 69.1185C56.5626 69.6098 56.9608 70.0086 57.4527 70.0086H59.1558V72.8186L57.0186 77.6281C56.4407 77.4508 55.8304 77.3506 55.2024 77.3212C55.2024 77.32 55.203 77.3194 55.203 77.3182V62.778H57.874C59.6743 62.778 61.1388 61.3141 61.1388 59.5132V48.8293C61.1388 47.029 59.6743 45.5645 57.874 45.5645H50.7511C48.9508 45.5645 47.4863 47.029 47.4863 48.8293V59.5132C47.4863 61.3135 48.9508 62.778 50.7511 62.778H53.4221C53.4221 62.778 53.441 77.4024 53.4474 77.4455C50.0554 78.1058 47.4863 81.0961 47.4863 84.679C47.4863 87.1503 48.7128 89.3365 50.5844 90.6749H48.3765C47.8846 90.6749 47.4863 91.0737 47.4863 91.565C47.4863 92.0563 47.8846 92.4552 48.3765 92.4552H93.4863C93.9782 92.4552 94.3765 92.0563 94.3765 91.565C94.3765 91.0737 93.9782 90.6749 93.4863 90.6749H82.4731C83.3208 90.0687 84.033 89.2887 84.5608 88.3862ZM84.6457 61.9303H87.246C88.1826 61.9303 88.9444 62.692 88.9444 63.6287C88.9444 64.084 88.7635 64.5259 88.4483 64.8422C88.1326 65.1574 87.6943 65.3382 87.246 65.3382C87.246 65.3382 85.8286 65.3612 85.7697 65.3736C85.2153 64.3527 84.1744 63.6463 82.9538 63.5645C82.9879 62.6584 83.7308 61.9303 84.6457 61.9303ZM80.1231 65.3223H82.7234C83.6601 65.3223 84.4218 66.084 84.4218 67.0207C84.4218 67.4761 84.241 67.9179 83.9258 68.2343C83.61 68.5494 83.1717 68.7303 82.7234 68.7303C82.7234 68.7303 81.3055 68.7533 81.2466 68.7656C80.6916 67.7447 79.6513 67.0384 78.4307 66.9553C78.466 66.0499 79.2089 65.3223 80.1231 65.3223ZM71.494 73.9002L66.5125 82.8169L61.5588 73.9002H71.494ZM60.1349 75.0024L65.0156 83.7889H62.1732C61.894 81.4826 60.5467 79.5067 58.6416 78.3615L60.1349 75.0024ZM57.9117 80.0033C59.2 80.8475 60.1061 82.2077 60.3617 83.7883H56.2292L57.9117 80.0033ZM50.7511 60.9971C49.9329 60.9971 49.2672 60.3315 49.2672 59.5132V48.8293C49.2672 48.011 49.9329 47.3453 50.7511 47.3453H57.874C58.6922 47.3453 59.3579 48.011 59.3579 48.8293V59.5132C59.3579 60.3315 58.6922 60.9971 57.874 60.9971H50.7511ZM54.8595 90.2714C51.7756 90.2714 49.2666 87.7624 49.2666 84.679C49.2666 81.5957 51.7756 79.0867 54.8595 79.0867C55.3532 79.0867 55.8233 79.1715 56.2793 79.2917L54.046 84.3173C53.9234 84.593 53.9488 84.9123 54.1131 85.1639C54.2775 85.4166 54.5585 85.5697 54.8595 85.5697H60.3617C59.9317 88.2284 57.6383 90.2714 54.8595 90.2714ZM59.1346 90.6749C60.7776 89.5002 61.9187 87.6711 62.1732 85.5692H66.5285C66.8436 85.5692 67.1358 85.4024 67.296 85.1297C67.319 85.0902 67.3149 85.0437 67.3314 85.003L72.9208 74.9977L74.4183 78.3674C72.1956 79.6976 70.8242 82.0605 70.8242 84.679C70.8242 87.1503 72.0507 89.3365 73.9223 90.6749H59.1346Z" fill="#e6ff4c"/>
    <path d="M53.5007 49.5312C52.6819 49.5312 52.0156 50.1981 52.0156 51.0176V54.4933V54.5351V57.9224C52.0156 58.4137 52.4139 58.8125 52.9058 58.8125C53.3977 58.8125 53.7959 58.4137 53.7959 57.9224V55.5259C54.6719 55.4706 55.4919 55.0287 56.0174 54.3212C56.5912 53.5489 56.7567 52.5628 56.471 51.6143C56.1016 50.3878 54.8804 49.5312 53.5007 49.5312ZM54.5882 53.2591C54.3938 53.5212 54.1116 53.6891 53.7959 53.7368V51.3404C54.2613 51.4317 54.6477 51.7357 54.7661 52.1274C54.8893 52.5368 54.8262 52.9392 54.5882 53.2591Z" fill="#e6ff4c"/>
    <path d="M27.9141 91.957H228.945" stroke="#e6ff4c" stroke-width="2.20913" stroke-linecap="round"/>
    </svg>