<svg xmlns="http://www.w3.org/2000/svg" width="260" height="100" viewBox="0 0 260 100" fill="none">
    <path d="M60.3516 47.5781H68.1969" stroke="#D1D1D1" stroke-width="1.81046"/>
    <path d="M78.8036 73.6199L78.8036 77.634M78.8036 66.9359L78.8036 47.6243L78.8036 34.0007L61.2574 34.0007L61.2574 47.6243L32.5466 47.6243L32.5466 77.4969L19 77.4969L19.0132 95.6016L42.2475 95.6016M71.7733 77.634L78.8036 77.634M78.8036 77.634L78.8036 95.6016L42.2475 95.6016M42.2475 95.6016L42.2475 77.634M63.3696 95.6016L63.3696 77.634M40.7388 77.4969L54.3173 77.4969M61.2574 77.4969L65.7835 77.4969" stroke="#D1D1D1" stroke-width="1.81046"/>
    <path d="M72.4219 77.7528L68.4992 73.8301" stroke="#D1D1D1" stroke-width="1.81046" stroke-linecap="round"/>
    <path d="M78.4559 66.5898L74.5332 70.5125" stroke="#D1D1D1" stroke-width="1.81046" stroke-linecap="round"/>
    <path d="M61.5586 77.7528L57.6359 73.8301" stroke="#D1D1D1" stroke-width="1.81046" stroke-linecap="round"/>
    <path d="M40.4355 77.7528L36.5129 73.8301" stroke="#D1D1D1" stroke-width="1.81046" stroke-linecap="round"/>
    <path d="M106.777 96.257H102.763M113.461 96.257H132.772V50L102.9 50V65.0872L84.7949 65.1004V79.8727M102.763 89.2267V96.257M102.763 96.257H84.7949V79.8727M84.7949 79.8727H102.763" stroke="#D1D1D1" stroke-width="1.81046"/>
    <path d="M102.9 76.5847V82.8925M102.9 70.2769V65.6895" stroke="#D1D1D1" stroke-width="1.81046"/>
    <path d="M106.521 96.1668L110.444 92.2441" stroke="#D1D1D1" stroke-width="1.81046" stroke-linecap="round"/>
    <path d="M102.9 76.8543L106.823 72.9316" stroke="#D1D1D1" stroke-width="1.81046" stroke-linecap="round"/>
    <path d="M102.9 89.5301L106.823 85.6074" stroke="#D1D1D1" stroke-width="1.81046" stroke-linecap="round"/>
    <path d="M160.484 96.257H156.47M167.168 96.257H186.479V50L156.607 50V65.0872L138.502 65.1004V79.8727M156.47 89.2267V96.257M156.47 96.257H138.502V79.8727M138.502 79.8727H138" stroke="#D1D1D1" stroke-width="1.81046"/>
    <path d="M156.607 70.2769V65.6895" stroke="#D1D1D1" stroke-width="1.81046"/>
    <path d="M160.229 96.1668L164.151 92.2441" stroke="#D1D1D1" stroke-width="1.81046" stroke-linecap="round"/>
    <path d="M156.607 89.5301L160.53 85.6074" stroke="#D1D1D1" stroke-width="1.81046" stroke-linecap="round"/>
    <path d="M214.196 96.257H210.182M220.881 96.257H240.192V50L210.319 50V65.0872L192.215 65.1004V79.8727M210.182 89.2267V96.257M210.182 96.257H192.215V79.8727M192.215 79.8727H210.182" stroke="#D1D1D1" stroke-width="1.81046"/>
    <path d="M210.318 76.5847V82.8925M210.318 70.2769V65.6895" stroke="#D1D1D1" stroke-width="1.81046"/>
    <path d="M213.939 96.1668L217.862 92.2441" stroke="#D1D1D1" stroke-width="1.81046" stroke-linecap="round"/>
    <path d="M210.318 76.8543L214.241 72.9316" stroke="#D1D1D1" stroke-width="1.81046" stroke-linecap="round"/>
    <path d="M210.318 89.5301L214.241 85.6074" stroke="#D1D1D1" stroke-width="1.81046" stroke-linecap="round"/>
    <path d="M60.0798 13.0643C60.0798 19.175 53.7319 25.7883 49.0399 30.4906C43.796 25.7883 38 19.175 38 13.0643C38 6.95366 42.9427 2 49.0399 2C55.1371 2 60.0798 6.95366 60.0798 13.0643Z" fill="#e6ff4c"/>
    <path d="M44.6553 16.7136V15.4885L49.4417 8.62228H51.4076V15.3033H52.7324V16.7136H51.4076V18.8789H49.8121V16.7136H44.6553ZM49.8833 10.2747L46.5214 15.3033H49.8833V10.2747Z" fill="#273720"/>
    <path d="M174.785 13.0643C174.785 19.175 168.437 25.7883 163.745 30.4906C158.501 25.7883 152.705 19.175 152.705 13.0643C152.705 6.95366 157.648 2 163.745 2C169.842 2 174.785 6.95366 174.785 13.0643Z" fill="#e6ff4c"/>
    <path d="M161.641 9.97559V8.49407H164.604V18.8789H162.966V9.97559H161.641Z" fill="#273720"/>
    <path d="M120.08 13.0643C120.08 19.175 113.732 25.7883 109.04 30.4906C103.796 25.7883 98 19.175 98 13.0643C98 6.95366 102.943 2 109.04 2C115.137 2 120.08 6.95366 120.08 13.0643Z" fill="#e6ff4c"/>
    <path d="M105.121 11.0582C105.178 10.175 105.515 9.4865 106.133 8.99266C106.759 8.49882 107.557 8.2519 108.526 8.2519C109.191 8.2519 109.765 8.37061 110.249 8.60804C110.734 8.84546 111.099 9.16835 111.346 9.57672C111.593 9.98508 111.717 10.4457 111.717 10.9585C111.717 11.5473 111.56 12.0507 111.247 12.4685C110.933 12.8864 110.558 13.1665 110.121 13.309V13.366C110.682 13.5369 111.118 13.8503 111.432 14.3062C111.745 14.7525 111.902 15.3271 111.902 16.0298C111.902 16.5902 111.774 17.0887 111.517 17.5256C111.261 17.9625 110.881 18.3091 110.378 18.5655C109.874 18.8124 109.271 18.9359 108.569 18.9359C107.543 18.9359 106.698 18.6747 106.033 18.1524C105.378 17.6206 105.026 16.8608 104.979 15.8731H106.546C106.584 16.3765 106.778 16.7896 107.13 17.1125C107.481 17.4259 107.956 17.5826 108.554 17.5826C109.134 17.5826 109.58 17.4259 109.893 17.1125C110.207 16.7896 110.363 16.3765 110.363 15.8731C110.363 15.2084 110.15 14.7383 109.722 14.4629C109.305 14.178 108.659 14.0355 107.785 14.0355H107.415V12.6964H107.799C108.569 12.6869 109.153 12.5587 109.551 12.3118C109.96 12.0649 110.164 11.6755 110.164 11.1437C110.164 10.6879 110.017 10.327 109.722 10.0611C109.428 9.78565 109.01 9.64794 108.469 9.64794C107.937 9.64794 107.524 9.78565 107.229 10.0611C106.935 10.327 106.759 10.6594 106.702 11.0582H105.121Z" fill="#273720"/>
    <path d="M232.08 13.0643C232.08 19.175 225.732 25.7883 221.04 30.4906C215.796 25.7883 210 19.175 210 13.0643C210 6.95366 214.943 2 221.04 2C227.137 2 232.08 6.95366 232.08 13.0643Z" fill="#e6ff4c"/>
    <path d="M217.121 11.0582C217.178 10.175 217.515 9.4865 218.133 8.99266C218.759 8.49882 219.557 8.2519 220.526 8.2519C221.191 8.2519 221.765 8.37061 222.249 8.60804C222.734 8.84546 223.099 9.16835 223.346 9.57672C223.593 9.98508 223.717 10.4457 223.717 10.9585C223.717 11.5473 223.56 12.0507 223.247 12.4685C222.933 12.8864 222.558 13.1665 222.121 13.309V13.366C222.682 13.5369 223.118 13.8503 223.432 14.3062C223.745 14.7525 223.902 15.3271 223.902 16.0298C223.902 16.5902 223.774 17.0887 223.517 17.5256C223.261 17.9625 222.881 18.3091 222.378 18.5655C221.874 18.8124 221.271 18.9359 220.569 18.9359C219.543 18.9359 218.698 18.6747 218.033 18.1524C217.378 17.6206 217.026 16.8608 216.979 15.8731H218.546C218.584 16.3765 218.778 16.7896 219.13 17.1125C219.481 17.4259 219.956 17.5826 220.554 17.5826C221.134 17.5826 221.58 17.4259 221.893 17.1125C222.207 16.7896 222.363 16.3765 222.363 15.8731C222.363 15.2084 222.15 14.7383 221.722 14.4629C221.305 14.178 220.659 14.0355 219.785 14.0355H219.415V12.6964H219.799C220.569 12.6869 221.153 12.5587 221.551 12.3118C221.96 12.0649 222.164 11.6755 222.164 11.1437C222.164 10.6879 222.017 10.327 221.722 10.0611C221.428 9.78565 221.01 9.64794 220.469 9.64794C219.937 9.64794 219.524 9.78565 219.229 10.0611C218.935 10.327 218.759 10.6594 218.702 11.0582H217.121Z" fill="#273720"/>
    </svg>