<svg xmlns="http://www.w3.org/2000/svg" width="22" height="22" fill="none"><path fill="#00060d" d="M11.43 21c5.522 0 10-4.477 10-10s-4.478-10-10-10c-5.523 0-10 4.477-10 10s4.477 10 10 10Z"/><path fill="white" d="M11.227 13.579a.362.362 0 0 1-.362-.363c0-.473.067-.883.2-1.227.099-.26.258-.52.477-.785.162-.192.45-.473.868-.841.418-.369.69-.663.816-.882.125-.219.187-.458.187-.718 0-.47-.183-.881-.55-1.237a1.862 1.862 0 0 0-1.348-.533c-.514 0-.943.162-1.287.483-.252.236-.44.568-.565.996a.628.628 0 0 1-1.207-.354c.169-.573.453-1.035.85-1.385.551-.489 1.281-.733 2.19-.733.96 0 1.727.261 2.3.785.572.523.858 1.156.858 1.898 0 .43-.101.825-.302 1.187-.201.362-.595.802-1.18 1.32-.393.35-.65.607-.772.772a1.71 1.71 0 0 0-.268.57c-.043.16-.072.393-.088.7a.365.365 0 0 1-.365.346h-.452Zm-.43 1.733a.687.687 0 1 1 1.376 0 .687.687 0 0 1-1.375 0Z"/></svg>