<?xml version="1.0" encoding="UTF-8" standalone="no" ?>
<!DOCTYPE svg PUBLIC "-//W3C//DTD SVG 1.1//EN" "http://www.w3.org/Graphics/SVG/1.1/DTD/svg11.dtd">
<svg xmlns="http://www.w3.org/2000/svg" xmlns:xlink="http://www.w3.org/1999/xlink" version="1.1" width="1080" height="1080" viewBox="0 0 1080 1080" xml:space="preserve">
<desc>Created with Fabric.js 5.2.4</desc>
<defs>
</defs>
<rect x="0" y="0" width="100%" height="100%" fill="transparent"></rect>
<g transform="matrix(1 0 0 1 540 540)" id="fed86c00-3535-4ba2-b6f5-b6dbdace4287"  >
</g>
<g transform="matrix(1 0 0 1 540 540)" id="edf80474-1a6c-418a-8fa0-f50bcb0fda23"  >
<rect style="stroke: none; stroke-width: 1; stroke-dasharray: none; stroke-linecap: butt; stroke-dashoffset: 0; stroke-linejoin: miter; stroke-miterlimit: 4; fill: rgb(255,255,255); fill-rule: nonzero; opacity: 1; visibility: hidden;" vector-effect="non-scaling-stroke"  x="-540" y="-540" rx="0" ry="0" width="1080" height="1080" />
</g>
<g transform="matrix(12 0 0 12 540 540)"  >
<g style=""   >
		<g transform="matrix(1 0 0 1 -4.75 -4.08)"  >
<path style="stroke: none; stroke-width: 1; stroke-dasharray: none; stroke-linecap: butt; stroke-dashoffset: 0; stroke-linejoin: miter; stroke-miterlimit: 4; fill: rgb(255,255,255); fill-rule: nonzero; opacity: 1;" vector-effect="non-scaling-stroke"  transform=" translate(-40.25, -15.92)" d="M 42.4729 11.5547 L 38.0273 11.5547 C 37.6234 11.5547 37.2949 11.8831 37.2949 12.2871 L 37.2949 19.5488 C 37.2949 19.9526 37.6234 20.2813 38.0273 20.2813 L 42.4729 20.2813 C 42.8769 20.2813 43.2053 19.9526 43.2053 19.5488 L 43.2053 12.2871 C 43.2053 11.8831 42.8769 11.5547 42.4729 11.5547 Z M 39.8106 19.4024 L 38.1738 19.4024 L 38.1738 17.6052 L 39.8106 17.6052 L 39.8106 19.4024 Z M 39.8106 16.7263 L 38.1738 16.7263 L 38.1738 15.1095 L 39.8106 15.1095 L 39.8106 16.7263 Z M 39.8106 14.2305 L 38.1738 14.2305 L 38.1738 12.4336 L 39.8106 12.4336 L 39.8106 14.2305 Z M 42.3264 19.4024 L 40.6895 19.4024 L 40.6895 17.6052 L 42.3264 17.6052 L 42.3264 19.4024 Z M 42.3264 16.7263 L 40.6895 16.7263 L 40.6895 15.1095 L 42.3264 15.1095 L 42.3264 16.7263 Z M 42.3264 14.2305 L 40.6895 14.2305 L 40.6895 12.4336 L 42.3264 12.4336 L 42.3264 14.2305 Z" stroke-linecap="round" />
</g>
		<g transform="matrix(1 0 0 1 3.37 10.07)"  >
<path style="stroke: none; stroke-width: 1; stroke-dasharray: none; stroke-linecap: butt; stroke-dashoffset: 0; stroke-linejoin: miter; stroke-miterlimit: 4; fill: rgb(255,255,255); fill-rule: nonzero; opacity: 1;" vector-effect="non-scaling-stroke"  transform=" translate(-48.37, -30.07)" d="M 48.3672 29.0996 C 48.1243 29.0996 47.9277 29.2964 47.9277 29.5391 L 47.9277 30.5942 C 47.9277 30.8368 48.1243 31.0337 48.3672 31.0337 C 48.61 31.0337 48.8066 30.8368 48.8066 30.5942 L 48.8066 29.5391 C 48.8066 29.2964 48.61 29.0996 48.3672 29.0996 Z" stroke-linecap="round" />
</g>
		<g transform="matrix(1 0 0 1 0 -0.23)"  >
<path style="stroke: none; stroke-width: 1; stroke-dasharray: none; stroke-linecap: butt; stroke-dashoffset: 0; stroke-linejoin: miter; stroke-miterlimit: 4; fill: rgb(255,255,255); fill-rule: nonzero; opacity: 1;" vector-effect="non-scaling-stroke"  transform=" translate(-45, -19.77)" d="M 59.9958 24.6614 C 59.9754 24.5071 59.8965 24.3696 59.7736 24.2744 L 50.4633 17.0708 C 50.2569 16.9112 50.0102 16.8268 49.7497 16.8268 C 49.489 16.8268 49.2423 16.9112 49.0356 17.071 L 47.6275 18.1605 L 47.6275 16.8984 C 47.6275 16.6556 47.4309 16.459 47.1881 16.459 C 46.9452 16.459 46.7486 16.6556 46.7486 16.8984 L 46.7486 18.8405 L 39.7261 24.2741 C 39.6038 24.3684 39.5226 24.5106 39.5034 24.6632 C 39.4834 24.8177 39.5249 24.9711 39.6199 25.0949 L 40.3324 26.0217 C 40.4443 26.1665 40.6132 26.2496 40.7961 26.2496 C 40.9247 26.2496 41.0517 26.2064 41.1538 26.1274 L 49.7497 19.4765 L 56.247 24.5037 L 56.247 33.6599 L 52.7075 33.6599 L 52.7075 32.8359 C 52.7075 32.5931 52.5109 32.3965 52.2681 32.3965 C 52.0252 32.3965 51.8286 32.5931 51.8286 32.8359 L 51.8286 33.6599 L 47.6701 33.6599 L 47.6701 26.9276 L 51.8286 26.9276 L 51.8286 30.7705 C 51.8286 31.0133 52.0252 31.2099 52.2681 31.2099 C 52.5109 31.2099 52.7075 31.0133 52.7075 30.7705 L 52.7075 26.7811 C 52.7075 26.3773 52.3789 26.0487 51.9751 26.0487 L 47.5238 26.0487 C 47.1198 26.0487 46.7912 26.3773 46.7912 26.7811 L 46.7912 33.6599 L 43.4518 33.6599 L 43.4518 32.4612 C 43.4518 32.0573 43.1233 31.7288 42.7194 31.7288 L 42.2987 31.7288 C 42.3337 31.554 42.3527 31.3734 42.3527 31.1884 C 42.3527 29.6675 41.1151 28.4302 39.5942 28.4302 C 38.7686 28.4302 37.9962 28.809 37.4796 29.4233 C 37.2841 29.3615 37.0763 29.3279 36.8607 29.3279 C 36.7023 29.3279 36.5467 29.3455 36.3954 29.3807 C 35.9168 28.5609 35.0237 28.0335 34.0583 28.0335 C 33.9555 28.0335 33.8539 28.0399 33.7536 28.0516 L 33.7536 13.3414 L 40.2511 8.31375 L 46.7488 13.3414 L 46.7488 14.8474 C 46.7488 15.0903 46.9454 15.2869 47.1883 15.2869 C 47.4309 15.2869 47.6277 15.0903 47.6277 14.8474 L 47.6277 14.0214 L 48.8472 14.9648 C 48.9491 15.0438 49.0761 15.0871 49.2047 15.0871 C 49.3881 15.0871 49.5572 15.0037 49.6687 14.8586 C 49.6703 14.8566 49.6719 14.8543 49.6735 14.8522 L 50.356 13.9303 L 50.3604 13.9248 C 50.4054 13.8683 50.5251 13.7183 50.4972 13.4988 C 50.4769 13.3439 50.3977 13.2063 50.275 13.1118 L 40.965 5.9082 C 40.7585 5.74867 40.5118 5.66422 40.2511 5.66422 C 39.9904 5.66422 39.7437 5.74867 39.537 5.90843 L 36.9808 7.8862 L 36.9808 7.33231 C 37.3265 7.27371 37.5906 6.97296 37.5906 6.6111 L 37.5906 5.73242 C 37.5906 5.32845 37.2619 5 36.8582 5 L 33.297 5 C 32.8933 5 32.5646 5.32845 32.5646 5.73242 L 32.5646 6.61087 C 32.5646 6.97296 32.8287 7.27348 33.1743 7.33231 L 33.1743 10.8315 L 30.2282 13.1111 C 30.1055 13.2054 30.0242 13.3478 30.005 13.5 C 29.9849 13.6547 30.0261 13.8081 30.1213 13.9321 L 30.8338 14.8589 C 30.9455 15.004 31.1144 15.0871 31.2975 15.0871 C 31.4261 15.0871 31.5529 15.0438 31.6555 14.9648 L 32.8747 14.0214 L 32.8747 28.31 C 32.1771 28.6533 31.6399 29.2896 31.4403 30.0658 C 30.7777 30.3212 30.3225 30.9648 30.3225 31.6954 C 30.3225 31.776 30.3282 31.8552 30.3387 31.933 C 30.1993 32.0664 30.1123 32.2536 30.1123 32.4612 L 30.1123 33.8066 C 30.1123 34.2104 30.4408 34.539 30.8448 34.539 L 58.3996 34.539 C 58.6424 34.539 58.839 34.3422 58.839 34.0996 C 58.839 33.8567 58.6424 33.6601 58.3996 33.6601 L 57.1259 33.6601 L 57.1259 25.1837 L 58.3456 26.1274 C 58.4474 26.2061 58.5745 26.2496 58.7031 26.2496 C 58.8864 26.2496 59.0556 26.1663 59.167 26.021 C 59.1686 26.0189 59.1702 26.0168 59.1718 26.0148 L 59.8546 25.0926 L 59.8592 25.0869 C 59.904 25.0306 60.0235 24.8807 59.9958 24.6614 Z M 39.5942 29.3091 C 40.6306 29.3091 41.4738 30.1523 41.4738 31.1884 C 41.4738 31.3763 41.4454 31.5576 41.3939 31.7288 L 38.8872 31.7288 C 38.9062 31.6171 38.9167 31.5022 38.9167 31.385 C 38.9167 30.7888 38.6615 30.2514 38.2553 29.8751 C 38.6027 29.5224 39.0834 29.3091 39.5942 29.3091 Z M 33.4435 5.87891 L 36.7117 5.87891 L 36.7117 6.46439 L 33.4435 6.46439 L 33.4435 5.87891 Z M 36.1019 7.34329 L 36.1019 8.56621 L 34.0532 10.1514 L 34.0532 7.34329 L 36.1019 7.34329 Z M 31.3508 14.0894 L 30.9963 13.6282 L 40.0746 6.60355 C 40.1266 6.56349 40.1859 6.54312 40.2511 6.54312 C 40.3163 6.54312 40.3756 6.56349 40.4273 6.60332 L 49.4933 13.6183 L 49.1473 14.0859 L 40.52 7.41058 C 40.3617 7.28813 40.1406 7.28813 39.9822 7.41058 L 31.3508 14.0894 Z M 42.5729 33.6601 L 30.9912 33.6601 L 30.9912 32.6077 L 35.0392 32.6077 C 35.2819 32.6077 35.4787 32.4111 35.4787 32.1683 C 35.4787 31.9254 35.2819 31.7288 35.0392 31.7288 L 31.2025 31.7288 C 31.202 31.7176 31.2014 31.7066 31.2014 31.6954 C 31.2014 31.2809 31.4959 30.9227 31.9022 30.844 C 32.086 30.8083 32.227 30.6602 32.2535 30.475 C 32.3817 29.5844 33.1576 28.9127 34.0583 28.9127 C 34.8062 28.9127 35.4901 29.3821 35.76 30.0806 C 35.8039 30.1946 35.8932 30.285 36.0067 30.3306 C 36.1203 30.3759 36.2473 30.3718 36.3578 30.3196 C 36.5158 30.245 36.6851 30.207 36.8607 30.207 C 37.5098 30.207 38.0378 30.7355 38.0378 31.3853 C 38.0378 31.505 38.0191 31.6201 37.9856 31.7288 L 37.1486 31.7288 C 36.9058 31.7288 36.7092 31.9257 36.7092 32.1683 C 36.7092 32.4111 36.9058 32.6077 37.1486 32.6077 L 42.5729 32.6077 L 42.5729 33.6601 Z M 58.6459 25.2485 L 50.0186 18.5734 C 49.8602 18.4507 49.6391 18.4507 49.4808 18.5734 L 40.8492 25.2519 L 40.4946 24.7907 L 49.5732 17.7663 C 49.6252 17.7261 49.6845 17.7057 49.7497 17.7057 C 49.8147 17.7057 49.8742 17.7261 49.9259 17.7661 L 58.9919 24.7809 L 58.6459 25.2485 Z" stroke-linecap="round" />
</g>
</g>
</g>
</svg>