<?xml version="1.0" encoding="UTF-8" standalone="no" ?>
<!DOCTYPE svg PUBLIC "-//W3C//DTD SVG 1.1//EN" "http://www.w3.org/Graphics/SVG/1.1/DTD/svg11.dtd">
<svg xmlns="http://www.w3.org/2000/svg" xmlns:xlink="http://www.w3.org/1999/xlink" version="1.1" width="1080" height="1080" viewBox="0 0 1080 1080" xml:space="preserve">
<desc>Created with Fabric.js 5.2.4</desc>
<defs>
</defs>
<rect x="0" y="0" width="100%" height="100%" fill="transparent"></rect>
<g transform="matrix(1 0 0 1 540 540)" id="fed86c00-3535-4ba2-b6f5-b6dbdace4287"  >
</g>
<g transform="matrix(1 0 0 1 540 540)" id="edf80474-1a6c-418a-8fa0-f50bcb0fda23"  >
<rect style="stroke: none; stroke-width: 1; stroke-dasharray: none; stroke-linecap: butt; stroke-dashoffset: 0; stroke-linejoin: miter; stroke-miterlimit: 4; fill: rgb(255,255,255); fill-rule: nonzero; opacity: 1; visibility: hidden;" vector-effect="non-scaling-stroke"  x="-540" y="-540" rx="0" ry="0" width="1080" height="1080" />
</g>
<g transform="matrix(12 0 0 12 540 540)"  >
<g style=""   >
		<g transform="matrix(1 0 0 1 -18.73 -0.59)" clip-path="url(#CLIPPATH_26)"  >
<clipPath id="CLIPPATH_26" >
	<rect transform="matrix(1 0 0 1 0 2.03)" id="clip0_533_7522" x="-16.26505" y="-13.5542" rx="0" ry="0" width="32.5301" height="27.1084" />
</clipPath>
<path style="stroke: none; stroke-width: 1; stroke-dasharray: none; stroke-linecap: butt; stroke-dashoffset: 0; stroke-linejoin: miter; stroke-miterlimit: 4; fill: rgb(255,255,255); fill-rule: nonzero; opacity: 1;" vector-effect="non-scaling-stroke"  transform=" translate(-26.27, -19.41)" d="M 41.4119 16.8828 L 41.1006 16.8828 L 38.1907 9.04257 C 37.9365 8.35639 37.2757 7.89258 36.5387 7.89258 L 15.9914 7.89258 C 15.2607 7.89258 14.5936 8.35639 14.3395 9.04257 L 11.4295 16.8828 L 11.1182 16.8828 C 10.5019 16.8828 10 17.3848 10 18.0011 L 10 18.8969 C 10 19.5132 10.5019 20.0151 11.1182 20.0151 L 11.2834 20.0151 L 11.2834 30.4603 C 11.2834 30.7208 11.4994 30.9369 11.7599 30.9369 C 12.0204 30.9369 12.2364 30.7208 12.2364 30.4603 L 12.2364 20.0151 L 19.7209 20.0151 C 20.1402 20.0151 20.5342 19.8499 20.8264 19.5577 L 26.2651 14.119 L 31.7037 19.5577 C 32.0023 19.8563 32.3962 20.0151 32.8092 20.0151 L 40.2937 20.0151 L 40.2937 21.2795 C 40.2937 21.54 40.5097 21.756 40.7702 21.756 C 41.0307 21.756 41.2467 21.54 41.2467 21.2795 L 41.2467 20.0151 L 41.4119 20.0151 C 42.0282 20.0151 42.5301 19.5132 42.5301 18.8969 L 42.5301 18.0011 C 42.5301 17.3848 42.0282 16.8828 41.4119 16.8828 Z M 15.2353 9.37295 C 15.3497 9.05528 15.6547 8.84561 15.9914 8.84561 L 36.5387 8.84561 C 36.8755 8.84561 37.1804 9.05528 37.2948 9.37295 L 40.084 16.8765 L 33.4636 16.8765 L 27.3769 10.7898 C 27.0783 10.4912 26.6844 10.3323 26.2714 10.3323 C 25.8584 10.3323 25.4582 10.4975 25.1659 10.7898 L 19.0792 16.8765 L 12.4461 16.8765 L 15.2353 9.37295 Z M 41.5771 18.8969 C 41.5771 18.9859 41.5008 19.0621 41.4119 19.0621 L 32.8092 19.0621 C 32.644 19.0621 32.4915 18.9986 32.3772 18.8842 L 26.6018 13.1088 C 26.5128 13.0199 26.3921 12.9691 26.2651 12.9691 C 26.138 12.9691 26.0173 13.0199 25.9283 13.1088 L 20.153 18.8842 C 20.0386 18.9986 19.8798 19.0621 19.7209 19.0621 L 11.1182 19.0621 C 11.0293 19.0621 10.953 18.9859 10.953 18.8969 L 10.953 18.0011 C 10.953 17.9121 11.0293 17.8359 11.1182 17.8359 L 19.2635 17.8359 C 19.3905 17.8359 19.5112 17.785 19.6002 17.6961 L 25.8267 11.4696 C 25.941 11.3553 26.0999 11.2917 26.2587 11.2917 C 26.4175 11.2917 26.5764 11.3553 26.6907 11.4696 L 32.9172 17.6961 C 33.0062 17.785 33.1269 17.8359 33.254 17.8359 L 41.3992 17.8359 C 41.4881 17.8359 41.5644 17.9121 41.5644 18.0011 L 41.5771 18.8969 Z" stroke-linecap="round" />
</g>
		<g transform="matrix(1 0 0 1 -9.55 8.53)" clip-path="url(#CLIPPATH_27)"  >
<clipPath id="CLIPPATH_27" >
	<rect transform="matrix(1 0 0 1 -9.18 -7.08)" id="clip0_533_7522" x="-16.26505" y="-13.5542" rx="0" ry="0" width="32.5301" height="27.1084" />
</clipPath>
<path style="stroke: none; stroke-width: 1; stroke-dasharray: none; stroke-linecap: butt; stroke-dashoffset: 0; stroke-linejoin: miter; stroke-miterlimit: 4; fill: rgb(255,255,255); fill-rule: nonzero; opacity: 1;" vector-effect="non-scaling-stroke"  transform=" translate(-35.45, -28.53)" d="M 38.6546 33.2368 C 38.9151 33.2368 39.1311 33.0207 39.1311 32.7602 L 39.1311 24.291 C 39.1311 24.0305 38.9151 23.8145 38.6546 23.8145 L 32.2375 23.8145 C 31.977 23.8145 31.761 24.0305 31.761 24.291 L 31.761 32.7602 C 31.761 33.0207 31.977 33.2368 32.2375 33.2368 L 38.6546 33.2368 Z M 38.1781 30.2315 L 35.9226 30.2315 L 35.9226 27.976 L 38.1781 27.976 L 38.1781 30.2315 Z M 34.9695 30.2315 L 32.714 30.2315 L 32.714 27.976 L 34.9695 27.976 L 34.9695 30.2315 Z M 38.1781 32.2837 L 32.714 32.2837 L 32.714 31.1846 L 38.1781 31.1846 L 38.1781 32.2837 Z M 38.1781 27.023 L 35.9226 27.023 L 35.9226 24.7675 L 38.1781 24.7675 L 38.1781 27.023 Z M 34.9695 24.7675 L 34.9695 27.023 L 32.714 27.023 L 32.714 24.7675 L 34.9695 24.7675 Z" stroke-linecap="round" />
</g>
		<g transform="matrix(1 0 0 1 -27.91 8.53)" clip-path="url(#CLIPPATH_28)"  >
<clipPath id="CLIPPATH_28" >
	<rect transform="matrix(1 0 0 1 9.18 -7.08)" id="clip0_533_7522" x="-16.26505" y="-13.5542" rx="0" ry="0" width="32.5301" height="27.1084" />
</clipPath>
<path style="stroke: none; stroke-width: 1; stroke-dasharray: none; stroke-linecap: butt; stroke-dashoffset: 0; stroke-linejoin: miter; stroke-miterlimit: 4; fill: rgb(255,255,255); fill-rule: nonzero; opacity: 1;" vector-effect="non-scaling-stroke"  transform=" translate(-17.09, -28.53)" d="M 20.2991 33.2368 C 20.5596 33.2368 20.7756 33.0207 20.7756 32.7602 L 20.7756 24.291 C 20.7756 24.0305 20.5596 23.8145 20.2991 23.8145 L 13.8757 23.8145 C 13.6152 23.8145 13.3992 24.0305 13.3992 24.291 L 13.3992 32.7602 C 13.3992 33.0207 13.6152 33.2368 13.8757 33.2368 L 20.2991 33.2368 Z M 19.8226 30.2315 L 17.5607 30.2315 L 17.5607 27.976 L 19.8162 27.976 L 19.8162 30.2315 L 19.8226 30.2315 Z M 16.6077 30.2315 L 14.3522 30.2315 L 14.3522 27.976 L 16.6077 27.976 L 16.6077 30.2315 Z M 19.8226 32.2837 L 14.3586 32.2837 L 14.3586 31.1846 L 19.8226 31.1846 L 19.8226 32.2837 Z M 19.8226 27.023 L 17.5607 27.023 L 17.5607 24.7675 L 19.8162 24.7675 L 19.8162 27.023 L 19.8226 27.023 Z M 16.6077 24.7675 L 16.6077 27.023 L 14.3522 27.023 L 14.3522 24.7675 L 16.6077 24.7675 Z" stroke-linecap="round" />
</g>
		<g transform="matrix(1 0 0 1 -18.74 7.37)" clip-path="url(#CLIPPATH_29)"  >
<clipPath id="CLIPPATH_29" >
	<rect transform="matrix(1 0 0 1 0 -5.92)" id="clip0_533_7522" x="-16.26505" y="-13.5542" rx="0" ry="0" width="32.5301" height="27.1084" />
</clipPath>
<path style="stroke: none; stroke-width: 1; stroke-dasharray: none; stroke-linecap: butt; stroke-dashoffset: 0; stroke-linejoin: miter; stroke-miterlimit: 4; fill: rgb(255,255,255); fill-rule: nonzero; opacity: 1;" vector-effect="non-scaling-stroke"  transform=" translate(-26.26, -27.37)" d="M 27.8026 25.8672 L 24.7211 25.8672 C 24.4606 25.8672 24.2446 26.0832 24.2446 26.3437 L 24.2446 28.3959 C 24.2446 28.6564 24.4606 28.8724 24.7211 28.8724 L 27.8026 28.8724 C 28.0631 28.8724 28.2791 28.6564 28.2791 28.3959 L 28.2791 26.3437 C 28.2791 26.0832 28.0695 25.8672 27.8026 25.8672 Z M 27.3261 27.9194 L 25.1977 27.9194 L 25.1977 26.8202 L 27.3261 26.8202 L 27.3261 27.9194 Z" stroke-linecap="round" />
</g>
		<g transform="matrix(1 0 0 1 -18.73 -0.14)" clip-path="url(#CLIPPATH_30)"  >
<clipPath id="CLIPPATH_30" >
	<rect transform="matrix(1 0 0 1 0 1.58)" id="clip0_533_7522" x="-16.26505" y="-13.5542" rx="0" ry="0" width="32.5301" height="27.1084" />
</clipPath>
<path style="stroke: none; stroke-width: 1; stroke-dasharray: none; stroke-linecap: butt; stroke-dashoffset: 0; stroke-linejoin: miter; stroke-miterlimit: 4; fill: rgb(255,255,255); fill-rule: nonzero; opacity: 1;" vector-effect="non-scaling-stroke"  transform=" translate(-26.27, -19.86)" d="M 28.7937 19.8627 C 28.7937 18.4649 27.6565 17.334 26.265 17.334 C 24.8736 17.334 23.7363 18.4713 23.7363 19.8627 C 23.7363 21.2541 24.8736 22.3914 26.265 22.3914 C 27.6565 22.3914 28.7937 21.2541 28.7937 19.8627 Z M 24.6894 19.8627 C 24.6894 18.9923 25.3946 18.287 26.265 18.287 C 27.1355 18.287 27.8407 18.9923 27.8407 19.8627 C 27.8407 20.7331 27.1355 21.4384 26.265 21.4384 C 25.3946 21.4384 24.6894 20.7331 24.6894 19.8627 Z" stroke-linecap="round" />
</g>
		<g transform="matrix(1 0 0 1 -18.73 8.97)" clip-path="url(#CLIPPATH_31)"  >
<clipPath id="CLIPPATH_31" >
	<rect transform="matrix(1 0 0 1 0 -7.53)" id="clip0_533_7522" x="-16.26505" y="-13.5542" rx="0" ry="0" width="32.5301" height="27.1084" />
</clipPath>
<path style="stroke: none; stroke-width: 1; stroke-dasharray: none; stroke-linecap: butt; stroke-dashoffset: 0; stroke-linejoin: miter; stroke-miterlimit: 4; fill: rgb(255,255,255); fill-rule: nonzero; opacity: 1;" vector-effect="non-scaling-stroke"  transform=" translate(-26.27, -28.97)" d="M 42.5301 34.4315 C 42.5301 34.171 42.3141 33.9549 42.0536 33.9549 L 41.2467 33.9549 L 41.2467 23.5097 C 41.2467 23.2492 41.0307 23.0332 40.7702 23.0332 C 40.5097 23.0332 40.2937 23.2492 40.2937 23.5097 L 40.2937 33.9549 L 30.3377 33.9549 L 30.3377 24.2912 C 30.3377 24.0307 30.1217 23.8147 29.8612 23.8147 L 22.669 23.8147 C 22.4085 23.8147 22.1924 24.0307 22.1924 24.2912 L 22.1924 33.9549 L 12.2364 33.9549 L 12.2364 32.6906 C 12.2364 32.4301 12.0204 32.2141 11.7599 32.2141 C 11.4994 32.2141 11.2834 32.4301 11.2834 32.6906 L 11.2834 33.9549 L 10.4765 33.9549 C 10.216 33.9549 10 34.171 10 34.4315 L 10.953 34.908 L 41.5771 34.908 L 42.5301 34.4315 Z M 23.1455 30.4796 L 23.8253 30.4796 C 24.0858 30.4796 24.3018 30.2635 24.3018 30.003 C 24.3018 29.7425 24.0858 29.5265 23.8253 29.5265 L 23.1455 29.5265 L 23.1455 24.7677 L 29.3783 24.7677 L 29.3783 33.9549 L 23.1455 33.9549 L 23.1455 30.4796 Z" stroke-linecap="round" />
</g>
		<g transform="matrix(1 0 0 1 27.41 5.17)" clip-path="url(#CLIPPATH_32)"  >
<clipPath id="CLIPPATH_32" >
	<rect transform="matrix(1 0 0 1 -8.74 -5.17)" id="clip1_533_7522" x="-16.80725" y="-15" rx="0" ry="0" width="33.6145" height="30" />
</clipPath>
<path style="stroke: none; stroke-width: 1; stroke-dasharray: none; stroke-linecap: butt; stroke-dashoffset: 0; stroke-linejoin: miter; stroke-miterlimit: 4; fill: rgb(255,255,255); fill-rule: nonzero; opacity: 1;" vector-effect="non-scaling-stroke"  transform=" translate(-72.41, -25.17)" d="M 75.8311 21.6719 L 68.9968 21.6719 C 68.7216 21.6719 68.4985 21.895 68.4985 22.1701 L 68.4985 28.1717 C 68.4985 28.447 68.7216 28.67 68.9968 28.67 L 75.8312 28.67 C 76.1064 28.67 76.3295 28.4469 76.3295 28.1717 L 76.3295 22.1701 C 76.3294 21.895 76.1064 21.6719 75.8311 21.6719 Z M 75.3329 27.6735 L 69.495 27.6735 L 69.495 24.4921 L 75.3329 24.4921 L 75.3329 27.6735 Z M 75.333 23.4957 L 69.495 23.4957 L 69.495 22.6684 L 75.333 22.6684 L 75.333 23.4957 Z" stroke-linecap="round" />
</g>
		<g transform="matrix(1 0 0 1 18.67 -0.13)" clip-path="url(#CLIPPATH_33)"  >
<clipPath id="CLIPPATH_33" >
	<rect transform="matrix(1 0 0 1 0 0.13)" id="clip1_533_7522" x="-16.80725" y="-15" rx="0" ry="0" width="33.6145" height="30" />
</clipPath>
<path style="stroke: none; stroke-width: 1; stroke-dasharray: none; stroke-linecap: butt; stroke-dashoffset: 0; stroke-linejoin: miter; stroke-miterlimit: 4; fill: rgb(255,255,255); fill-rule: nonzero; opacity: 1;" vector-effect="non-scaling-stroke"  transform=" translate(-63.67, -19.87)" d="M 79.9834 30.8404 L 77.723 30.8404 L 77.723 26.578 C 77.723 26.3028 77.4999 26.0797 77.2248 26.0797 C 76.9496 26.0797 76.7265 26.3028 76.7265 26.578 L 76.7265 30.8404 L 68.9967 30.8404 C 68.7216 30.8404 68.4985 31.0635 68.4985 31.3386 L 68.4985 33.7471 L 67.7525 33.7471 L 67.7525 23.8523 C 67.7525 23.5772 67.5294 23.3541 67.2543 23.3541 L 61.2527 23.3541 C 60.9775 23.3541 60.7544 23.5772 60.7544 23.8523 L 60.7544 33.7471 L 60.3085 33.7471 L 60.3085 31.3386 C 60.3085 31.0635 60.0854 30.8404 59.8103 30.8404 L 59.5245 30.8404 L 59.5245 22.2807 L 68.1253 14.0693 L 76.7265 22.2812 L 76.7265 24.2528 C 76.7265 24.528 76.9496 24.7511 77.2247 24.7511 C 77.4999 24.7511 77.723 24.528 77.723 24.2528 L 77.723 23.2326 L 78.1414 23.632 C 78.3251 23.8074 78.6112 23.8165 78.8057 23.6533 L 80.2435 22.4464 C 80.3102 22.3904 80.3657 22.3207 80.3973 22.2396 C 80.4737 22.0439 80.421 21.8313 80.2777 21.6948 L 77.8198 19.354 L 77.8198 12.914 C 77.8198 12.6389 77.5967 12.4158 77.3216 12.4158 L 72.772 12.4158 C 72.4968 12.4158 72.2737 12.6389 72.2737 12.914 L 72.2737 14.0722 L 69.1869 11.1323 L 68.4645 10.4614 C 68.2734 10.2838 67.9777 10.2838 67.7863 10.4614 L 67.0595 11.1367 L 61.7223 16.2196 C 61.6848 12.4316 60.4225 8.91628 58.3804 6.8593 C 58.178 6.65545 57.8439 6.66858 57.6545 6.88471 C 57.4814 7.08213 57.4923 7.37888 57.6774 7.5652 C 59.5685 9.4677 60.7277 12.7947 60.7277 16.3931 C 60.7277 16.6586 60.7197 16.9239 60.7072 17.1863 L 55.9732 21.6948 C 55.8299 21.8313 55.7772 22.0439 55.8535 22.2396 C 55.8852 22.3207 55.9407 22.3904 56.0074 22.4464 L 57.4451 23.6533 C 57.538 23.7313 57.6518 23.77 57.7654 23.77 C 57.8896 23.77 58.0135 23.7238 58.1095 23.6321 L 58.5283 23.2324 L 58.5283 24.1987 C 57.3494 25.8708 55.8511 26.7899 54.2958 26.7899 C 52.6212 26.7899 51.0303 25.7385 49.8159 23.8295 C 48.5571 21.8506 47.8638 19.2097 47.8638 16.3932 C 47.8638 13.5767 48.5571 10.9358 49.8159 8.95692 C 51.0302 7.04792 52.6212 5.99655 54.2959 5.99655 C 54.8775 5.99655 55.4512 6.12339 56.0068 6.37406 C 56.2392 6.4789 56.5134 6.38548 56.6393 6.16377 C 56.7844 5.90844 56.6783 5.58333 56.4106 5.46286 C 55.7279 5.15547 55.0188 5 54.2959 5 C 52.2684 5 50.3788 6.21524 48.9752 8.42198 C 47.6158 10.5586 46.8672 13.3895 46.8672 16.393 C 46.8672 19.3965 47.6158 22.2273 48.975 24.3642 C 49.921 25.8515 51.0881 26.8877 52.3691 27.4056 L 52.3691 30.8403 L 50.8531 30.8403 L 50.8531 30.099 C 50.8531 29.8261 50.6428 29.5883 50.3702 29.58 C 50.0881 29.5716 49.8566 29.7978 49.8566 30.0781 L 49.8566 30.8404 L 49.2527 30.8404 L 49.2527 30.099 C 49.2527 29.8262 49.0424 29.5883 48.7698 29.5801 C 48.4876 29.5717 48.2562 29.7979 48.2562 30.0782 L 48.2562 30.8405 L 47.3654 30.8405 C 47.0903 30.8405 46.8672 31.0635 46.8672 31.3387 L 46.8672 34.2454 C 46.8672 34.5206 47.0903 34.7437 47.3654 34.7437 L 59.8103 34.7437 C 59.8108 34.7437 59.8112 34.7436 59.8116 34.7436 L 61.2527 34.7436 L 67.2543 34.7436 L 68.9954 34.7436 C 68.9959 34.7436 68.9963 34.7437 68.9967 34.7437 L 79.9833 34.7437 C 80.2585 34.7437 80.4816 34.5206 80.4816 34.2454 L 80.4816 31.3387 C 80.4816 31.0634 80.2586 30.8404 79.9834 30.8404 Z M 73.2702 13.4122 L 76.8233 13.4122 L 76.8233 18.4049 L 73.2702 15.0211 L 73.2702 13.4122 Z M 57.744 22.6031 L 57.0638 22.0321 L 67.7422 11.8624 L 68.1254 11.5064 L 68.5042 11.8581 L 79.1872 22.0321 L 78.5069 22.6031 L 68.4695 13.0201 C 68.3732 12.9282 68.2494 12.8822 68.1254 12.8822 C 68.0016 12.8822 67.8777 12.9282 67.7814 13.0201 L 57.744 22.6031 Z M 56.2222 27.4039 C 57.0468 27.0693 57.8257 26.5194 58.5281 25.7741 L 58.5281 30.8404 L 57.8734 30.8404 L 57.8734 30.0781 C 57.8734 29.8029 57.6504 29.5798 57.3752 29.5798 C 57.1 29.5798 56.8769 29.8029 56.8769 30.0781 L 56.8769 30.8404 L 56.2222 30.8404 L 56.2222 27.4039 Z M 53.3656 27.6995 C 53.6715 27.7569 53.9819 27.7861 54.2957 27.7861 C 54.609 27.7861 54.9194 27.7562 55.2257 27.6983 L 55.2257 30.8403 L 53.3656 30.8403 L 53.3656 27.6995 Z M 59.3121 33.7471 L 59.0263 33.7471 L 47.8637 33.7471 L 47.8637 31.8369 L 52.8616 31.8369 C 52.8635 31.8369 52.8655 31.8371 52.8674 31.8371 L 55.7239 31.8371 C 55.7258 31.8371 55.7278 31.8369 55.7297 31.8369 L 59.3122 31.8369 L 59.3122 33.7471 L 59.3121 33.7471 Z M 66.7561 33.7471 L 61.751 33.7471 L 61.751 24.3506 L 66.7561 24.3506 L 66.7561 33.7471 Z M 79.4852 33.7471 L 77.2248 33.7471 L 69.495 33.7471 L 69.495 31.8369 L 79.4852 31.8369 L 79.4852 33.7471 Z" stroke-linecap="round" />
</g>
		<g transform="matrix(1 0 0 1 20.64 7.34)" clip-path="url(#CLIPPATH_34)"  >
<clipPath id="CLIPPATH_34" >
	<rect transform="matrix(1 0 0 1 -1.96 -7.34)" id="clip1_533_7522" x="-16.80725" y="-15" rx="0" ry="0" width="33.6145" height="30" />
</clipPath>
<path style="stroke: none; stroke-width: 1; stroke-dasharray: none; stroke-linecap: butt; stroke-dashoffset: 0; stroke-linejoin: miter; stroke-miterlimit: 4; fill: rgb(255,255,255); fill-rule: nonzero; opacity: 1;" vector-effect="non-scaling-stroke"  transform=" translate(-65.64, -27.34)" d="M 66.072 26.8379 L 65.2009 26.8379 C 64.9257 26.8379 64.7026 27.061 64.7026 27.3361 C 64.7026 27.6113 64.9257 27.8344 65.2009 27.8344 L 66.072 27.8344 C 66.3473 27.8344 66.5703 27.6113 66.5703 27.3361 C 66.5703 27.061 66.3473 26.8379 66.072 26.8379 Z" stroke-linecap="round" />
</g>
		<g transform="matrix(1 0 0 1 23.13 -2.46)" clip-path="url(#CLIPPATH_35)"  >
<clipPath id="CLIPPATH_35" >
	<rect transform="matrix(1 0 0 1 -4.45 2.46)" id="clip1_533_7522" x="-16.80725" y="-15" rx="0" ry="0" width="33.6145" height="30" />
</clipPath>
<path style="stroke: none; stroke-width: 1; stroke-dasharray: none; stroke-linecap: butt; stroke-dashoffset: 0; stroke-linejoin: miter; stroke-miterlimit: 4; fill: rgb(255,255,255); fill-rule: nonzero; opacity: 1;" vector-effect="non-scaling-stroke"  transform=" translate(-68.13, -17.54)" d="M 68.1257 15.3691 C 66.9304 15.3691 65.9578 16.3417 65.9578 17.5371 C 65.9578 18.7326 66.9304 19.705 68.1257 19.705 C 69.3211 19.705 70.2937 18.7325 70.2937 17.5371 C 70.2938 16.3417 69.3212 15.3691 68.1257 15.3691 Z M 68.1257 18.7085 C 67.4797 18.7085 66.9542 18.183 66.9542 17.5371 C 66.9542 16.8912 67.4797 16.3656 68.1257 16.3656 C 68.7717 16.3656 69.2972 16.8912 69.2972 17.5371 C 69.2973 18.183 68.7717 18.7085 68.1257 18.7085 Z" stroke-linecap="round" />
</g>
</g>
</g>
</svg>