<?xml version="1.0" encoding="UTF-8" standalone="no" ?>
<!DOCTYPE svg PUBLIC "-//W3C//DTD SVG 1.1//EN" "http://www.w3.org/Graphics/SVG/1.1/DTD/svg11.dtd">
<svg xmlns="http://www.w3.org/2000/svg" xmlns:xlink="http://www.w3.org/1999/xlink" version="1.1" width="1080" height="1080" viewBox="0 0 1080 1080" xml:space="preserve">
<desc>Created with Fabric.js 5.2.4</desc>
<defs>
</defs>
<g transform="matrix(1 0 0 1 540 540)" id="fed86c00-3535-4ba2-b6f5-b6dbdace4287"  >
</g>
<g transform="matrix(1 0 0 1 540 540)" id="edf80474-1a6c-418a-8fa0-f50bcb0fda23"  >
<rect style="stroke: none; stroke-width: 1; stroke-dasharray: none; stroke-linecap: butt; stroke-dashoffset: 0; stroke-linejoin: miter; stroke-miterlimit: 4; fill: rgb(255,255,255); fill-rule: nonzero; opacity: 1; visibility: hidden;" vector-effect="non-scaling-stroke"  x="-540" y="-540" rx="0" ry="0" width="1080" height="1080" />
</g>
<g transform="matrix(12 0 0 12 540 520.53)"  >
<g style=""   >
		<g transform="matrix(1 0 0 1 5 8.19)" clip-path="url(#CLIPPATH_6)"  >
<clipPath id="CLIPPATH_6" >
	<rect transform="matrix(-1 0 0 1 -5 -8.19)" id="clip0_533_7524" x="-15" y="-15" rx="0" ry="0" width="30" height="30" />
</clipPath>
<path style="stroke: none; stroke-width: 1; stroke-dasharray: none; stroke-linecap: butt; stroke-dashoffset: 0; stroke-linejoin: miter; stroke-miterlimit: 4; fill: rgb(255,255,255); fill-rule: nonzero; opacity: 1;" vector-effect="non-scaling-stroke"  transform=" translate(-50, -28.19)" d="M 48.6387 31.3613 C 48.3984 31.3613 48.1992 31.1621 48.1992 30.9219 L 48.1992 25.4609 C 48.1992 25.2207 48.3984 25.0215 48.6387 25.0215 L 51.3691 25.0215 C 51.6094 25.0215 51.8086 25.2207 51.8086 25.4609 L 51.8086 30.9219 C 51.8086 31.1621 51.6094 31.3613 51.3691 31.3613 L 48.6387 31.3613 Z M 50.9297 30.4824 L 50.9297 29.5391 L 49.0781 29.5391 L 49.0781 30.4824 L 50.9297 30.4824 Z M 49.0781 25.9004 L 49.0781 28.6602 L 50.9297 28.6602 L 50.9297 25.9004 L 49.0781 25.9004 Z" stroke-linecap="round" />
</g>
		<g transform="matrix(1 0 0 1 0 8.19)" clip-path="url(#CLIPPATH_7)"  >
<clipPath id="CLIPPATH_7" >
	<rect transform="matrix(-1 0 0 1 0 -8.19)" id="clip0_533_7524" x="-15" y="-15" rx="0" ry="0" width="30" height="30" />
</clipPath>
<path style="stroke: none; stroke-width: 1; stroke-dasharray: none; stroke-linecap: butt; stroke-dashoffset: 0; stroke-linejoin: miter; stroke-miterlimit: 4; fill: rgb(255,255,255); fill-rule: nonzero; opacity: 1;" vector-effect="non-scaling-stroke"  transform=" translate(-45, -28.19)" d="M 43.6348 25.0215 L 46.3652 25.0215 C 46.6055 25.0215 46.8047 25.2207 46.8047 25.4609 L 46.8047 30.9219 C 46.8047 31.1621 46.6055 31.3613 46.3652 31.3613 L 43.6348 31.3613 C 43.3945 31.3613 43.1953 31.1621 43.1953 30.9219 L 43.1953 29.1055 L 43.1953 25.4668 C 43.1953 25.2148 43.3945 25.0215 43.6348 25.0215 Z M 44.0742 25.9004 L 44.0742 28.6602 L 45.9258 28.6602 L 45.9258 25.9004 L 44.0742 25.9004 Z M 45.9258 30.4824 L 45.9258 29.5391 L 44.0742 29.5391 L 44.0742 30.4824 L 45.9258 30.4824 Z" stroke-linecap="round" />
</g>
		<g transform="matrix(1 0 0 1 0 0)" clip-path="url(#CLIPPATH_8)"  >
<clipPath id="CLIPPATH_8" >
	<rect transform="matrix(-1 0 0 1 0 0)" id="clip0_533_7524" x="-15" y="-15" rx="0" ry="0" width="30" height="30" />
</clipPath>
<path style="stroke: none; stroke-width: 1; stroke-dasharray: none; stroke-linecap: butt; stroke-dashoffset: 0; stroke-linejoin: miter; stroke-miterlimit: 4; fill: rgb(255,255,255); fill-rule: nonzero; opacity: 1;" vector-effect="non-scaling-stroke"  transform=" translate(-45, -20)" d="M 30.9082 29.0996 L 30.9082 25.4609 C 30.9082 24.2129 31.9219 23.1992 33.1699 23.1992 C 34.418 23.1992 35.4316 24.2129 35.4316 25.4609 L 35.4316 29.0996 C 35.4316 30.1953 34.6465 31.1094 33.6094 31.3145 L 33.6094 34.1211 L 36.3691 34.1211 L 36.3691 23.1758 L 35.9004 23.1758 C 35.6602 23.1758 35.4609 22.9766 35.4609 22.7363 C 35.4609 22.4961 35.6602 22.2969 35.9004 22.2969 L 36.3691 22.2969 L 36.3691 20.0527 C 36.3691 19.8125 36.5684 19.6133 36.8086 19.6133 C 37.0488 19.6133 37.248 19.8125 37.248 20.0527 L 37.248 22.2969 L 38.1914 22.2969 L 38.1914 17.2754 C 38.1914 17.0352 38.3906 16.8359 38.6309 16.8359 L 41.3613 16.8359 C 41.6016 16.8359 41.8008 17.0352 41.8008 17.2754 L 41.8008 22.2969 L 43.1953 22.2969 L 43.1953 20.9141 L 43.1953 17.2754 C 43.1953 17.0352 43.3945 16.8359 43.6348 16.8359 L 46.3652 16.8359 C 46.6055 16.8359 46.8047 17.0352 46.8047 17.2754 L 46.8047 22.2969 L 48.1992 22.2969 L 48.1992 17.2754 C 48.1992 17.0352 48.3984 16.8359 48.6387 16.8359 L 51.3691 16.8359 C 51.6094 16.8359 51.8086 17.0352 51.8086 17.2754 L 51.8086 22.2969 L 52.752 22.2969 L 52.752 14.9785 L 37.248 14.9785 L 37.248 18.1309 C 37.248 18.3711 37.0488 18.5703 36.8086 18.5703 C 36.5684 18.5703 36.3691 18.3711 36.3691 18.1309 L 36.3691 14.9785 L 35.9004 14.9785 C 35.6602 14.9785 35.4609 14.7793 35.4609 14.5391 C 35.4609 14.2988 35.6602 14.0996 35.9004 14.0996 L 36.3691 14.0996 L 36.3691 7.70117 L 35.9004 7.70117 C 35.6602 7.70117 35.4609 7.50195 35.4609 7.26172 L 35.4609 5.43945 C 35.4609 5.19922 35.6602 5 35.9004 5 L 44.0449 5 C 44.2852 5 44.4844 5.19922 44.4844 5.43945 C 44.4844 5.67969 44.2852 5.87891 44.0449 5.87891 L 36.3398 5.87891 L 36.3398 6.82227 L 36.8086 6.82227 L 53.1914 6.82227 L 53.6602 6.82227 L 53.6602 5.87891 L 45.9551 5.87891 C 45.7148 5.87891 45.5156 5.67969 45.5156 5.43945 C 45.5156 5.19922 45.7148 5 45.9551 5 L 54.0996 5 C 54.3398 5 54.5391 5.19922 54.5391 5.43945 L 54.5391 7.26172 C 54.5391 7.50195 54.3398 7.70117 54.0996 7.70117 L 53.6309 7.70117 L 53.6309 14.1055 L 54.0996 14.1055 C 54.3398 14.1055 54.5391 14.3047 54.5391 14.5449 C 54.5391 14.7852 54.3398 14.9844 54.0996 14.9844 L 53.6309 14.9844 L 53.6309 22.2969 L 54.0996 22.2969 C 54.3398 22.2969 54.5391 22.4961 54.5391 22.7363 C 54.5391 22.9766 54.3398 23.1758 54.0996 23.1758 L 53.6309 23.1758 L 53.6309 26.3281 C 53.6309 26.5684 53.4316 26.7676 53.1914 26.7676 C 52.9512 26.7676 52.752 26.5684 52.752 26.3281 L 52.752 23.1758 L 37.248 23.1758 L 37.248 34.1211 L 38.1914 34.1211 L 38.1914 27.2773 C 38.1914 27.0371 38.3906 26.8379 38.6309 26.8379 L 41.3613 26.8379 C 41.6016 26.8379 41.8008 27.0371 41.8008 27.2773 L 41.8008 34.1211 L 52.752 34.1211 L 52.752 28.2383 C 52.752 27.998 52.9512 27.7988 53.1914 27.7988 C 53.4316 27.7988 53.6309 27.998 53.6309 28.2383 L 53.6309 34.1211 L 56.3906 34.1211 L 56.3906 31.3145 C 55.957 31.2266 55.5527 31.0156 55.2305 30.6934 C 54.8027 30.2656 54.5684 29.6973 54.5684 29.0938 L 54.5684 25.4551 C 54.5684 24.207 55.582 23.1934 56.8301 23.1934 C 58.0781 23.1934 59.0918 24.207 59.0918 25.4551 L 59.0918 29.0938 C 59.0918 30.1895 58.3066 31.1035 57.2695 31.3086 L 57.2695 34.1211 L 58.6523 34.1211 C 58.8926 34.1211 59.0918 34.3203 59.0918 34.5605 C 59.0918 34.8008 58.8926 35 58.6523 35 L 53.1973 35 L 36.8145 35 L 31.3477 35 C 31.1074 35 30.9082 34.8008 30.9082 34.5605 C 30.9082 34.3203 31.1074 34.1211 31.3477 34.1211 L 32.7305 34.1211 L 32.7305 31.3145 C 31.6934 31.1094 30.9082 30.1953 30.9082 29.0996 Z M 40.9219 21.3477 L 39.0703 21.3477 L 39.0703 22.291 L 40.9219 22.291 L 40.9219 21.3477 Z M 39.0703 17.709 L 39.0703 20.4688 L 40.9219 20.4688 L 40.9219 17.709 L 39.0703 17.709 Z M 45.9258 21.3477 L 44.0742 21.3477 L 44.0742 22.291 L 45.9258 22.291 L 45.9258 21.3477 Z M 44.0742 17.709 L 44.0742 20.4688 L 45.9258 20.4688 L 45.9258 17.709 L 44.0742 17.709 Z M 50.9297 21.3477 L 49.0781 21.3477 L 49.0781 22.291 L 50.9297 22.291 L 50.9297 21.3477 Z M 49.0781 17.709 L 49.0781 20.4688 L 50.9297 20.4688 L 50.9297 17.709 L 49.0781 17.709 Z M 50.9297 13.1621 L 49.0781 13.1621 L 49.0781 14.1055 L 50.9297 14.1055 L 50.9297 13.1621 Z M 49.0781 12.2832 L 50.9297 12.2832 L 50.9297 9.51758 L 49.0781 9.51758 L 49.0781 12.2832 Z M 45.9258 13.1621 L 44.0742 13.1621 L 44.0742 14.1055 L 45.9258 14.1055 L 45.9258 13.1621 Z M 44.0742 12.2832 L 45.9258 12.2832 L 45.9258 9.51758 L 44.0742 9.51758 L 44.0742 12.2832 Z M 40.9219 13.1621 L 39.0703 13.1621 L 39.0703 14.1055 L 40.9219 14.1055 L 40.9219 13.1621 Z M 39.0703 12.2832 L 40.9219 12.2832 L 40.9219 9.51758 L 39.0703 9.51758 L 39.0703 12.2832 Z M 52.752 7.70117 L 37.248 7.70117 L 37.248 14.1055 L 38.1914 14.1055 L 38.1914 9.07812 C 38.1914 8.83789 38.3906 8.63867 38.6309 8.63867 L 41.3613 8.63867 C 41.6016 8.63867 41.8008 8.83789 41.8008 9.07812 L 41.8008 14.0996 L 43.1953 14.0996 L 43.1953 12.7168 L 43.1953 9.07812 C 43.1953 8.83789 43.3945 8.63867 43.6348 8.63867 L 46.3652 8.63867 C 46.6055 8.63867 46.8047 8.83789 46.8047 9.07812 L 46.8047 14.0996 L 48.1992 14.0996 L 48.1992 9.07812 C 48.1992 8.83789 48.3984 8.63867 48.6387 8.63867 L 51.3691 8.63867 C 51.6094 8.63867 51.8086 8.83789 51.8086 9.07812 L 51.8086 14.0996 L 52.752 14.0996 L 52.752 7.70117 Z M 40.9219 29.5391 L 39.0703 29.5391 L 39.0703 34.1211 L 40.9219 34.1211 L 40.9219 29.5391 Z M 39.0703 27.7168 L 39.0703 28.6602 L 40.9219 28.6602 L 40.9219 27.7168 L 39.0703 27.7168 Z M 58.2129 29.0996 L 58.2129 25.4609 C 58.2129 24.6992 57.5918 24.0781 56.8301 24.0781 C 56.0684 24.0781 55.4473 24.6992 55.4473 25.4609 L 55.4473 29.0996 C 55.4473 29.4688 55.5937 29.8145 55.8516 30.0781 C 56.1094 30.3359 56.4551 30.4824 56.8242 30.4824 C 56.8242 30.4824 56.8242 30.4824 56.8301 30.4824 C 56.8301 30.4824 56.8301 30.4824 56.8359 30.4824 C 57.5918 30.4766 58.2129 29.8613 58.2129 29.0996 Z M 34.5527 29.0996 L 34.5527 25.4609 C 34.5527 24.6992 33.9316 24.0781 33.1699 24.0781 C 32.4082 24.0781 31.7871 24.6992 31.7871 25.4609 L 31.7871 29.0996 C 31.7871 29.8613 32.4023 30.4766 33.1641 30.4824 C 33.1641 30.4824 33.1641 30.4824 33.1699 30.4824 C 33.9316 30.4766 34.5527 29.8613 34.5527 29.0996 Z" stroke-linecap="round" />
</g>
		<g transform="matrix(1 0 0 1 -36.13 -4.79)" clip-path="url(#CLIPPATH_9)"  >
<clipPath id="CLIPPATH_9" >
	<rect transform="matrix(1 0 0 1 5.08 6.74)" id="clip1_533_7524" x="-13.95" y="-13.05" rx="0" ry="0" width="27.9" height="26.1" />
</clipPath>
<path style="stroke: none; stroke-width: 1; stroke-dasharray: none; stroke-linecap: butt; stroke-dashoffset: 0; stroke-linejoin: miter; stroke-miterlimit: 4; fill: rgb(255,255,255); fill-rule: nonzero; opacity: 1;" vector-effect="non-scaling-stroke"  transform=" translate(-8.87, -15.21)" d="M 4.94189 15.6139 L 5.07812 15.6139 L 5.07812 17.7353 C 5.07812 17.9599 5.26122 18.1423 5.48682 18.1423 L 12.2575 18.1423 C 12.4831 18.1423 12.6662 17.9599 12.6662 17.7353 L 12.6662 15.6139 L 12.8024 15.6139 C 13.028 15.6139 13.2111 15.4316 13.2111 15.2069 C 13.2111 14.9822 13.028 14.7999 12.8024 14.7999 L 12.6662 14.7999 L 12.6662 12.6785 C 12.6662 12.4538 12.4831 12.2715 12.2575 12.2715 L 5.48682 12.2715 C 5.26122 12.2715 5.07812 12.4538 5.07812 12.6785 L 5.07812 14.7999 L 4.94189 14.7999 C 4.7163 14.7999 4.5332 14.9822 4.5332 15.2069 C 4.5332 15.4316 4.7163 15.6139 4.94189 15.6139 Z M 5.89551 15.6139 L 6.77065 15.6139 L 6.77065 17.3282 L 5.89551 17.3282 L 5.89551 15.6139 Z M 8.46318 15.6139 L 8.46318 17.3282 L 7.58804 17.3282 L 7.58804 15.6139 L 8.46318 15.6139 Z M 10.1557 15.6139 L 10.1557 17.3282 L 9.28056 17.3282 L 9.28056 15.6139 L 10.1557 15.6139 Z M 11.8482 17.3282 L 10.9731 17.3282 L 10.9731 15.6139 L 11.8482 15.6139 L 11.8482 17.3282 Z M 5.89551 13.0855 L 11.8488 13.0855 L 11.8488 14.7999 L 5.89551 14.7999 L 5.89551 13.0855 Z" stroke-linecap="round" />
</g>
		<g transform="matrix(1 0 0 1 -36.13 1.96)" clip-path="url(#CLIPPATH_10)"  >
<clipPath id="CLIPPATH_10" >
	<rect transform="matrix(1 0 0 1 5.08 0)" id="clip1_533_7524" x="-13.95" y="-13.05" rx="0" ry="0" width="27.9" height="26.1" />
</clipPath>
<path style="stroke: none; stroke-width: 1; stroke-dasharray: none; stroke-linecap: butt; stroke-dashoffset: 0; stroke-linejoin: miter; stroke-miterlimit: 4; fill: rgb(255,255,255); fill-rule: nonzero; opacity: 1;" vector-effect="non-scaling-stroke"  transform=" translate(-8.87, -21.95)" d="M 12.2575 24.8864 C 12.4831 24.8864 12.6662 24.7041 12.6662 24.4794 L 12.6662 22.358 L 12.8024 22.358 C 13.028 22.358 13.2111 22.1757 13.2111 21.951 C 13.2111 21.7263 13.028 21.544 12.8024 21.544 L 12.6662 21.544 L 12.6662 19.4226 C 12.6662 19.198 12.4831 19.0156 12.2575 19.0156 L 5.48682 19.0156 C 5.26122 19.0156 5.07812 19.198 5.07812 19.4226 L 5.07812 21.544 L 4.94189 21.544 C 4.7163 21.544 4.5332 21.7263 4.5332 21.951 C 4.5332 22.1757 4.7163 22.358 4.94189 22.358 L 5.07812 22.358 L 5.07812 24.4794 C 5.07812 24.7041 5.26122 24.8864 5.48682 24.8864 L 12.2575 24.8864 Z M 8.46318 22.358 L 8.46318 24.0724 L 7.58804 24.0724 L 7.58804 22.358 L 8.46318 22.358 Z M 10.1557 22.358 L 10.1557 24.0724 L 9.28056 24.0724 L 9.28056 22.358 L 10.1557 22.358 Z M 11.8482 24.0724 L 10.9731 24.0724 L 10.9731 22.358 L 11.8482 22.358 L 11.8482 24.0724 Z M 5.89496 19.8291 L 11.8482 19.8291 L 11.8482 21.5435 L 5.89551 21.5435 L 5.89551 19.8291 L 5.89496 19.8291 Z M 6.77011 22.3575 L 6.77011 24.0718 L 5.89496 24.0718 L 5.89496 22.3575 L 6.77011 22.3575 Z" stroke-linecap="round" />
</g>
		<g transform="matrix(1 0 0 1 -36.97 11.64)" clip-path="url(#CLIPPATH_11)"  >
<clipPath id="CLIPPATH_11" >
	<rect transform="matrix(1 0 0 1 5.92 -9.69)" id="clip1_533_7524" x="-13.95" y="-13.05" rx="0" ry="0" width="27.9" height="26.1" />
</clipPath>
<path style="stroke: none; stroke-width: 1; stroke-dasharray: none; stroke-linecap: butt; stroke-dashoffset: 0; stroke-linejoin: miter; stroke-miterlimit: 4; fill: rgb(255,255,255); fill-rule: nonzero; opacity: 1;" vector-effect="non-scaling-stroke"  transform=" translate(-8.03, -31.64)" d="M 8.02588 30.8145 C 7.80028 30.8145 7.61719 30.9968 7.61719 31.2215 L 7.61719 32.0643 C 7.61719 32.2889 7.80028 32.4713 8.02588 32.4713 C 8.25148 32.4713 8.43457 32.2889 8.43457 32.0643 L 8.43457 31.2215 C 8.43457 30.9968 8.25148 30.8145 8.02588 30.8145 Z" stroke-linecap="round" />
</g>
		<g transform="matrix(1 0 0 1 -25.97 -4.79)" clip-path="url(#CLIPPATH_12)"  >
<clipPath id="CLIPPATH_12" >
	<rect transform="matrix(1 0 0 1 -5.08 6.74)" id="clip1_533_7524" x="-13.95" y="-13.05" rx="0" ry="0" width="27.9" height="26.1" />
</clipPath>
<path style="stroke: none; stroke-width: 1; stroke-dasharray: none; stroke-linecap: butt; stroke-dashoffset: 0; stroke-linejoin: miter; stroke-miterlimit: 4; fill: rgb(255,255,255); fill-rule: nonzero; opacity: 1;" vector-effect="non-scaling-stroke"  transform=" translate(-19.03, -15.21)" d="M 22.9582 14.7999 L 22.8219 14.7999 L 22.8219 12.6785 C 22.8219 12.4538 22.6388 12.2715 22.4132 12.2715 L 15.6426 12.2715 C 15.417 12.2715 15.2339 12.4538 15.2339 12.6785 L 15.2339 14.7999 L 15.0977 14.7999 C 14.8721 14.7999 14.689 14.9822 14.689 15.2069 C 14.689 15.4316 14.8721 15.6139 15.0977 15.6139 L 15.2339 15.6139 L 15.2339 17.7353 C 15.2339 17.9599 15.417 18.1423 15.6426 18.1423 L 22.4132 18.1423 C 22.6388 18.1423 22.8219 17.9599 22.8219 17.7353 L 22.8219 15.6139 L 22.9582 15.6139 C 23.1838 15.6139 23.3668 15.4316 23.3668 15.2069 C 23.3668 14.9822 23.1838 14.7999 22.9582 14.7999 Z M 16.0513 13.0855 L 22.0045 13.0855 L 22.0045 14.7999 L 16.0513 14.7999 L 16.0513 13.0855 Z M 18.6189 15.6139 L 18.6189 17.3282 L 17.7438 17.3282 L 17.7438 15.6139 L 18.6189 15.6139 Z M 19.4363 15.6139 L 20.3115 15.6139 L 20.3115 17.3282 L 19.4363 17.3282 L 19.4363 15.6139 Z M 16.0513 15.6139 L 16.9264 15.6139 L 16.9264 17.3282 L 16.0513 17.3282 L 16.0513 15.6139 Z M 22.0045 17.3282 L 21.1294 17.3282 L 21.1294 15.6139 L 22.0045 15.6139 L 22.0045 17.3282 Z" stroke-linecap="round" />
</g>
		<g transform="matrix(1 0 0 1 -25.97 1.96)" clip-path="url(#CLIPPATH_13)"  >
<clipPath id="CLIPPATH_13" >
	<rect transform="matrix(1 0 0 1 -5.08 0)" id="clip1_533_7524" x="-13.95" y="-13.05" rx="0" ry="0" width="27.9" height="26.1" />
</clipPath>
<path style="stroke: none; stroke-width: 1; stroke-dasharray: none; stroke-linecap: butt; stroke-dashoffset: 0; stroke-linejoin: miter; stroke-miterlimit: 4; fill: rgb(255,255,255); fill-rule: nonzero; opacity: 1;" vector-effect="non-scaling-stroke"  transform=" translate(-19.03, -21.95)" d="M 15.6426 24.8864 L 22.4132 24.8864 C 22.6388 24.8864 22.8219 24.7041 22.8219 24.4794 L 22.8219 22.358 L 22.9582 22.358 C 23.1838 22.358 23.3668 22.1757 23.3668 21.951 C 23.3668 21.7263 23.1838 21.544 22.9582 21.544 L 22.8219 21.544 L 22.8219 19.4226 C 22.8219 19.198 22.6388 19.0156 22.4132 19.0156 L 15.6426 19.0156 C 15.417 19.0156 15.2339 19.198 15.2339 19.4226 L 15.2339 21.544 L 15.0977 21.544 C 14.8721 21.544 14.689 21.7263 14.689 21.951 C 14.689 22.1757 14.8721 22.358 15.0977 22.358 L 15.2339 22.358 L 15.2339 24.4794 C 15.2339 24.7041 15.417 24.8864 15.6426 24.8864 Z M 16.0513 22.358 L 16.9264 22.358 L 16.9264 24.0724 L 16.0513 24.0724 L 16.0513 22.358 Z M 18.6189 22.358 L 18.6189 24.0724 L 17.7438 24.0724 L 17.7438 22.358 L 18.6189 22.358 Z M 20.3115 22.358 L 20.3115 24.0724 L 19.4363 24.0724 L 19.4363 22.358 L 20.3115 22.358 Z M 22.004 24.0724 L 21.1289 24.0724 L 21.1289 22.358 L 22.004 22.358 L 22.004 24.0724 Z M 16.0507 19.8291 L 22.004 19.8291 L 22.004 21.5435 L 16.0507 21.5435 L 16.0507 19.8291 Z" stroke-linecap="round" />
</g>
		<g transform="matrix(1 0 0 1 -26.82 11.64)" clip-path="url(#CLIPPATH_14)"  >
<clipPath id="CLIPPATH_14" >
	<rect transform="matrix(1 0 0 1 -4.23 -9.69)" id="clip1_533_7524" x="-13.95" y="-13.05" rx="0" ry="0" width="27.9" height="26.1" />
</clipPath>
<path style="stroke: none; stroke-width: 1; stroke-dasharray: none; stroke-linecap: butt; stroke-dashoffset: 0; stroke-linejoin: miter; stroke-miterlimit: 4; fill: rgb(255,255,255); fill-rule: nonzero; opacity: 1;" vector-effect="non-scaling-stroke"  transform=" translate(-18.18, -31.64)" d="M 18.1824 30.8145 C 17.9568 30.8145 17.7737 30.9968 17.7737 31.2215 L 17.7737 32.0643 C 17.7737 32.2889 17.9568 32.4713 18.1824 32.4713 C 18.408 32.4713 18.5911 32.2889 18.5911 32.0643 L 18.5911 31.2215 C 18.5911 30.9968 18.408 30.8145 18.1824 30.8145 Z" stroke-linecap="round" />
</g>
		<g transform="matrix(1 0 0 1 -31.05 1.95)" clip-path="url(#CLIPPATH_15)"  >
<clipPath id="CLIPPATH_15" >
	<rect transform="matrix(1 0 0 1 0 0)" id="clip1_533_7524" x="-13.95" y="-13.05" rx="0" ry="0" width="27.9" height="26.1" />
</clipPath>
<path style="stroke: none; stroke-width: 1; stroke-dasharray: none; stroke-linecap: butt; stroke-dashoffset: 0; stroke-linejoin: miter; stroke-miterlimit: 4; fill: rgb(255,255,255); fill-rule: nonzero; opacity: 1;" vector-effect="non-scaling-stroke"  transform=" translate(-13.95, -21.95)" d="M 27.4913 34.1864 L 26.2075 34.1864 L 26.2075 31.5896 C 26.6129 31.5104 26.9856 31.3134 27.2842 31.016 C 27.6809 30.6209 27.8995 30.095 27.8995 29.5361 L 27.8995 26.1649 C 27.8995 25.0111 26.9567 24.0723 25.7982 24.0723 C 25.3149 24.0723 24.8697 24.2362 24.5139 24.5102 L 24.5139 19.6206 C 24.5139 19.396 24.3308 19.2136 24.1052 19.2136 C 23.8796 19.2136 23.6965 19.396 23.6965 19.6206 L 23.6965 34.1864 L 21.9751 34.1864 L 21.9751 27.8505 C 21.9751 27.6258 21.792 27.4435 21.5664 27.4435 L 16.4882 27.4435 C 16.2626 27.4435 16.0796 27.6258 16.0796 27.8505 L 16.0796 34.1864 L 14.3581 34.1864 L 14.3581 11.4006 L 23.6965 11.4006 L 23.6965 17.8466 C 23.6965 18.0713 23.8796 18.2536 24.1052 18.2536 C 24.3308 18.2536 24.5139 18.0713 24.5139 17.8466 L 24.5139 10.9935 C 24.5139 10.7689 24.3308 10.5865 24.1052 10.5865 L 23.6676 10.5865 L 23.6676 9.30741 C 23.6676 9.08273 23.4845 8.90039 23.2589 8.90039 L 19.918 8.90039 C 19.6924 8.90039 19.5093 9.08273 19.5093 9.30741 C 19.5093 9.53208 19.6924 9.71442 19.918 9.71442 L 22.8502 9.71442 L 22.8502 10.5865 L 15.2044 10.5865 L 15.2044 9.71442 L 18.1366 9.71442 C 18.3622 9.71442 18.5453 9.53208 18.5453 9.30741 C 18.5453 9.08273 18.3622 8.90039 18.1366 8.90039 L 14.7957 8.90039 C 14.5701 8.90039 14.387 9.08273 14.387 9.30741 L 14.387 10.5865 L 13.9527 10.5865 C 13.9527 10.5865 13.9505 10.5865 13.9495 10.5865 L 13.5119 10.5865 L 13.5119 9.30741 C 13.5119 9.08273 13.3288 8.90039 13.1032 8.90039 L 9.76227 8.90039 C 9.53668 8.90039 9.35358 9.08273 9.35358 9.30741 C 9.35358 9.53208 9.53668 9.71442 9.76227 9.71442 L 12.6945 9.71442 L 12.6945 10.5865 L 5.04925 10.5865 L 5.04925 9.71442 L 7.98147 9.71442 C 8.20707 9.71442 8.39016 9.53208 8.39016 9.30741 C 8.39016 9.08273 8.20707 8.90039 7.98147 8.90039 L 4.64055 8.90039 C 4.41496 8.90039 4.23186 9.08273 4.23186 9.30741 L 4.23186 10.5865 L 3.79429 10.5865 C 3.56869 10.5865 3.3856 10.7689 3.3856 10.9935 L 3.3856 24.5102 C 3.03031 24.2362 2.58511 24.0723 2.10176 24.0723 C 0.94326 24.0723 0.000544922 25.0111 0.000544922 26.1649 L 0.000544922 29.5361 C 0.000544922 30.5504 0.72965 31.3986 1.69307 31.5885 L 1.69307 34.1858 L 0.408691 34.1858 C 0.183094 34.1858 0 34.3682 0 34.5928 C 0 34.8175 0.183094 34.9998 0.408691 34.9998 L 2.09904 34.9998 C 2.09904 34.9998 2.10067 34.9998 2.10122 34.9998 C 2.10176 34.9998 2.10285 34.9998 2.1034 34.9998 L 13.9478 34.9998 C 13.9478 34.9998 13.9495 34.9998 13.95 34.9998 L 24.1057 34.9998 C 24.1057 34.9998 24.1073 34.9998 24.1079 34.9998 L 25.7966 34.9998 C 25.7966 34.9998 25.7982 34.9998 25.7988 34.9998 C 25.7993 34.9998 25.8004 34.9998 25.801 34.9998 L 27.4913 34.9998 C 27.7169 34.9998 27.9 34.8175 27.9 34.5928 C 27.9 34.3682 27.7169 34.1858 27.4913 34.1858 L 27.4913 34.1864 Z M 16.8975 28.2575 L 21.1582 28.2575 L 21.1582 34.1864 L 16.8975 34.1864 L 16.8975 28.2575 Z M 0.817383 29.5366 L 0.817383 26.1654 C 0.817383 25.4605 1.39337 24.8869 2.10122 24.8869 C 2.80907 24.8869 3.38505 25.4605 3.38505 26.1654 L 3.38505 29.5366 C 3.38505 29.878 3.25155 30.1992 3.00906 30.4407 C 2.76657 30.6822 2.44561 30.8146 2.10394 30.8152 C 2.10285 30.8152 2.10176 30.8152 2.10122 30.8152 C 2.10013 30.8152 2.09958 30.8152 2.09849 30.8152 C 1.39173 30.8136 0.817383 30.2405 0.817383 29.5366 Z M 2.50991 31.5901 C 2.82869 31.5277 3.12731 31.3926 3.3856 31.1929 L 3.3856 34.1869 L 2.50991 34.1869 L 2.50991 31.5901 Z M 4.20244 11.4006 L 4.63729 11.4006 C 4.63729 11.4006 4.63946 11.4006 4.64055 11.4006 L 13.1037 11.4006 C 13.1037 11.4006 13.1059 11.4006 13.107 11.4006 L 13.5413 11.4006 L 13.5413 34.1864 L 11.8199 34.1864 L 11.8199 27.8505 C 11.8199 27.6258 11.6368 27.4435 11.4112 27.4435 L 6.33308 27.4435 C 6.10748 27.4435 5.92439 27.6258 5.92439 27.8505 L 5.92439 34.1864 L 4.20298 34.1864 L 4.20298 11.4006 L 4.20244 11.4006 Z M 6.74123 34.1864 L 6.74123 28.2575 L 11.002 28.2575 L 11.002 34.1864 L 6.74177 34.1864 L 6.74123 34.1864 Z M 24.5144 26.1649 C 24.5144 25.4599 25.0904 24.8863 25.7982 24.8863 C 26.5061 24.8863 27.0821 25.4599 27.0821 26.1649 L 27.0821 29.5361 C 27.0821 29.8774 26.9486 30.1987 26.7061 30.4402 C 26.4636 30.6817 26.1432 30.8141 25.801 30.8146 C 25.7999 30.8146 25.7993 30.8146 25.7982 30.8146 C 25.7971 30.8146 25.7961 30.8146 25.7955 30.8146 C 25.0887 30.813 24.5144 30.2405 24.5144 29.5361 L 24.5144 26.1649 Z M 25.3901 31.5891 L 25.3901 34.1864 L 24.5144 34.1864 L 24.5144 31.1907 C 24.7672 31.3855 25.0653 31.5245 25.3901 31.5885 L 25.3901 31.5891 Z" stroke-linecap="round" />
</g>
		<g transform="matrix(1 0 0 1 25.97 -4.79)" clip-path="url(#CLIPPATH_16)"  >
<clipPath id="CLIPPATH_16" >
	<rect transform="matrix(1 0 0 1 5.08 6.74)" id="clip2_533_7524" x="-13.95" y="-13.05" rx="0" ry="0" width="27.9" height="26.1" />
</clipPath>
<path style="stroke: none; stroke-width: 1; stroke-dasharray: none; stroke-linecap: butt; stroke-dashoffset: 0; stroke-linejoin: miter; stroke-miterlimit: 4; fill: rgb(255,255,255); fill-rule: nonzero; opacity: 1;" vector-effect="non-scaling-stroke"  transform=" translate(-70.97, -15.21)" d="M 67.0422 15.6139 L 67.1785 15.6139 L 67.1785 17.7353 C 67.1785 17.9599 67.3616 18.1423 67.5872 18.1423 L 74.3578 18.1423 C 74.5834 18.1423 74.7665 17.9599 74.7665 17.7353 L 74.7665 15.6139 L 74.9027 15.6139 C 75.1283 15.6139 75.3114 15.4316 75.3114 15.2069 C 75.3114 14.9822 75.1283 14.7999 74.9027 14.7999 L 74.7665 14.7999 L 74.7665 12.6785 C 74.7665 12.4538 74.5834 12.2715 74.3578 12.2715 L 67.5872 12.2715 C 67.3616 12.2715 67.1785 12.4538 67.1785 12.6785 L 67.1785 14.7999 L 67.0422 14.7999 C 66.8166 14.7999 66.6335 14.9822 66.6335 15.2069 C 66.6335 15.4316 66.8166 15.6139 67.0422 15.6139 Z M 67.9958 15.6139 L 68.871 15.6139 L 68.871 17.3282 L 67.9958 17.3282 L 67.9958 15.6139 Z M 70.5635 15.6139 L 70.5635 17.3282 L 69.6884 17.3282 L 69.6884 15.6139 L 70.5635 15.6139 Z M 72.256 15.6139 L 72.256 17.3282 L 71.3809 17.3282 L 71.3809 15.6139 L 72.256 15.6139 Z M 73.9486 17.3282 L 73.0734 17.3282 L 73.0734 15.6139 L 73.9486 15.6139 L 73.9486 17.3282 Z M 67.9958 13.0855 L 73.9491 13.0855 L 73.9491 14.7999 L 67.9958 14.7999 L 67.9958 13.0855 Z" stroke-linecap="round" />
</g>
		<g transform="matrix(1 0 0 1 25.97 1.96)" clip-path="url(#CLIPPATH_17)"  >
<clipPath id="CLIPPATH_17" >
	<rect transform="matrix(1 0 0 1 5.08 0)" id="clip2_533_7524" x="-13.95" y="-13.05" rx="0" ry="0" width="27.9" height="26.1" />
</clipPath>
<path style="stroke: none; stroke-width: 1; stroke-dasharray: none; stroke-linecap: butt; stroke-dashoffset: 0; stroke-linejoin: miter; stroke-miterlimit: 4; fill: rgb(255,255,255); fill-rule: nonzero; opacity: 1;" vector-effect="non-scaling-stroke"  transform=" translate(-70.97, -21.95)" d="M 74.3576 24.8864 C 74.5832 24.8864 74.7663 24.7041 74.7663 24.4794 L 74.7663 22.358 L 74.9025 22.358 C 75.1281 22.358 75.3112 22.1757 75.3112 21.951 C 75.3112 21.7263 75.1281 21.544 74.9025 21.544 L 74.7663 21.544 L 74.7663 19.4226 C 74.7663 19.198 74.5832 19.0156 74.3576 19.0156 L 67.5869 19.0156 C 67.3613 19.0156 67.1782 19.198 67.1782 19.4226 L 67.1782 21.544 L 67.042 21.544 C 66.8164 21.544 66.6333 21.7263 66.6333 21.951 C 66.6333 22.1757 66.8164 22.358 67.042 22.358 L 67.1782 22.358 L 67.1782 24.4794 C 67.1782 24.7041 67.3613 24.8864 67.5869 24.8864 L 74.3576 24.8864 Z M 70.5633 22.358 L 70.5633 24.0724 L 69.6881 24.0724 L 69.6881 22.358 L 70.5633 22.358 Z M 72.2558 22.358 L 72.2558 24.0724 L 71.3807 24.0724 L 71.3807 22.358 L 72.2558 22.358 Z M 73.9483 24.0724 L 73.0732 24.0724 L 73.0732 22.358 L 73.9483 22.358 L 73.9483 24.0724 Z M 67.9951 19.8291 L 73.9483 19.8291 L 73.9483 21.5435 L 67.9956 21.5435 L 67.9956 19.8291 L 67.9951 19.8291 Z M 68.8702 22.3575 L 68.8702 24.0718 L 67.9951 24.0718 L 67.9951 22.3575 L 68.8702 22.3575 Z" stroke-linecap="round" />
</g>
		<g transform="matrix(1 0 0 1 25.13 11.64)" clip-path="url(#CLIPPATH_18)"  >
<clipPath id="CLIPPATH_18" >
	<rect transform="matrix(1 0 0 1 5.92 -9.69)" id="clip2_533_7524" x="-13.95" y="-13.05" rx="0" ry="0" width="27.9" height="26.1" />
</clipPath>
<path style="stroke: none; stroke-width: 1; stroke-dasharray: none; stroke-linecap: butt; stroke-dashoffset: 0; stroke-linejoin: miter; stroke-miterlimit: 4; fill: rgb(255,255,255); fill-rule: nonzero; opacity: 1;" vector-effect="non-scaling-stroke"  transform=" translate(-70.13, -31.64)" d="M 70.1257 30.8145 C 69.9001 30.8145 69.717 30.9968 69.717 31.2215 L 69.717 32.0643 C 69.717 32.2889 69.9001 32.4713 70.1257 32.4713 C 70.3513 32.4713 70.5344 32.2889 70.5344 32.0643 L 70.5344 31.2215 C 70.5344 30.9968 70.3513 30.8145 70.1257 30.8145 Z" stroke-linecap="round" />
</g>
		<g transform="matrix(1 0 0 1 36.13 -4.79)" clip-path="url(#CLIPPATH_19)"  >
<clipPath id="CLIPPATH_19" >
	<rect transform="matrix(1 0 0 1 -5.08 6.74)" id="clip2_533_7524" x="-13.95" y="-13.05" rx="0" ry="0" width="27.9" height="26.1" />
</clipPath>
<path style="stroke: none; stroke-width: 1; stroke-dasharray: none; stroke-linecap: butt; stroke-dashoffset: 0; stroke-linejoin: miter; stroke-miterlimit: 4; fill: rgb(255,255,255); fill-rule: nonzero; opacity: 1;" vector-effect="non-scaling-stroke"  transform=" translate(-81.13, -15.21)" d="M 85.058 14.7999 L 84.9218 14.7999 L 84.9218 12.6785 C 84.9218 12.4538 84.7387 12.2715 84.5131 12.2715 L 77.7424 12.2715 C 77.5168 12.2715 77.3337 12.4538 77.3337 12.6785 L 77.3337 14.7999 L 77.1975 14.7999 C 76.9719 14.7999 76.7888 14.9822 76.7888 15.2069 C 76.7888 15.4316 76.9719 15.6139 77.1975 15.6139 L 77.3337 15.6139 L 77.3337 17.7353 C 77.3337 17.9599 77.5168 18.1423 77.7424 18.1423 L 84.5131 18.1423 C 84.7387 18.1423 84.9218 17.9599 84.9218 17.7353 L 84.9218 15.6139 L 85.058 15.6139 C 85.2836 15.6139 85.4667 15.4316 85.4667 15.2069 C 85.4667 14.9822 85.2836 14.7999 85.058 14.7999 Z M 78.1511 13.0855 L 84.1044 13.0855 L 84.1044 14.7999 L 78.1511 14.7999 L 78.1511 13.0855 Z M 80.7188 15.6139 L 80.7188 17.3282 L 79.8437 17.3282 L 79.8437 15.6139 L 80.7188 15.6139 Z M 81.5362 15.6139 L 82.4113 15.6139 L 82.4113 17.3282 L 81.5362 17.3282 L 81.5362 15.6139 Z M 78.1511 15.6139 L 79.0263 15.6139 L 79.0263 17.3282 L 78.1511 17.3282 L 78.1511 15.6139 Z M 84.1044 17.3282 L 83.2293 17.3282 L 83.2293 15.6139 L 84.1044 15.6139 L 84.1044 17.3282 Z" stroke-linecap="round" />
</g>
		<g transform="matrix(1 0 0 1 36.13 1.96)" clip-path="url(#CLIPPATH_20)"  >
<clipPath id="CLIPPATH_20" >
	<rect transform="matrix(1 0 0 1 -5.08 0)" id="clip2_533_7524" x="-13.95" y="-13.05" rx="0" ry="0" width="27.9" height="26.1" />
</clipPath>
<path style="stroke: none; stroke-width: 1; stroke-dasharray: none; stroke-linecap: butt; stroke-dashoffset: 0; stroke-linejoin: miter; stroke-miterlimit: 4; fill: rgb(255,255,255); fill-rule: nonzero; opacity: 1;" vector-effect="non-scaling-stroke"  transform=" translate(-81.13, -21.95)" d="M 77.7427 24.8864 L 84.5133 24.8864 C 84.7389 24.8864 84.922 24.7041 84.922 24.4794 L 84.922 22.358 L 85.0583 22.358 C 85.2838 22.358 85.4669 22.1757 85.4669 21.951 C 85.4669 21.7263 85.2838 21.544 85.0583 21.544 L 84.922 21.544 L 84.922 19.4226 C 84.922 19.198 84.7389 19.0156 84.5133 19.0156 L 77.7427 19.0156 C 77.5171 19.0156 77.334 19.198 77.334 19.4226 L 77.334 21.544 L 77.1978 21.544 C 76.9722 21.544 76.7891 21.7263 76.7891 21.951 C 76.7891 22.1757 76.9722 22.358 77.1978 22.358 L 77.334 22.358 L 77.334 24.4794 C 77.334 24.7041 77.5171 24.8864 77.7427 24.8864 Z M 78.1514 22.358 L 79.0265 22.358 L 79.0265 24.0724 L 78.1514 24.0724 L 78.1514 22.358 Z M 80.719 22.358 L 80.719 24.0724 L 79.8439 24.0724 L 79.8439 22.358 L 80.719 22.358 Z M 82.4116 22.358 L 82.4116 24.0724 L 81.5364 24.0724 L 81.5364 22.358 L 82.4116 22.358 Z M 84.1041 24.0724 L 83.2289 24.0724 L 83.2289 22.358 L 84.1041 22.358 L 84.1041 24.0724 Z M 78.1508 19.8291 L 84.1041 19.8291 L 84.1041 21.5435 L 78.1508 21.5435 L 78.1508 19.8291 Z" stroke-linecap="round" />
</g>
		<g transform="matrix(1 0 0 1 35.28 11.64)" clip-path="url(#CLIPPATH_21)"  >
<clipPath id="CLIPPATH_21" >
	<rect transform="matrix(1 0 0 1 -4.23 -9.69)" id="clip2_533_7524" x="-13.95" y="-13.05" rx="0" ry="0" width="27.9" height="26.1" />
</clipPath>
<path style="stroke: none; stroke-width: 1; stroke-dasharray: none; stroke-linecap: butt; stroke-dashoffset: 0; stroke-linejoin: miter; stroke-miterlimit: 4; fill: rgb(255,255,255); fill-rule: nonzero; opacity: 1;" vector-effect="non-scaling-stroke"  transform=" translate(-80.28, -31.64)" d="M 80.282 30.8145 C 80.0564 30.8145 79.8733 30.9968 79.8733 31.2215 L 79.8733 32.0643 C 79.8733 32.2889 80.0564 32.4713 80.282 32.4713 C 80.5076 32.4713 80.6907 32.2889 80.6907 32.0643 L 80.6907 31.2215 C 80.6907 30.9968 80.5076 30.8145 80.282 30.8145 Z" stroke-linecap="round" />
</g>
		<g transform="matrix(1 0 0 1 31.05 1.95)" clip-path="url(#CLIPPATH_22)"  >
<clipPath id="CLIPPATH_22" >
	<rect transform="matrix(1 0 0 1 0 0)" id="clip2_533_7524" x="-13.95" y="-13.05" rx="0" ry="0" width="27.9" height="26.1" />
</clipPath>
<path style="stroke: none; stroke-width: 1; stroke-dasharray: none; stroke-linecap: butt; stroke-dashoffset: 0; stroke-linejoin: miter; stroke-miterlimit: 4; fill: rgb(255,255,255); fill-rule: nonzero; opacity: 1;" vector-effect="non-scaling-stroke"  transform=" translate(-76.05, -21.95)" d="M 89.5914 34.1864 L 88.3076 34.1864 L 88.3076 31.5896 C 88.713 31.5104 89.0857 31.3134 89.3843 31.016 C 89.781 30.6209 89.9996 30.095 89.9996 29.5361 L 89.9996 26.1649 C 89.9996 25.0111 89.0568 24.0723 87.8983 24.0723 C 87.415 24.0723 86.9698 24.2362 86.614 24.5102 L 86.614 19.6206 C 86.614 19.396 86.4309 19.2136 86.2053 19.2136 C 85.9797 19.2136 85.7966 19.396 85.7966 19.6206 L 85.7966 34.1864 L 84.0752 34.1864 L 84.0752 27.8505 C 84.0752 27.6258 83.8921 27.4435 83.6665 27.4435 L 78.5883 27.4435 C 78.3627 27.4435 78.1797 27.6258 78.1797 27.8505 L 78.1797 34.1864 L 76.4582 34.1864 L 76.4582 11.4006 L 85.7966 11.4006 L 85.7966 17.8466 C 85.7966 18.0713 85.9797 18.2536 86.2053 18.2536 C 86.4309 18.2536 86.614 18.0713 86.614 17.8466 L 86.614 10.9935 C 86.614 10.7689 86.4309 10.5865 86.2053 10.5865 L 85.7677 10.5865 L 85.7677 9.30741 C 85.7677 9.08273 85.5846 8.90039 85.359 8.90039 L 82.0181 8.90039 C 81.7925 8.90039 81.6094 9.08273 81.6094 9.30741 C 81.6094 9.53208 81.7925 9.71442 82.0181 9.71442 L 84.9503 9.71442 L 84.9503 10.5865 L 77.3045 10.5865 L 77.3045 9.71442 L 80.2367 9.71442 C 80.4623 9.71442 80.6454 9.53208 80.6454 9.30741 C 80.6454 9.08273 80.4623 8.90039 80.2367 8.90039 L 76.8958 8.90039 C 76.6702 8.90039 76.4871 9.08273 76.4871 9.30741 L 76.4871 10.5865 L 76.0528 10.5865 C 76.0528 10.5865 76.0506 10.5865 76.0496 10.5865 L 75.612 10.5865 L 75.612 9.30741 C 75.612 9.08273 75.4289 8.90039 75.2033 8.90039 L 71.8624 8.90039 C 71.6368 8.90039 71.4537 9.08273 71.4537 9.30741 C 71.4537 9.53208 71.6368 9.71442 71.8624 9.71442 L 74.7946 9.71442 L 74.7946 10.5865 L 67.1493 10.5865 L 67.1493 9.71442 L 70.0816 9.71442 C 70.3072 9.71442 70.4903 9.53208 70.4903 9.30741 C 70.4903 9.08273 70.3072 8.90039 70.0816 8.90039 L 66.7407 8.90039 C 66.5151 8.90039 66.332 9.08273 66.332 9.30741 L 66.332 10.5865 L 65.8944 10.5865 C 65.6688 10.5865 65.4857 10.7689 65.4857 10.9935 L 65.4857 24.5102 C 65.1304 24.2362 64.6852 24.0723 64.2019 24.0723 C 63.0434 24.0723 62.1006 25.0111 62.1006 26.1649 L 62.1006 29.5361 C 62.1006 30.5504 62.8297 31.3986 63.7932 31.5885 L 63.7932 34.1858 L 62.5088 34.1858 C 62.2832 34.1858 62.1001 34.3682 62.1001 34.5928 C 62.1001 34.8175 62.2832 34.9998 62.5088 34.9998 L 64.1991 34.9998 C 64.1991 34.9998 64.2008 34.9998 64.2013 34.9998 C 64.2019 34.9998 64.203 34.9998 64.2035 34.9998 L 76.0479 34.9998 C 76.0479 34.9998 76.0496 34.9998 76.0501 34.9998 L 86.2058 34.9998 C 86.2058 34.9998 86.2074 34.9998 86.208 34.9998 L 87.8967 34.9998 C 87.8967 34.9998 87.8983 34.9998 87.8989 34.9998 C 87.8994 34.9998 87.9005 34.9998 87.9011 34.9998 L 89.5914 34.9998 C 89.817 34.9998 90.0001 34.8175 90.0001 34.5928 C 90.0001 34.3682 89.817 34.1858 89.5914 34.1858 L 89.5914 34.1864 Z M 78.9976 28.2575 L 83.2583 28.2575 L 83.2583 34.1864 L 78.9976 34.1864 L 78.9976 28.2575 Z M 62.9175 29.5366 L 62.9175 26.1654 C 62.9175 25.4605 63.4935 24.8869 64.2013 24.8869 C 64.9092 24.8869 65.4852 25.4605 65.4852 26.1654 L 65.4852 29.5366 C 65.4852 29.878 65.3516 30.1992 65.1092 30.4407 C 64.8667 30.6822 64.5457 30.8146 64.204 30.8152 C 64.203 30.8152 64.2019 30.8152 64.2013 30.8152 C 64.2002 30.8152 64.1997 30.8152 64.1986 30.8152 C 63.4918 30.8136 62.9175 30.2405 62.9175 29.5366 Z M 64.61 31.5901 C 64.9288 31.5277 65.2274 31.3926 65.4857 31.1929 L 65.4857 34.1869 L 64.61 34.1869 L 64.61 31.5901 Z M 66.3025 11.4006 L 66.7374 11.4006 C 66.7374 11.4006 66.7396 11.4006 66.7407 11.4006 L 75.2038 11.4006 C 75.2038 11.4006 75.206 11.4006 75.2071 11.4006 L 75.6414 11.4006 L 75.6414 34.1864 L 73.92 34.1864 L 73.92 27.8505 C 73.92 27.6258 73.7369 27.4435 73.5113 27.4435 L 68.4332 27.4435 C 68.2076 27.4435 68.0245 27.6258 68.0245 27.8505 L 68.0245 34.1864 L 66.3031 34.1864 L 66.3031 11.4006 L 66.3025 11.4006 Z M 68.8413 34.1864 L 68.8413 28.2575 L 73.1021 28.2575 L 73.1021 34.1864 L 68.8419 34.1864 L 68.8413 34.1864 Z M 86.6145 26.1649 C 86.6145 25.4599 87.1905 24.8863 87.8983 24.8863 C 88.6062 24.8863 89.1822 25.4599 89.1822 26.1649 L 89.1822 29.5361 C 89.1822 29.8774 89.0487 30.1987 88.8062 30.4402 C 88.5637 30.6817 88.2433 30.8141 87.9011 30.8146 C 87.9 30.8146 87.8994 30.8146 87.8983 30.8146 C 87.8972 30.8146 87.8962 30.8146 87.8956 30.8146 C 87.1888 30.813 86.6145 30.2405 86.6145 29.5361 L 86.6145 26.1649 Z M 87.4902 31.5891 L 87.4902 34.1864 L 86.6145 34.1864 L 86.6145 31.1907 C 86.8673 31.3855 87.1654 31.5245 87.4902 31.5885 L 87.4902 31.5891 Z" stroke-linecap="round" />
</g>
</g>
</g>
</svg>