<svg xmlns="http://www.w3.org/2000/svg" width="260" height="100" viewBox="0 0 260 100" fill="none">
    <path d="M83.4373 29.0643C83.4373 35.175 77.0893 41.7883 72.3973 46.4906C67.1534 41.7883 61.3574 35.175 61.3574 29.0643C61.3574 22.9537 66.3002 18 72.3973 18C78.4945 18 83.4373 22.9537 83.4373 29.0643Z" fill="#e6ff4c"/>
    <path opacity="0.8" d="M66.8334 31.14C67.6014 30.476 68.2054 29.932 68.6454 29.508C69.0934 29.076 69.4654 28.628 69.7614 28.164C70.0574 27.7 70.2054 27.236 70.2054 26.772C70.2054 26.292 70.0894 25.916 69.8574 25.644C69.6334 25.372 69.2774 25.236 68.7894 25.236C68.3174 25.236 67.9494 25.388 67.6854 25.692C67.4294 25.988 67.2934 26.388 67.2774 26.892H65.9574C65.9814 25.98 66.2534 25.284 66.7734 24.804C67.3014 24.316 67.9694 24.072 68.7774 24.072C69.6494 24.072 70.3294 24.312 70.8174 24.792C71.3134 25.272 71.5614 25.912 71.5614 26.712C71.5614 27.288 71.4134 27.844 71.1174 28.38C70.8294 28.908 70.4814 29.384 70.0734 29.808C69.6734 30.224 69.1614 30.708 68.5374 31.26L67.9974 31.74H71.8014V32.88H65.9694V31.884L66.8334 31.14ZM73.8792 28.428C73.0472 28.012 72.6312 27.356 72.6312 26.46C72.6312 26.028 72.7392 25.632 72.9552 25.272C73.1712 24.912 73.4952 24.628 73.9272 24.42C74.3592 24.204 74.8872 24.096 75.5112 24.096C76.1272 24.096 76.6512 24.204 77.0832 24.42C77.5232 24.628 77.8512 24.912 78.0672 25.272C78.2832 25.632 78.3912 26.028 78.3912 26.46C78.3912 26.908 78.2752 27.304 78.0432 27.648C77.8192 27.984 77.5192 28.244 77.1432 28.428C77.5992 28.596 77.9592 28.872 78.2232 29.256C78.4872 29.632 78.6192 30.076 78.6192 30.588C78.6192 31.108 78.4872 31.568 78.2232 31.968C77.9592 32.368 77.5912 32.676 77.1192 32.892C76.6472 33.108 76.1112 33.216 75.5112 33.216C74.9112 33.216 74.3752 33.108 73.9032 32.892C73.4392 32.676 73.0752 32.368 72.8112 31.968C72.5472 31.568 72.4152 31.108 72.4152 30.588C72.4152 30.068 72.5472 29.62 72.8112 29.244C73.0752 28.868 73.4312 28.596 73.8792 28.428ZM77.0832 26.628C77.0832 26.18 76.9432 25.836 76.6632 25.596C76.3832 25.356 75.9992 25.236 75.5112 25.236C75.0312 25.236 74.6512 25.356 74.3712 25.596C74.0912 25.836 73.9512 26.184 73.9512 26.64C73.9512 27.04 74.0952 27.368 74.3832 27.624C74.6792 27.872 75.0552 27.996 75.5112 27.996C75.9672 27.996 76.3432 27.868 76.6392 27.612C76.9352 27.356 77.0832 27.028 77.0832 26.628ZM75.5112 29.028C74.9832 29.028 74.5512 29.16 74.2152 29.424C73.8872 29.68 73.7232 30.052 73.7232 30.54C73.7232 30.996 73.8832 31.368 74.2032 31.656C74.5232 31.936 74.9592 32.076 75.5112 32.076C76.0552 32.076 76.4832 31.932 76.7952 31.644C77.1152 31.356 77.2752 30.988 77.2752 30.54C77.2752 30.06 77.1112 29.688 76.7832 29.424C76.4632 29.16 76.0392 29.028 75.5112 29.028Z" fill="#273720"/>
    <path d="M140.437 16.0643C140.437 22.175 134.089 28.7883 129.397 33.4906C124.153 28.7883 118.357 22.175 118.357 16.0643C118.357 9.95366 123.3 5 129.397 5C135.495 5 140.437 9.95366 140.437 16.0643Z" fill="#e6ff4c"/>
    <path opacity="0.8" d="M127.781 13.28C127.693 12.912 127.533 12.636 127.301 12.452C127.069 12.268 126.745 12.176 126.329 12.176C125.697 12.176 125.225 12.42 124.913 12.908C124.601 13.388 124.437 14.188 124.421 15.308C124.629 14.956 124.933 14.684 125.333 14.492C125.733 14.3 126.165 14.204 126.629 14.204C127.157 14.204 127.621 14.32 128.021 14.552C128.429 14.776 128.745 15.104 128.969 15.536C129.201 15.968 129.317 16.484 129.317 17.084C129.317 17.644 129.205 18.144 128.981 18.584C128.765 19.024 128.441 19.372 128.009 19.628C127.577 19.876 127.057 20 126.449 20C125.625 20 124.977 19.82 124.505 19.46C124.041 19.092 123.713 18.576 123.521 17.912C123.337 17.248 123.245 16.42 123.245 15.428C123.245 12.5 124.277 11.036 126.341 11.036C127.141 11.036 127.769 11.252 128.225 11.684C128.689 12.116 128.961 12.648 129.041 13.28H127.781ZM126.329 15.356C125.841 15.356 125.425 15.504 125.081 15.8C124.745 16.088 124.577 16.508 124.577 17.06C124.577 17.612 124.733 18.052 125.045 18.38C125.365 18.7 125.809 18.86 126.377 18.86C126.881 18.86 127.277 18.704 127.565 18.392C127.861 18.08 128.009 17.664 128.009 17.144C128.009 16.6 127.865 16.168 127.577 15.848C127.297 15.52 126.881 15.356 126.329 15.356ZM130.933 18.14C131.701 17.476 132.305 16.932 132.745 16.508C133.193 16.076 133.565 15.628 133.861 15.164C134.157 14.7 134.305 14.236 134.305 13.772C134.305 13.292 134.189 12.916 133.957 12.644C133.733 12.372 133.377 12.236 132.889 12.236C132.417 12.236 132.049 12.388 131.785 12.692C131.529 12.988 131.393 13.388 131.377 13.892H130.057C130.081 12.98 130.353 12.284 130.873 11.804C131.401 11.316 132.069 11.072 132.877 11.072C133.749 11.072 134.429 11.312 134.917 11.792C135.413 12.272 135.661 12.912 135.661 13.712C135.661 14.288 135.513 14.844 135.217 15.38C134.929 15.908 134.581 16.384 134.173 16.808C133.773 17.224 133.261 17.708 132.637 18.26L132.097 18.74H135.901V19.88H130.069V18.884L130.933 18.14Z" fill="#273720"/>
    <g clip-path="url(#clip0_1136_25922)">
    <path d="M129.601 83.8973C130.247 83.8973 130.772 83.3725 130.772 82.726C130.772 82.0795 130.247 81.5547 129.601 81.5547C128.954 81.5547 128.43 82.0795 128.43 82.726C128.43 83.3725 128.954 83.8973 129.601 83.8973Z" fill="#e7ff4c63"/>
    <path d="M147.172 76.8711H140.144C139.497 76.8711 138.973 77.3954 138.973 78.0424V85.0702C138.973 85.7172 139.497 86.2415 140.144 86.2415H147.172C147.819 86.2415 148.343 85.7172 148.343 85.0702V78.0424C148.343 77.3954 147.819 76.8711 147.172 76.8711ZM146 83.8989H141.315V79.2137H146V83.8989Z" fill="#e7ff4c63" stroke="#e6ff4c"/>
    <path d="M119.06 48.7598H112.033C111.386 48.7598 110.861 49.2841 110.861 49.9311V56.9589C110.861 57.6059 111.386 58.1302 112.033 58.1302H119.06C119.707 58.1302 120.232 57.6059 120.232 56.9589V49.9311C120.232 49.2841 119.707 48.7598 119.06 48.7598ZM117.889 55.7876H113.204V51.1024H117.889V55.7876Z" fill="#e7ff4c63" stroke="#e6ff4c"/>
    <path d="M133.115 48.7598H126.087C125.44 48.7598 124.916 49.2841 124.916 49.9311V56.9589C124.916 57.6059 125.44 58.1302 126.087 58.1302H133.115C133.762 58.1302 134.286 57.6059 134.286 56.9589V49.9311C134.286 49.2841 133.762 48.7598 133.115 48.7598ZM131.944 55.7876H127.259V51.1024H131.944V55.7876Z" fill="#e7ff4c63" stroke="#e6ff4c"/>
    <path d="M138.973 49.9311V56.9589C138.973 57.6059 139.497 58.1302 140.144 58.1302H147.172C147.819 58.1302 148.343 57.6059 148.343 56.9589V49.9311C148.343 49.2841 147.819 48.7598 147.172 48.7598H140.144C139.497 48.7598 138.973 49.2841 138.973 49.9311ZM141.315 51.1024H146V55.7876H141.315V51.1024Z" fill="#e7ff4c63" stroke="#e6ff4c"/>
    <path d="M119.06 62.8125H112.033C111.386 62.8125 110.861 63.3368 110.861 63.9838V71.0116C110.861 71.6586 111.386 72.1829 112.033 72.1829H119.06C119.707 72.1829 120.232 71.6586 120.232 71.0116V63.9838C120.232 63.3368 119.707 62.8125 119.06 62.8125ZM117.889 69.8403H113.204V65.1551H117.889V69.8403Z" fill="#e7ff4c63" stroke="#e6ff4c"/>
    <path d="M133.115 62.8125H126.087C125.44 62.8125 124.916 63.3368 124.916 63.9838V71.0116C124.916 71.6586 125.44 72.1829 126.087 72.1829H133.115C133.762 72.1829 134.286 71.6586 134.286 71.0116V63.9838C134.286 63.3368 133.762 62.8125 133.115 62.8125ZM131.944 69.8403H127.259V65.1551H131.944V69.8403Z" fill="#e7ff4c63" stroke="#e6ff4c"/>
    <path d="M147.172 62.8125H140.144C139.497 62.8125 138.973 63.3368 138.973 63.9838V71.0116C138.973 71.6586 139.497 72.1829 140.144 72.1829H147.172C147.819 72.1829 148.343 71.6586 148.343 71.0116V63.9838C148.343 63.3368 147.819 62.8125 147.172 62.8125ZM146 69.8403H141.315V65.1551H146V69.8403Z" fill="#e7ff4c63" stroke="#e6ff4c"/>
    <path d="M119.06 76.8711H112.033C111.386 76.8711 110.861 77.3954 110.861 78.0424V85.0702C110.861 85.7172 111.386 86.2415 112.033 86.2415H119.06C119.707 86.2415 120.232 85.7172 120.232 85.0702V78.0424C120.232 77.3954 119.707 76.8711 119.06 76.8711ZM117.889 83.8989H113.204V79.2137H117.889V83.8989Z" fill="#e7ff4c63" stroke="#e6ff4c"/>
    <path d="M144.828 34H114.375C113.728 34 113.203 34.5243 113.203 35.1713V41.7306H107.347C106.7 41.7306 106.175 42.2549 106.175 42.9019V91.6281H102.662C102.015 91.6281 101.49 92.1525 101.49 92.7994C101.49 93.4464 102.015 93.9707 102.662 93.9707H156.541C157.188 93.9707 157.713 93.4464 157.713 92.7994C157.713 92.1525 157.188 91.6281 156.541 91.6281H153.027V42.9019C153.027 42.2549 152.503 41.7306 151.856 41.7306H146V35.1713C146 34.5243 145.475 34 144.828 34ZM115.546 36.3426H143.657V41.7306H115.546V36.3426ZM134.287 91.6281H130.773V87.4114C130.773 86.7645 130.248 86.2401 129.601 86.2401C128.954 86.2401 128.43 86.7645 128.43 87.4114V91.6281H124.916V79.2123H134.287V91.6281ZM150.685 91.6281H136.629V78.041C136.629 77.394 136.105 76.8697 135.458 76.8697H123.745C123.098 76.8697 122.574 77.394 122.574 78.041V91.6281H108.518V44.0732H150.685V91.6281Z" fill="#e6ff4c" stroke="#404040"/>
    </g>
    <g clip-path="url(#clip1_1136_25922)">
    <path d="M93.3063 92.1274H90.4952V49.9605C90.4952 49.4433 90.0754 49.0234 89.5582 49.0234H57.6989C57.1817 49.0234 56.7619 49.4433 56.7619 49.9605V92.1274H53.9507C53.4335 92.1274 53.0137 92.5472 53.0137 93.0645C53.0137 93.5817 53.4335 94.0015 53.9507 94.0015H93.3063C93.8236 94.0015 94.2434 93.5817 94.2434 93.0644C94.2434 92.5472 93.8236 92.1274 93.3063 92.1274ZM77.3767 92.1274H69.8804V84.6311H77.3767V92.1274ZM88.6212 92.1274H79.2508V83.694C79.2508 83.1768 78.8309 82.757 78.3137 82.757H68.9434C68.4261 82.757 68.0063 83.1768 68.0063 83.694V92.1274H58.6359V50.8975H88.6211V92.1274H88.6212Z" fill="#e6ff4c" stroke="#404040" stroke-width="0.4"/>
    <path d="M61.4468 62.1408H67.0691C67.5863 62.1408 68.0061 61.721 68.0061 61.2038V55.5815C68.0061 55.0644 67.5863 54.6445 67.0691 54.6445H61.4468C60.9296 54.6445 60.5098 55.0644 60.5098 55.5816V61.2039C60.5099 61.7211 60.9296 62.1408 61.4468 62.1408ZM62.3839 56.5186H66.1321V60.2668H62.3839V56.5186Z" fill="#e6ff4c" stroke="#404040" stroke-width="0.4"/>
    <path d="M80.1871 62.1409H85.8093C86.3265 62.1409 86.7464 61.7211 86.7464 61.2039V55.5816C86.7464 55.0644 86.3265 54.6445 85.8093 54.6445H80.1871C79.6698 54.6446 79.25 55.0644 79.25 55.5817V61.2039C79.25 61.7212 79.6698 62.1409 80.1871 62.1409ZM81.124 56.5187H84.8722V60.2669H81.124V56.5187Z" fill="#e6ff4c" stroke="#404040" stroke-width="0.4"/>
    <path d="M70.816 62.1408H76.4382C76.9554 62.1408 77.3753 61.721 77.3753 61.2038V55.5815C77.3753 55.0644 76.9554 54.6445 76.4382 54.6445H70.816C70.2987 54.6445 69.8789 55.0644 69.8789 55.5816V61.2039C69.8789 61.7211 70.2987 62.1408 70.816 62.1408ZM71.753 56.5186H75.5012V60.2668H71.753V56.5186Z" fill="#e6ff4c" stroke="#404040" stroke-width="0.4"/>
    <path d="M61.4468 71.512H67.0691C67.5863 71.512 68.0061 71.0922 68.0061 70.575V64.9527C68.0061 64.4354 67.5863 64.0156 67.0691 64.0156H61.4468C60.9296 64.0156 60.5098 64.4354 60.5098 64.9527V70.575C60.5099 71.0922 60.9296 71.512 61.4468 71.512ZM62.3839 65.8898H66.1321V69.638H62.3839V65.8898Z" fill="#e6ff4c" stroke="#404040" stroke-width="0.4"/>
    <path d="M80.1871 71.512H85.8093C86.3265 71.512 86.7464 71.0922 86.7464 70.575V64.9527C86.7464 64.4354 86.3265 64.0156 85.8093 64.0156H80.1871C79.6698 64.0156 79.25 64.4354 79.25 64.9527V70.575C79.25 71.0922 79.6698 71.512 80.1871 71.512ZM81.124 65.8898H84.8722V69.638H81.124V65.8898Z" fill="#e6ff4c" stroke="#404040" stroke-width="0.4"/>
    <path d="M70.816 71.512H76.4382C76.9554 71.512 77.3753 71.0922 77.3753 70.575V64.9527C77.3753 64.4354 76.9554 64.0156 76.4382 64.0156H70.816C70.2987 64.0156 69.8789 64.4354 69.8789 64.9527V70.575C69.8789 71.0922 70.2987 71.512 70.816 71.512ZM71.753 65.8898H75.5012V69.638H71.753V65.8898Z" fill="#e6ff4c" stroke="#404040" stroke-width="0.4"/>
    <path d="M61.4468 80.8831H67.0691C67.5863 80.8831 68.0061 80.4633 68.0061 79.946V74.3238C68.0061 73.8065 67.5863 73.3867 67.0691 73.3867H61.4468C60.9296 73.3867 60.5098 73.8065 60.5098 74.3238V79.946C60.5099 80.4633 60.9296 80.8831 61.4468 80.8831ZM62.3839 75.2609H66.1321V79.0091H62.3839V75.2609Z" fill="#e6ff4c" stroke="#404040" stroke-width="0.4"/>
    <path d="M80.1871 80.8831H85.8093C86.3265 80.8831 86.7464 80.4633 86.7464 79.946V74.3238C86.7464 73.8065 86.3265 73.3867 85.8093 73.3867H80.1871C79.6698 73.3867 79.25 73.8065 79.25 74.3238V79.946C79.25 80.4633 79.6698 80.8831 80.1871 80.8831ZM81.124 75.2609H84.8722V79.0091H81.124V75.2609Z" fill="#e6ff4c" stroke="#404040" stroke-width="0.4"/>
    <path d="M70.816 80.8831H76.4382C76.9554 80.8831 77.3753 80.4633 77.3753 79.946V74.3238C77.3753 73.8065 76.9554 73.3867 76.4382 73.3867H70.816C70.2987 73.3867 69.8789 73.8065 69.8789 74.3238V79.946C69.8789 80.4633 70.2987 80.8831 70.816 80.8831ZM71.753 75.2609H75.5012V79.0091H71.753V75.2609Z" fill="#e6ff4c" stroke="#404040" stroke-width="0.4"/>
    </g>
    <g clip-path="url(#clip2_1136_25922)">
    <path d="M197.818 92.1274H195.007V49.9605C195.007 49.4433 194.587 49.0234 194.07 49.0234H169.414C168.897 49.0234 168.477 49.4433 168.477 49.9605V92.1274H165.666C165.148 92.1274 164.729 92.5472 164.729 93.0645C164.729 93.5817 165.148 94.0015 165.666 94.0015H197.818C198.335 94.0015 198.755 93.5817 198.755 93.0644C198.755 92.5472 198.335 92.1274 197.818 92.1274ZM185.578 92.1274H178.081V84.6311H185.578V92.1274ZM193.133 92.1274H187.452V83.694C187.452 83.1768 187.032 82.757 186.515 82.757H177.144C176.627 82.757 176.207 83.1768 176.207 83.694V92.1274H170.351V50.8975H193.132V92.1274H193.133Z" fill="#e6ff4c" stroke="#404040" stroke-width="0.4"/>
    <path d="M173.162 62.1408H178.784C179.301 62.1408 179.721 61.721 179.721 61.2038V55.5815C179.721 55.0644 179.301 54.6445 178.784 54.6445H173.162C172.644 54.6445 172.225 55.0644 172.225 55.5816V61.2039C172.225 61.7211 172.644 62.1408 173.162 62.1408ZM174.099 56.5186H177.847V60.2668H174.099V56.5186Z" fill="#e6ff4c" stroke="#404040" stroke-width="0.4"/>
    <path d="M183.937 62.1408H189.559C190.077 62.1408 190.496 61.721 190.496 61.2038V55.5815C190.496 55.0644 190.077 54.6445 189.559 54.6445H183.937C183.42 54.6445 183 55.0644 183 55.5816V61.2039C183 61.7211 183.42 62.1408 183.937 62.1408ZM184.874 56.5186H188.622V60.2668H184.874V56.5186Z" fill="#e6ff4c" stroke="#404040" stroke-width="0.4"/>
    <path d="M173.162 71.512H178.784C179.301 71.512 179.721 71.0922 179.721 70.575V64.9527C179.721 64.4354 179.301 64.0156 178.784 64.0156H173.162C172.644 64.0156 172.225 64.4354 172.225 64.9527V70.575C172.225 71.0922 172.644 71.512 173.162 71.512ZM174.099 65.8898H177.847V69.638H174.099V65.8898Z" fill="#e6ff4c" stroke="#404040" stroke-width="0.4"/>
    <path d="M183.937 71.512H189.559C190.077 71.512 190.496 71.0922 190.496 70.575V64.9527C190.496 64.4354 190.077 64.0156 189.559 64.0156H183.937C183.42 64.0156 183 64.4354 183 64.9527V70.575C183 71.0922 183.42 71.512 183.937 71.512ZM184.874 65.8898H188.622V69.638H184.874V65.8898Z" fill="#e6ff4c" stroke="#404040" stroke-width="0.4"/>
    <path d="M173.162 80.8831H178.784C179.301 80.8831 179.721 80.4633 179.721 79.946V74.3238C179.721 73.8065 179.301 73.3867 178.784 73.3867H173.162C172.644 73.3867 172.225 73.8065 172.225 74.3238V79.946C172.225 80.4633 172.644 80.8831 173.162 80.8831ZM174.099 75.2609H177.847V79.0091H174.099V75.2609Z" fill="#e6ff4c" stroke="#404040" stroke-width="0.4"/>
    <path d="M183.937 80.8831H189.559C190.077 80.8831 190.496 80.4633 190.496 79.946V74.3238C190.496 73.8065 190.077 73.3867 189.559 73.3867H183.937C183.42 73.3867 183 73.8065 183 74.3238V79.946C183 80.4633 183.42 80.8831 183.937 80.8831ZM184.874 75.2609H188.622V79.0091H184.874V75.2609Z" fill="#e6ff4c" stroke="#404040" stroke-width="0.4"/>
    </g>
    <path d="M192.437 29.0643C192.437 35.175 186.089 41.7883 181.397 46.4906C176.153 41.7883 170.357 35.175 170.357 29.0643C170.357 22.9537 175.3 18 181.397 18C187.495 18 192.437 22.9537 192.437 29.0643Z" fill="#e6ff4c"/>
    <path opacity="0.8" d="M176.897 26.5V25.252H179.393V34H178.013V26.5H176.897ZM181.429 32.14C182.197 31.476 182.801 30.932 183.241 30.508C183.689 30.076 184.061 29.628 184.357 29.164C184.653 28.7 184.801 28.236 184.801 27.772C184.801 27.292 184.685 26.916 184.453 26.644C184.229 26.372 183.873 26.236 183.385 26.236C182.913 26.236 182.545 26.388 182.281 26.692C182.025 26.988 181.889 27.388 181.873 27.892H180.553C180.577 26.98 180.849 26.284 181.369 25.804C181.897 25.316 182.565 25.072 183.373 25.072C184.245 25.072 184.925 25.312 185.413 25.792C185.909 26.272 186.157 26.912 186.157 27.712C186.157 28.288 186.009 28.844 185.713 29.38C185.425 29.908 185.077 30.384 184.669 30.808C184.269 31.224 183.757 31.708 183.133 32.26L182.593 32.74H186.397V33.88H180.565V32.884L181.429 32.14Z" fill="#4a633f"/>
    <defs>
    <clipPath id="clip0_1136_25922">
    <rect width="59.9704" height="59.9707" fill="white" transform="translate(99.6172 34)"/>
    </clipPath>
    <clipPath id="clip1_1136_25922">
    <rect width="44.9778" height="44.978" fill="white" transform="translate(51.1406 49.0195)"/>
    </clipPath>
    <clipPath id="clip2_1136_25922">
    <rect width="44.9778" height="44.978" fill="white" transform="translate(162.852 49.0195)"/>
    </clipPath>
    </defs>
    </svg>