<svg xmlns="http://www.w3.org/2000/svg" width="200" height="70" viewBox="0 0 200 70" fill="none">
    <path d="M111.667 61.0851H46.0332C42.2241 60.9874 36.1984 60.4885 41.3454 56.104C49.2565 49.3648 57.5581 42.9187 63.3206 38.8166C64.4927 38.2306 67.4814 37.0586 70.0599 37.0586C72.6383 37.0586 81.2918 37.0586 85.2962 37.0586M122.508 61.0851H155.91C159.622 61.2804 165.462 60.5577 159.134 56.104C152.805 51.6503 142.53 44.0907 137.451 40.2817C136.572 39.2073 133.818 37.0586 129.833 37.0586" stroke="#e6ff4c" stroke-width="1.17202" stroke-linecap="round" stroke-linejoin="round"/>
    <path opacity="0.4" d="M99.0272 25.7123H99.3203V25.4193V22.996V22.703H99.0272H96.7746H96.4816V22.996V25.4193V25.7123H96.7746H99.0272ZM99.0272 22.104H99.3203V21.811V19.6309V19.3379H99.0272H96.7746H96.4816V19.6309V21.811V22.104H96.7746H99.0272ZM99.0272 18.7389H99.3203V18.4459V16.023V15.73H99.0272H96.7746H96.4816V16.023V18.4459V18.7389H96.7746H99.0272ZM102.49 25.7123H102.783V25.4193V22.996V22.703H102.49H100.237H99.9439V22.996V25.4193V25.7123H100.237H102.49ZM102.49 22.104H102.783V21.811V19.6309V19.3379H102.49H100.237H99.9439V19.6309V21.811V22.104H100.237H102.49ZM102.49 18.7389H102.783V18.4459V16.023V15.73H102.49H100.237H99.9439V16.023V18.4459V18.7389H100.237H102.49ZM96.573 15.1309H102.691C103.091 15.1309 103.407 15.4482 103.407 15.8254V25.6168C103.407 25.9938 103.091 26.3113 102.691 26.3113H96.573C96.1732 26.3113 95.8579 25.9938 95.8579 25.6168V15.8254C95.8579 15.4482 96.1731 15.1309 96.573 15.1309Z" fill="#e6ff4c" stroke="#e6ff4c" stroke-width="0.586012"/>
    <path opacity="0.4" d="M110.493 39.0847C110.493 38.925 110.627 38.7852 110.805 38.7852C110.983 38.7852 111.116 38.925 111.116 39.0847V40.5074C111.116 40.6672 110.983 40.807 110.805 40.807C110.627 40.807 110.493 40.6672 110.493 40.5074V39.0847Z" fill="#e6ff4c" stroke="#e6ff4c" stroke-width="0.586012"/>
    <path opacity="0.4" d="M126.809 32.5104C126.781 32.3024 126.672 32.1169 126.503 31.9885L113.689 22.2756C113.405 22.0605 113.065 21.9466 112.707 21.9466C112.348 21.9466 112.009 22.0605 111.724 22.2759L109.786 23.7449V22.0432C109.786 21.7158 109.516 21.4507 109.181 21.4507C108.847 21.4507 108.576 21.7158 108.576 22.0432V24.6618L98.9112 31.9882C98.743 32.1154 98.6312 32.307 98.6047 32.5128C98.5773 32.7212 98.6343 32.9279 98.7651 33.0949L99.7457 34.3445C99.8997 34.5398 100.132 34.6518 100.384 34.6518C100.561 34.6518 100.736 34.5935 100.876 34.487L112.707 25.5194L121.649 32.2977V44.6435H116.778V43.5325C116.778 43.205 116.507 42.9399 116.173 42.9399C115.839 42.9399 115.568 43.205 115.568 43.5325V44.6435H109.845V35.5659H115.568V40.7475C115.568 41.075 115.839 41.3401 116.173 41.3401C116.507 41.3401 116.778 41.075 116.778 40.7475V35.3684C116.778 34.824 116.325 34.3809 115.77 34.3809H109.643C109.087 34.3809 108.635 34.824 108.635 35.3684V44.6435H104.039V43.0273C104.039 42.4826 103.587 42.0397 103.031 42.0397H102.452C102.5 41.8039 102.526 41.5604 102.526 41.3111C102.526 39.2603 100.823 37.592 98.7298 37.592C97.5935 37.592 96.5304 38.1027 95.8194 38.931C95.5504 38.8477 95.2643 38.8024 94.9676 38.8024C94.7496 38.8024 94.5354 38.8261 94.3272 38.8736C93.6685 37.7682 92.4393 37.0572 91.1106 37.0572C90.9691 37.0572 90.8293 37.0658 90.6913 37.0815V17.2471L99.6339 10.4681L108.577 17.2471V19.2777C108.577 19.6052 108.847 19.8703 109.182 19.8703C109.516 19.8703 109.786 19.6052 109.786 19.2777V18.1639L111.465 19.436C111.605 19.5425 111.78 19.6008 111.957 19.6008C112.209 19.6008 112.442 19.4885 112.595 19.2928C112.598 19.2901 112.6 19.287 112.602 19.2842L113.541 18.0411L113.547 18.0337C113.609 17.9575 113.774 17.7553 113.736 17.4594C113.708 17.2504 113.599 17.065 113.43 16.9375L100.616 7.22457C100.332 7.00947 99.9927 6.89559 99.6339 6.89559C99.2751 6.89559 98.9355 7.00947 98.651 7.22488L95.133 9.8916V9.14476C95.6086 9.06575 95.9722 8.66023 95.9722 8.17232V6.98756C95.9722 6.44286 95.5198 6 94.9641 6H90.0628C89.5072 6 89.0548 6.44286 89.0548 6.98756V8.17201C89.0548 8.66023 89.4183 9.06544 89.894 9.14476V13.8628L85.8392 16.9366C85.6703 17.0637 85.5585 17.2557 85.532 17.4609C85.5043 17.6695 85.561 17.8763 85.692 18.0436L86.6727 19.2931C86.8264 19.4888 87.0589 19.6008 87.3109 19.6008C87.4879 19.6008 87.6624 19.5425 87.8036 19.436L89.4816 18.1639V37.43C88.5215 37.8929 87.7822 38.7508 87.5075 39.7973C86.5955 40.1417 85.9689 41.0096 85.9689 41.9946C85.9689 42.1033 85.9768 42.2101 85.9913 42.315C85.7995 42.4949 85.6798 42.7473 85.6798 43.0273V44.8413C85.6798 45.3857 86.1318 45.8288 86.6878 45.8288H124.612C124.946 45.8288 125.217 45.5634 125.217 45.2363C125.217 44.9089 124.946 44.6438 124.612 44.6438H122.859V33.2146L124.538 34.487C124.678 34.5932 124.853 34.6518 125.03 34.6518C125.282 34.6518 125.515 34.5395 125.668 34.3435C125.67 34.3408 125.673 34.338 125.675 34.3352L126.614 33.0918L126.621 33.0841C126.682 33.0082 126.847 32.806 126.809 32.5104ZM98.7298 38.7771C100.156 38.7771 101.317 39.914 101.317 41.3111C101.317 41.5644 101.278 41.8089 101.207 42.0397H97.7567C97.7829 41.8891 97.7974 41.7342 97.7974 41.5762C97.7974 40.7722 97.4461 40.0476 96.887 39.5403C97.3652 39.0647 98.0267 38.7771 98.7298 38.7771ZM90.2645 7.18507H94.7625V7.9745H90.2645V7.18507ZM93.9233 9.15957V10.8085L91.1036 12.9459V9.15957H93.9233ZM87.3843 18.2556L86.8963 17.6337L99.391 8.16214C99.4625 8.10813 99.5441 8.08066 99.6339 8.08066C99.7237 8.08066 99.8052 8.10813 99.8764 8.16183L112.354 17.6205L111.878 18.251L100.004 9.2503C99.786 9.08519 99.4817 9.08519 99.2637 9.2503L87.3843 18.2556ZM102.829 44.6438H86.8894V43.2248H92.4607C92.7946 43.2248 93.0655 42.9597 93.0655 42.6322C93.0655 42.3048 92.7946 42.0397 92.4607 42.0397H87.1802C87.1795 42.0246 87.1786 42.0098 87.1786 41.9946C87.1786 41.4357 87.584 40.9528 88.1432 40.8466C88.3961 40.7985 88.5902 40.5988 88.6267 40.3491C88.8031 39.1483 89.871 38.2425 91.1106 38.2425C92.14 38.2425 93.0813 38.8755 93.4527 39.8174C93.5132 39.9711 93.636 40.093 93.7923 40.1544C93.9485 40.2155 94.1234 40.2099 94.2755 40.1396C94.4929 40.039 94.726 39.9877 94.9676 39.9877C95.861 39.9877 96.5877 40.7003 96.5877 41.5765C96.5877 41.7379 96.5619 41.8931 96.5159 42.0397H95.3639C95.0297 42.0397 94.7591 42.3051 94.7591 42.6322C94.7591 42.9597 95.0297 43.2248 95.3639 43.2248H102.829V44.6438ZM124.951 33.302L113.077 24.3016C112.859 24.1362 112.555 24.1362 112.337 24.3016L100.457 33.3066L99.9691 32.6847L112.464 23.2134C112.536 23.1591 112.617 23.1317 112.707 23.1317C112.796 23.1317 112.878 23.1591 112.949 23.2131L125.427 32.6715L124.951 33.302Z" fill="#e6ff4c"/>
    <path d="M106.391 64.6007H45.6777C41.8686 64.503 35.843 64.0041 40.9899 59.6196C48.901 52.8805 57.2027 46.4343 62.9652 42.3323C63.8646 41.7462 66.6012 40.5742 70.3517 40.5742C74.1021 40.5742 79.7279 40.5742 82.0719 40.5742M117.233 64.6007H155.555C159.266 64.7961 165.107 64.0733 158.778 59.6196C152.449 55.1659 142.174 47.6064 137.096 43.7973C136.217 42.7229 133.462 40.5742 129.478 40.5742" stroke="#e6ff4c" stroke-width="1.17202" stroke-linecap="round" stroke-linejoin="round"/>
    </svg>