<svg xmlns="http://www.w3.org/2000/svg" width="199" height="70" viewBox="0 0 199 70" fill="none">
    <path d="M60.5791 55.7344H94.5438" stroke="#e6ff4c" stroke-width="1.08687" stroke-linecap="round" stroke-linejoin="round"/>
    <path d="M132.857 55.7344H144.269" stroke="#e6ff4c" stroke-width="1.08687" stroke-linecap="round"/>
    <path d="M74.165 48.128V37.8027" stroke="#e6ff4c" stroke-width="1.6303" stroke-linecap="round"/>
    <path d="M110.032 60.0822H49.1672C45.6348 59.9916 39.8744 58.9409 45.0914 55.463C50.3084 51.985 59.8548 43.2357 65.1986 39.4316M120.085 60.0822H151.061C154.503 60.2633 159.919 59.5931 154.05 55.463C148.181 51.3329 138.653 44.3226 133.943 40.7902M53.7928 53.8327L60.3077 48.9417" stroke="#e6ff4c" stroke-width="1.08687" stroke-linecap="round" stroke-linejoin="round"/>
    <path d="M60.3076 49.2143L77.4258 36.1719H87.2076" stroke="e6ff4c" stroke-width="1.08687" stroke-linecap="round"/>
    <mask id="path-6-inside-1_533_7515" fill="white">
    <path fill-rule="evenodd" clip-rule="evenodd" d="M72.3399 24.1829C74.6133 23.4123 76.8966 23.5849 78.5926 24.8783C79.1513 25.3043 79.6095 25.824 79.9679 26.415C80.7008 26.6569 81.4042 27.0216 82.0492 27.5135C85.271 29.9704 85.8173 34.6707 83.2693 38.0119C81.1759 40.7571 77.6449 41.7306 74.6648 40.6278C71.7908 42.3363 68.6008 42.5452 66.3999 40.8668C64.9255 39.7425 64.1505 37.9661 64.0661 35.9468C62.2389 33.3667 62.2528 29.7244 64.3369 26.9914C66.2911 24.4289 69.4979 23.4101 72.3399 24.1829Z"/>
    </mask>
    <path fill-rule="evenodd" clip-rule="evenodd" d="M72.3399 24.1829C74.6133 23.4123 76.8966 23.5849 78.5926 24.8783C79.1513 25.3043 79.6095 25.824 79.9679 26.415C80.7008 26.6569 81.4042 27.0216 82.0492 27.5135C85.271 29.9704 85.8173 34.6707 83.2693 38.0119C81.1759 40.7571 77.6449 41.7306 74.6648 40.6278C71.7908 42.3363 68.6008 42.5452 66.3999 40.8668C64.9255 39.7425 64.1505 37.9661 64.0661 35.9468C62.2389 33.3667 62.2528 29.7244 64.3369 26.9914C66.2911 24.4289 69.4979 23.4101 72.3399 24.1829Z" fill="#273720"/>
    <path d="M72.3399 24.1829L72.0547 25.2317L72.3747 25.3187L72.6888 25.2122L72.3399 24.1829ZM79.9679 26.415L79.0384 26.9785L79.2464 27.3215L79.6272 27.4471L79.9679 26.415ZM74.6648 40.6278L75.042 39.6085L74.5554 39.4284L74.1094 39.6935L74.6648 40.6278ZM64.0661 35.9468L65.1521 35.9014L65.1386 35.5806L64.9531 35.3186L64.0661 35.9468ZM79.2517 24.0141C77.1931 22.4442 74.5067 22.3008 71.991 23.1535L72.6888 25.2122C74.7199 24.5238 76.6002 24.7257 77.9336 25.7425L79.2517 24.0141ZM80.8973 25.8516C80.4715 25.1493 79.9231 24.5261 79.2517 24.0141L77.9336 25.7425C78.3795 26.0826 78.7476 26.4987 79.0384 26.9785L80.8973 25.8516ZM82.7083 26.6492C81.9656 26.0829 81.1543 25.662 80.3085 25.3829L79.6272 27.4471C80.2473 27.6518 80.8428 27.9603 81.3901 28.3777L82.7083 26.6492ZM84.1336 38.671C87.0227 34.8824 86.4367 29.4926 82.7083 26.6492L81.3901 28.3777C84.1053 30.4483 84.6119 34.4591 82.4051 37.3528L84.1336 38.671ZM74.2876 41.6471C77.7244 42.919 81.7561 41.7886 84.1336 38.671L82.4051 37.3528C80.5956 39.7256 77.5654 40.5423 75.042 39.6085L74.2876 41.6471ZM65.7408 41.731C68.419 43.7734 72.1205 43.4047 75.2202 41.5621L74.1094 39.6935C71.4611 41.2678 68.7827 41.317 67.0589 40.0026L65.7408 41.731ZM62.9802 35.9922C63.0749 38.2574 63.954 40.3684 65.7408 41.731L67.0589 40.0026C65.8971 39.1165 65.2262 37.6748 65.1521 35.9014L62.9802 35.9922ZM64.9531 35.3186C63.4057 33.1336 63.3999 30.0126 65.2012 27.6505L63.4727 26.3324C61.1057 29.4362 61.0721 33.5997 63.1792 36.5749L64.9531 35.3186ZM65.2012 27.6505C66.8895 25.4366 69.643 24.5759 72.0547 25.2317L72.6251 23.1341C69.3527 22.2443 65.6928 23.4211 63.4727 26.3324L65.2012 27.6505Z" fill="#4a633f" mask="url(#path-6-inside-1_533_7515)"/>
    <path opacity="0.4" d="M98.9099 27.0303H99.1816V26.7586V24.5426V24.2709H98.9099H96.7984H96.5267V24.5426V26.7586V27.0303H96.7984H98.9099ZM98.9099 23.7306H99.1816V23.4589V21.4652V21.1935H98.9099H96.7984H96.5267V21.4652V23.4589V23.7306H96.7984H98.9099ZM98.9099 20.6532H99.1816V20.3815V18.1658V17.8941H98.9099H96.7984H96.5267V18.1658V20.3815V20.6532H96.7984H98.9099ZM102.156 27.0303H102.427V26.7586V24.5426V24.2709H102.156H100.044H99.772V24.5426V26.7586V27.0303H100.044H102.156ZM102.156 23.7306H102.427V23.4589V21.4652V21.1935H102.156H100.044H99.772V21.4652V23.4589V23.7306H100.044H102.156ZM102.156 20.6532H102.427V20.3815V18.1658V17.8941H102.156H100.044H99.772V18.1658V20.3815V20.6532H100.044H102.156ZM96.6094 17.3537H102.345C102.727 17.3537 103.018 17.6485 103.018 17.9851V26.9392C103.018 27.2756 102.727 27.5706 102.345 27.5706H96.6094C96.2267 27.5706 95.9363 27.2756 95.9363 26.9392V17.9851C95.9363 17.6485 96.2266 17.3537 96.6094 17.3537Z" fill="#e6ff4c" stroke="#888888" stroke-width="0.543435"/>
    <path opacity="0.4" d="M109.653 39.2567C109.653 39.119 109.773 38.9866 109.948 38.9866C110.123 38.9866 110.243 39.119 110.243 39.2567V40.5578C110.243 40.6955 110.123 40.8279 109.948 40.8279C109.773 40.8279 109.653 40.6955 109.653 40.5578V39.2567Z" fill="#e6ff4c" stroke="#e6ff4c" stroke-width="0.543435"/>
    <path opacity="0.4" d="M124.95 33.2435C124.923 33.0533 124.822 32.8837 124.663 32.7663L112.652 23.8839C112.386 23.6872 112.068 23.583 111.732 23.583C111.395 23.583 111.077 23.6872 110.81 23.8842L108.994 25.2276V23.6714C108.994 23.3719 108.74 23.1295 108.427 23.1295C108.114 23.1295 107.86 23.3719 107.86 23.6714V26.066L98.8004 32.766C98.6428 32.8823 98.5379 33.0576 98.5131 33.2458C98.4874 33.4363 98.5409 33.6254 98.6634 33.7781L99.5826 34.9208C99.727 35.0994 99.9449 35.2019 100.181 35.2019C100.347 35.2019 100.511 35.1486 100.642 35.0512L111.732 26.8503L120.113 33.0491V44.3392H115.547V43.3232C115.547 43.0237 115.294 42.7813 114.98 42.7813C114.667 42.7813 114.414 43.0237 114.414 43.3232V44.3392H109.049V36.0378H114.414V40.7764C114.414 41.0758 114.667 41.3182 114.98 41.3182C115.294 41.3182 115.547 41.0758 115.547 40.7764V35.8572C115.547 35.3594 115.123 34.9541 114.603 34.9541H108.86C108.339 34.9541 107.915 35.3594 107.915 35.8572V44.3392H103.607V42.8612C103.607 42.363 103.183 41.958 102.662 41.958H102.119C102.164 41.7424 102.189 41.5197 102.189 41.2917C102.189 39.4163 100.592 37.8906 98.6304 37.8906C97.5653 37.8906 96.5688 38.3577 95.9023 39.1152C95.6502 39.039 95.3821 38.9975 95.1039 38.9975C94.8996 38.9975 94.6988 39.0193 94.5036 39.0627C93.8862 38.0518 92.7341 37.4015 91.4886 37.4015C91.356 37.4015 91.2249 37.4094 91.0956 37.4238V19.2853L99.4778 13.086L107.86 19.2853V21.1424C107.86 21.4418 108.114 21.6842 108.427 21.6842C108.74 21.6842 108.994 21.4418 108.994 21.1424V20.1238L110.567 21.2872C110.699 21.3845 110.863 21.4379 111.029 21.4379C111.265 21.4379 111.483 21.3351 111.627 21.1562C111.629 21.1537 111.631 21.1508 111.633 21.1483L112.514 20.0115L112.519 20.0047C112.578 19.935 112.732 19.7502 112.696 19.4795C112.67 19.2885 112.568 19.1188 112.409 19.0023L100.399 10.1199C100.132 9.92315 99.8141 9.81901 99.4778 9.81901C99.1415 9.81901 98.8232 9.92315 98.5565 10.1201L95.2589 12.5588V11.8759C95.7048 11.8036 96.0455 11.4328 96.0455 10.9866V9.90311C96.0455 9.40499 95.6215 9 95.1007 9H90.5065C89.9857 9 89.5616 9.40499 89.5616 9.90311V10.9863C89.5616 11.4328 89.9024 11.8033 90.3483 11.8759V16.1905L86.5475 19.0014C86.3892 19.1177 86.2844 19.2933 86.2596 19.4809C86.2336 19.6717 86.2868 19.8608 86.4096 20.0138L87.3288 21.1565C87.4729 21.3354 87.6908 21.4379 87.927 21.4379C88.093 21.4379 88.2565 21.3845 88.3888 21.2872L89.9617 20.1238V37.7425C89.0618 38.1658 88.3687 38.9504 88.1113 39.9074C87.2565 40.2224 86.6692 41.016 86.6692 41.9168C86.6692 42.0162 86.6765 42.1138 86.6901 42.2098C86.5103 42.3743 86.3981 42.6052 86.3981 42.8612V44.5201C86.3981 45.0179 86.8218 45.4232 87.343 45.4232H122.891C123.204 45.4232 123.457 45.1805 123.457 44.8813C123.457 44.5819 123.204 44.3394 122.891 44.3394H121.247V33.8876L122.821 35.0512C122.952 35.1483 123.116 35.2019 123.282 35.2019C123.519 35.2019 123.737 35.0992 123.881 34.92C123.883 34.9174 123.885 34.9149 123.887 34.9123L124.768 33.7753L124.773 33.7682C124.831 33.6988 124.985 33.5139 124.95 33.2435ZM98.6304 38.9744C99.9673 38.9744 101.055 40.0141 101.055 41.2917C101.055 41.5234 101.019 41.7469 100.952 41.958H97.7183C97.7428 41.8203 97.7563 41.6786 97.7563 41.5341C97.7563 40.799 97.4271 40.1363 96.903 39.6723C97.3512 39.2374 97.9713 38.9744 98.6304 38.9744ZM90.6955 10.0837H94.9117V10.8057H90.6955V10.0837ZM94.1251 11.8894V13.3973L91.4821 15.352V11.8894H94.1251ZM87.9958 20.2077L87.5384 19.639L99.2501 10.9773C99.3172 10.9279 99.3936 10.9027 99.4778 10.9027C99.5619 10.9027 99.6384 10.9279 99.7051 10.977L111.401 19.6268L110.954 20.2034L99.8247 11.9724C99.6204 11.8214 99.3352 11.8214 99.1308 11.9724L87.9958 20.2077ZM102.473 44.3394H87.5319V43.0418H92.7541C93.0671 43.0418 93.3211 42.7994 93.3211 42.4999C93.3211 42.2005 93.0671 41.958 92.7541 41.958H87.8045C87.8039 41.9442 87.803 41.9307 87.803 41.9168C87.803 41.4057 88.183 40.9641 88.7071 40.867C88.9442 40.8229 89.1261 40.6403 89.1604 40.412C89.3257 39.3139 90.3267 38.4856 91.4886 38.4856C92.4535 38.4856 93.3358 39.0644 93.6839 39.9258C93.7406 40.0663 93.8558 40.1778 94.0023 40.2339C94.1487 40.2898 94.3126 40.2847 94.4552 40.2204C94.6589 40.1284 94.8774 40.0815 95.1039 40.0815C95.9413 40.0815 96.6225 40.7332 96.6225 41.5344C96.6225 41.682 96.5983 41.824 96.5552 41.958H95.4754C95.1621 41.958 94.9084 42.2008 94.9084 42.4999C94.9084 42.7994 95.1621 43.0418 95.4754 43.0418H102.473V44.3394ZM123.208 33.9675L112.079 25.7367C111.874 25.5854 111.589 25.5854 111.385 25.7367L100.249 33.9717L99.792 33.403L111.504 24.7416C111.571 24.6919 111.647 24.6668 111.732 24.6668C111.815 24.6668 111.892 24.6919 111.959 24.7413L123.655 33.3909L123.208 33.9675Z" fill="#e6ff4c"/>
    </svg>