<svg xmlns="http://www.w3.org/2000/svg" width="200" height="70" viewBox="0 0 200 70" fill="none">
    <path d="M57.9531 57.4029H94.5789M125.931 38.0645H132.377L148.492 49.7847M135.893 46.8546L132.377 43.9246H128.275" stroke="#e6ff4c" stroke-width="1.17202" stroke-linecap="round" stroke-linejoin="round"/>
    <path d="M135.894 57.4023H148.2" stroke="#e6ff4c" stroke-width="1.17202" stroke-linecap="round"/>
    <path d="M132.084 43.6315V38.3574" stroke="#e6ff4c" stroke-width="1.17202" stroke-linecap="round"/>
    <path d="M119.779 57.4013V50.3691H148.2V57.4013" stroke="#e6ff4c" stroke-width="1.17202" stroke-linecap="round"/>
    <path d="M72.6035 49.1987V38.0645" stroke="#e6ff4c" stroke-width="1.75804" stroke-linecap="round"/>
    <path d="M49.1631 56.8178V45.6836" stroke="#e6ff4c" stroke-width="1.17202" stroke-linecap="round"/>
    <path d="M111.281 62.0907H45.6474C41.8383 61.9931 35.6266 60.8601 41.2523 57.1096C46.8781 53.3591 57.1724 43.9244 62.9349 39.8223M122.122 62.0907H155.525C159.236 62.2861 165.077 61.5633 158.748 57.1096C152.419 52.6559 142.144 45.0964 137.065 41.2873M57.6608 57.1096V50.0775H110.109V57.1096" stroke="#e6ff4c" stroke-width="1.17202" stroke-linecap="round" stroke-linejoin="round"/>
    <rect x="49.4482" y="36.3066" width="7.03215" height="7.03215" transform="rotate(45 49.4482 36.3066)" stroke="#e6ff4c" stroke-width="1.17202" stroke-linejoin="round"/>
    <path d="M57.6611 50.3709L76.1205 36.3066H86.6687" stroke="#e6ff4c" stroke-width="1.17202" stroke-linecap="round"/>
    <mask id="path-10-inside-1_533_7516" fill="white">
    <path fill-rule="evenodd" clip-rule="evenodd" d="M70.6387 23.375C73.0898 22.5446 75.5513 22.731 77.3798 24.1254C77.9826 24.5851 78.477 25.1458 78.8634 25.7836C79.6533 26.0444 80.4113 26.4375 81.1065 26.9676C84.5807 29.6171 85.1698 34.6856 82.4222 38.2886C80.1647 41.2489 76.357 42.2987 73.1434 41.1094C70.0444 42.9512 66.6049 43.1763 64.2318 41.3666C62.6418 40.1541 61.806 38.2383 61.7152 36.0605C59.7444 33.2782 59.7593 29.3503 62.0068 26.4031C64.1146 23.6392 67.5736 22.5406 70.6387 23.375Z"/>
    </mask>
    <path fill-rule="evenodd" clip-rule="evenodd" d="M70.6387 23.375C73.0898 22.5446 75.5513 22.731 77.3798 24.1254C77.9826 24.5851 78.477 25.1458 78.8634 25.7836C79.6533 26.0444 80.4113 26.4375 81.1065 26.9676C84.5807 29.6171 85.1698 34.6856 82.4222 38.2886C80.1647 41.2489 76.357 42.2987 73.1434 41.1094C70.0444 42.9512 66.6049 43.1763 64.2318 41.3666C62.6418 40.1541 61.806 38.2383 61.7152 36.0605C59.7444 33.2782 59.7593 29.3503 62.0068 26.4031C64.1146 23.6392 67.5736 22.5406 70.6387 23.375Z" fill="#273720"/>
    <path d="M70.6387 23.375L70.3309 24.5058L70.676 24.5998L71.0148 24.485L70.6387 23.375ZM78.8634 25.7836L77.8611 26.391L78.0852 26.7609L78.4959 26.8965L78.8634 25.7836ZM73.1434 41.1094L73.5502 40.0102L73.0255 39.816L72.5446 40.1019L73.1434 41.1094ZM61.7152 36.0605L62.8862 36.0117L62.8717 35.6657L62.6716 35.3831L61.7152 36.0605ZM78.0905 23.1935C75.8711 21.5009 72.975 21.346 70.2627 22.2649L71.0148 24.485C73.2046 23.7432 75.2316 23.9611 76.6691 25.0574L78.0905 23.1935ZM79.8658 25.1762C79.4066 24.4184 78.815 23.7459 78.0905 23.1935L76.6691 25.0574C77.1502 25.4242 77.5473 25.8732 77.8611 26.391L79.8658 25.1762ZM81.8172 26.0357C81.0167 25.4253 80.1424 24.9717 79.2309 24.6707L78.4959 26.8965C79.1642 27.1172 79.8058 27.4497 80.3958 27.8996L81.8172 26.0357ZM83.3542 38.9993C86.4697 34.9139 85.8378 29.1018 81.8172 26.0357L80.3958 27.8996C83.3236 30.1324 83.8699 34.4574 81.4903 37.5779L83.3542 38.9993ZM72.7366 42.2086C76.4427 43.5802 80.7904 42.3612 83.3542 38.9993L81.4903 37.5779C79.539 40.1366 76.2713 41.0173 73.5502 40.0102L72.7366 42.2086ZM63.5211 42.2985C66.4088 44.5007 70.3998 44.1034 73.7422 42.1169L72.5446 40.1019C69.689 41.799 66.8011 41.852 64.9425 40.4346L63.5211 42.2985ZM60.5442 36.1094C60.6461 38.5523 61.5941 40.829 63.5211 42.2985L64.9425 40.4346C63.6895 39.4791 62.966 37.9243 62.8862 36.0117L60.5442 36.1094ZM62.6716 35.3831C61.0026 33.0269 60.9962 29.6611 62.9388 27.1138L61.0749 25.6923C58.5223 29.0395 58.4862 33.5296 60.7588 36.738L62.6716 35.3831ZM62.9388 27.1138C64.7597 24.7259 67.7299 23.7979 70.3309 24.5058L70.9466 22.2441C67.4173 21.2834 63.4694 22.5524 61.0749 25.6923L62.9388 27.1138Z" fill="#4a633f" mask="url(#path-10-inside-1_533_7516)"/>
    <path opacity="0.4" d="M98.83 26.5056H99.123V26.2126V23.8157V23.5227H98.83H96.5703H96.2773V23.8157V26.2126V26.5056H96.5703H98.83ZM98.83 22.9365H99.123V22.6435V20.4871V20.1941H98.83H96.5703H96.2773V20.4871V22.6435V22.9365H96.5703H98.83ZM98.83 19.6079H99.123V19.3149V16.9183V16.6253H98.83H96.5703H96.2773V16.9183V19.3149V19.6079H96.5703H98.83ZM102.303 26.5056H102.596V26.2126V23.8157V23.5227H102.303H100.043H99.7504V23.8157V26.2126V26.5056H100.043H102.303ZM102.303 22.9365H102.596V22.6435V20.4871V20.1941H102.303H100.043H99.7504V20.4871V22.6435V22.9365H100.043H102.303ZM102.303 19.6079H102.596V19.3149V16.9183V16.6253H102.303H100.043H99.7504V16.9183V19.3149V19.6079H100.043H102.303ZM96.3681 16.0391H102.506C102.911 16.0391 103.224 16.3554 103.224 16.7229V26.408C103.224 26.7752 102.911 27.0918 102.506 27.0918H96.3681C95.9626 27.0918 95.6499 26.7752 95.6499 26.408V16.7229C95.6499 16.3554 95.9626 16.0391 96.3681 16.0391Z" fill="#e6ff4c" stroke="#e6ff4c" stroke-width="0.586012"/>
    <path opacity="0.4" d="M110.329 39.7326C110.329 39.5802 110.46 39.4395 110.643 39.4395C110.826 39.4395 110.957 39.5802 110.957 39.7326V41.1398C110.957 41.2922 110.826 41.4329 110.643 41.4329C110.46 41.4329 110.329 41.2922 110.329 41.1398V39.7326Z" fill="#e6ff4c" stroke="#e6ff4c" stroke-width="0.586012"/>
    <path opacity="0.4" d="M126.698 33.2285C126.67 33.0227 126.561 32.8393 126.391 32.7123L113.538 23.1048C113.253 22.892 112.912 22.7794 112.552 22.7794C112.192 22.7794 111.852 22.892 111.566 23.1051L109.622 24.5581V22.8749C109.622 22.551 109.351 22.2888 109.016 22.2888C108.68 22.2888 108.409 22.551 108.409 22.8749V25.465L98.7137 32.712C98.5449 32.8377 98.4327 33.0273 98.4062 33.2309C98.3787 33.437 98.4359 33.6415 98.567 33.8066L99.5507 35.0426C99.7052 35.2359 99.9384 35.3467 100.191 35.3467C100.369 35.3467 100.544 35.289 100.685 35.1837L112.552 26.3134L121.522 33.0181V45.2298H116.636V44.1309C116.636 43.807 116.364 43.5448 116.029 43.5448C115.694 43.5448 115.422 43.807 115.422 44.1309V45.2298H109.681V36.2509H115.422V41.3762C115.422 41.7001 115.694 41.9623 116.029 41.9623C116.364 41.9623 116.636 41.7001 116.636 41.3762V36.0555C116.636 35.517 116.182 35.0787 115.625 35.0787H109.479C108.922 35.0787 108.468 35.517 108.468 36.0555V45.2298H103.857V43.6312C103.857 43.0924 103.404 42.6544 102.846 42.6544H102.265C102.314 42.4211 102.34 42.1803 102.34 41.9336C102.34 39.9052 100.631 38.2549 98.5316 38.2549C97.3919 38.2549 96.3254 38.7601 95.6122 39.5794C95.3423 39.497 95.0554 39.4522 94.7577 39.4522C94.5391 39.4522 94.3242 39.4757 94.1153 39.5227C93.4546 38.4292 92.2216 37.7259 90.8887 37.7259C90.7468 37.7259 90.6065 37.7344 90.4681 37.75V18.1308L99.4385 11.4254L108.409 18.1308V20.1395C108.409 20.4633 108.681 20.7256 109.016 20.7256C109.351 20.7256 109.623 20.4633 109.623 20.1395V19.0378L111.306 20.296C111.447 20.4014 111.622 20.4591 111.8 20.4591C112.053 20.4591 112.287 20.3479 112.44 20.1544C112.443 20.1517 112.445 20.1486 112.447 20.1459L113.389 18.9163L113.395 18.9089C113.458 18.8335 113.623 18.6336 113.584 18.3408C113.556 18.1342 113.447 17.9507 113.277 17.8246L100.424 8.21714C100.139 8.00437 99.7985 7.89173 99.4385 7.89173C99.0786 7.89173 98.738 8.00437 98.4526 8.21744L94.9236 10.8552V10.1165C95.4008 10.0383 95.7654 9.63722 95.7654 9.1546V7.9827C95.7654 7.44391 95.3117 7.00586 94.7543 7.00586H89.8377C89.2803 7.00586 88.8265 7.44391 88.8265 7.9827V9.15429C88.8265 9.63722 89.1912 10.038 89.6683 10.1165V14.7833L85.6009 17.8237C85.4315 17.9495 85.3193 18.1394 85.2928 18.3424C85.265 18.5487 85.3219 18.7533 85.4533 18.9187L86.437 20.1547C86.5912 20.3482 86.8244 20.4591 87.0772 20.4591C87.2548 20.4591 87.4298 20.4014 87.5714 20.296L89.2547 19.0378V38.0947C88.2916 38.5525 87.5499 39.4012 87.2744 40.4363C86.3596 40.777 85.7311 41.6354 85.7311 42.6098C85.7311 42.7172 85.739 42.8229 85.7535 42.9266C85.5611 43.1046 85.441 43.3543 85.441 43.6312V45.4255C85.441 45.964 85.8944 46.4024 86.4522 46.4024H124.494C124.83 46.4024 125.101 46.1398 125.101 45.8163C125.101 45.4924 124.83 45.2302 124.494 45.2302H122.736V33.9251L124.42 35.1837C124.56 35.2887 124.736 35.3467 124.913 35.3467C125.166 35.3467 125.4 35.2356 125.554 35.0417C125.556 35.039 125.558 35.0362 125.56 35.0335L126.503 33.8036L126.509 33.796C126.571 33.7209 126.736 33.5209 126.698 33.2285ZM98.5316 39.4271C99.9625 39.4271 101.127 40.5517 101.127 41.9336C101.127 42.1842 101.087 42.426 101.016 42.6544H97.5555C97.5818 42.5054 97.5963 42.3521 97.5963 42.1958C97.5963 41.4006 97.244 40.6839 96.6831 40.182C97.1628 39.7116 97.8263 39.4271 98.5316 39.4271ZM90.04 8.17807H94.552V8.95893H90.04V8.17807ZM93.7102 10.1311V11.7621L90.8818 13.8764V10.1311H93.7102ZM87.1508 19.1284L86.6613 18.5133L99.1949 9.14452C99.2666 9.0911 99.3485 9.06394 99.4385 9.06394C99.5286 9.06394 99.6104 9.0911 99.6819 9.14422L112.198 18.5002L111.721 19.1238L99.8098 10.2209C99.5912 10.0576 99.2859 10.0576 99.0673 10.2209L87.1508 19.1284ZM102.644 45.2302H86.6544V43.8266H92.2431C92.578 43.8266 92.8498 43.5643 92.8498 43.2405C92.8498 42.9166 92.578 42.6544 92.2431 42.6544H86.9461C86.9454 42.6394 86.9445 42.6247 86.9445 42.6098C86.9445 42.057 87.3512 41.5792 87.9121 41.4742C88.1658 41.4266 88.3604 41.2291 88.3971 40.9821C88.5741 39.7944 89.6453 38.8984 90.8887 38.8984C91.9214 38.8984 92.8656 39.5245 93.2381 40.4562C93.2988 40.6082 93.422 40.7288 93.5788 40.7895C93.7355 40.8499 93.9109 40.8445 94.0635 40.7749C94.2815 40.6753 94.5154 40.6247 94.7577 40.6247C95.6539 40.6247 96.3829 41.3295 96.3829 42.1962C96.3829 42.3558 96.357 42.5094 96.3108 42.6544H95.1553C94.82 42.6544 94.5485 42.9169 94.5485 43.2405C94.5485 43.5643 94.82 43.8266 95.1553 43.8266H102.644V45.2302ZM124.834 34.0115L112.924 25.1088C112.705 24.9452 112.4 24.9452 112.181 25.1088L100.264 34.016L99.7748 33.4009L112.309 24.0325C112.38 23.9787 112.462 23.9516 112.552 23.9516C112.642 23.9516 112.724 23.9787 112.796 24.0322L125.312 33.3878L124.834 34.0115Z" fill="#e6ff4c"/>
    </svg>