<?xml version="1.0" encoding="UTF-8" standalone="no" ?>
<!DOCTYPE svg PUBLIC "-//W3C//DTD SVG 1.1//EN" "http://www.w3.org/Graphics/SVG/1.1/DTD/svg11.dtd">
<svg xmlns="http://www.w3.org/2000/svg" xmlns:xlink="http://www.w3.org/1999/xlink" version="1.1" width="1080" height="1080" viewBox="0 0 1080 1080" xml:space="preserve">
<desc>Created with Fabric.js 5.2.4</desc>
<defs>
</defs>
<rect x="0" y="0" width="100%" height="100%" fill="transparent"></rect>
<g transform="matrix(1 0 0 1 540 540)" id="fed86c00-3535-4ba2-b6f5-b6dbdace4287"  >
</g>
<g transform="matrix(1 0 0 1 540 540)" id="edf80474-1a6c-418a-8fa0-f50bcb0fda23"  >
<rect style="stroke: none; stroke-width: 1; stroke-dasharray: none; stroke-linecap: butt; stroke-dashoffset: 0; stroke-linejoin: miter; stroke-miterlimit: 4; fill: rgb(255,255,255); fill-rule: nonzero; opacity: 1; visibility: hidden;" vector-effect="non-scaling-stroke"  x="-540" y="-540" rx="0" ry="0" width="1080" height="1080" />
</g>
<g transform="matrix(12 0 0 12 540 540)"  >
<g style=""   >
		<g transform="matrix(1 0 0 1 -5.8 -7.75)"  >
<path style="stroke: none; stroke-width: 1; stroke-dasharray: none; stroke-linecap: butt; stroke-dashoffset: 0; stroke-linejoin: miter; stroke-miterlimit: 4; fill: rgb(255,255,255); fill-rule: nonzero; opacity: 1;" vector-effect="non-scaling-stroke"  transform=" translate(-39.2, -12.25)" d="M 34.6802 12.7169 L 34.8368 12.7169 L 34.8368 15.1552 C 34.8368 15.4134 35.0472 15.623 35.3066 15.623 L 43.0889 15.623 C 43.3482 15.623 43.5587 15.4134 43.5587 15.1552 L 43.5587 12.7169 L 43.7153 12.7169 C 43.9746 12.7169 44.185 12.5073 44.185 12.249 C 44.185 11.9908 43.9746 11.7812 43.7153 11.7812 L 43.5587 11.7812 L 43.5587 9.34283 C 43.5587 9.08459 43.3482 8.875 43.0889 8.875 L 35.3066 8.875 C 35.0472 8.875 34.8368 9.08459 34.8368 9.34283 L 34.8368 11.7812 L 34.6802 11.7812 C 34.4209 11.7812 34.2104 11.9908 34.2104 12.249 C 34.2104 12.5073 34.4209 12.7169 34.6802 12.7169 Z M 35.7763 12.7169 L 36.7822 12.7169 L 36.7822 14.6874 L 35.7763 14.6874 L 35.7763 12.7169 Z M 38.7277 12.7169 L 38.7277 14.6874 L 37.7218 14.6874 L 37.7218 12.7169 L 38.7277 12.7169 Z M 40.6731 12.7169 L 40.6731 14.6874 L 39.6672 14.6874 L 39.6672 12.7169 L 40.6731 12.7169 Z M 42.6185 14.6874 L 41.6126 14.6874 L 41.6126 12.7169 L 42.6185 12.7169 L 42.6185 14.6874 Z M 35.7763 9.81067 L 42.6192 9.81067 L 42.6192 11.7812 L 35.7763 11.7812 L 35.7763 9.81067 Z" stroke-linecap="round" />
</g>
		<g transform="matrix(1 0 0 1 -5.8 0)"  >
<path style="stroke: none; stroke-width: 1; stroke-dasharray: none; stroke-linecap: butt; stroke-dashoffset: 0; stroke-linejoin: miter; stroke-miterlimit: 4; fill: rgb(255,255,255); fill-rule: nonzero; opacity: 1;" vector-effect="non-scaling-stroke"  transform=" translate(-39.2, -20)" d="M 43.0889 23.375 C 43.3482 23.375 43.5587 23.1654 43.5587 22.9072 L 43.5587 20.4688 L 43.7153 20.4688 C 43.9746 20.4688 44.185 20.2592 44.185 20.001 C 44.185 19.7427 43.9746 19.5331 43.7153 19.5331 L 43.5587 19.5331 L 43.5587 17.0948 C 43.5587 16.8365 43.3482 16.627 43.0889 16.627 L 35.3066 16.627 C 35.0472 16.627 34.8368 16.8365 34.8368 17.0948 L 34.8368 19.5331 L 34.6802 19.5331 C 34.4209 19.5331 34.2104 19.7427 34.2104 20.001 C 34.2104 20.2592 34.4209 20.4688 34.6802 20.4688 L 34.8368 20.4688 L 34.8368 22.9072 C 34.8368 23.1654 35.0472 23.375 35.3066 23.375 L 43.0889 23.375 Z M 38.7277 20.4688 L 38.7277 22.4393 L 37.7218 22.4393 L 37.7218 20.4688 L 38.7277 20.4688 Z M 40.6731 20.4688 L 40.6731 22.4393 L 39.6672 22.4393 L 39.6672 20.4688 L 40.6731 20.4688 Z M 42.6185 22.4393 L 41.6126 22.4393 L 41.6126 20.4688 L 42.6185 20.4688 L 42.6185 22.4393 Z M 35.7757 17.562 L 42.6185 17.562 L 42.6185 19.5325 L 35.7763 19.5325 L 35.7763 17.562 L 35.7757 17.562 Z M 36.7816 20.4682 L 36.7816 22.4387 L 35.7757 22.4387 L 35.7757 20.4682 L 36.7816 20.4682 Z" stroke-linecap="round" />
</g>
		<g transform="matrix(1 0 0 1 -6.78 11.14)"  >
<path style="stroke: none; stroke-width: 1; stroke-dasharray: none; stroke-linecap: butt; stroke-dashoffset: 0; stroke-linejoin: miter; stroke-miterlimit: 4; fill: rgb(255,255,255); fill-rule: nonzero; opacity: 1;" vector-effect="non-scaling-stroke"  transform=" translate(-38.22, -31.14)" d="M 38.2246 30.1895 C 37.9653 30.1895 37.7549 30.399 37.7549 30.6573 L 37.7549 31.626 C 37.7549 31.8843 37.9653 32.0938 38.2246 32.0938 C 38.484 32.0938 38.6944 31.8843 38.6944 31.626 L 38.6944 30.6573 C 38.6944 30.399 38.484 30.1895 38.2246 30.1895 Z" stroke-linecap="round" />
</g>
		<g transform="matrix(1 0 0 1 5.87 -7.75)"  >
<path style="stroke: none; stroke-width: 1; stroke-dasharray: none; stroke-linecap: butt; stroke-dashoffset: 0; stroke-linejoin: miter; stroke-miterlimit: 4; fill: rgb(255,255,255); fill-rule: nonzero; opacity: 1;" vector-effect="non-scaling-stroke"  transform=" translate(-50.87, -12.25)" d="M 55.3886 11.7812 L 55.232 11.7812 L 55.232 9.34283 C 55.232 9.08459 55.0216 8.875 54.7623 8.875 L 46.9799 8.875 C 46.7206 8.875 46.5101 9.08459 46.5101 9.34283 L 46.5101 11.7812 L 46.3535 11.7812 C 46.0942 11.7812 45.8838 11.9908 45.8838 12.249 C 45.8838 12.5073 46.0942 12.7169 46.3535 12.7169 L 46.5101 12.7169 L 46.5101 15.1552 C 46.5101 15.4134 46.7206 15.623 46.9799 15.623 L 54.7623 15.623 C 55.0216 15.623 55.232 15.4134 55.232 15.1552 L 55.232 12.7169 L 55.3886 12.7169 C 55.6479 12.7169 55.8584 12.5073 55.8584 12.249 C 55.8584 11.9908 55.6479 11.7812 55.3886 11.7812 Z M 47.4497 9.81067 L 54.2925 9.81067 L 54.2925 11.7812 L 47.4497 11.7812 L 47.4497 9.81067 Z M 50.401 12.7169 L 50.401 14.6874 L 49.3951 14.6874 L 49.3951 12.7169 L 50.401 12.7169 Z M 51.3405 12.7169 L 52.3464 12.7169 L 52.3464 14.6874 L 51.3405 14.6874 L 51.3405 12.7169 Z M 47.4497 12.7169 L 48.4556 12.7169 L 48.4556 14.6874 L 47.4497 14.6874 L 47.4497 12.7169 Z M 54.2925 14.6874 L 53.2866 14.6874 L 53.2866 12.7169 L 54.2925 12.7169 L 54.2925 14.6874 Z" stroke-linecap="round" />
</g>
		<g transform="matrix(1 0 0 1 5.87 0)"  >
<path style="stroke: none; stroke-width: 1; stroke-dasharray: none; stroke-linecap: butt; stroke-dashoffset: 0; stroke-linejoin: miter; stroke-miterlimit: 4; fill: rgb(255,255,255); fill-rule: nonzero; opacity: 1;" vector-effect="non-scaling-stroke"  transform=" translate(-50.87, -20)" d="M 46.9799 23.375 L 54.7623 23.375 C 55.0216 23.375 55.232 23.1654 55.232 22.9072 L 55.232 20.4688 L 55.3886 20.4688 C 55.6479 20.4688 55.8584 20.2592 55.8584 20.001 C 55.8584 19.7427 55.6479 19.5331 55.3886 19.5331 L 55.232 19.5331 L 55.232 17.0948 C 55.232 16.8365 55.0216 16.627 54.7623 16.627 L 46.9799 16.627 C 46.7206 16.627 46.5101 16.8365 46.5101 17.0948 L 46.5101 19.5331 L 46.3535 19.5331 C 46.0942 19.5331 45.8838 19.7427 45.8838 20.001 C 45.8838 20.2592 46.0942 20.4688 46.3535 20.4688 L 46.5101 20.4688 L 46.5101 22.9072 C 46.5101 23.1654 46.7206 23.375 46.9799 23.375 Z M 47.4497 20.4688 L 48.4556 20.4688 L 48.4556 22.4393 L 47.4497 22.4393 L 47.4497 20.4688 Z M 50.401 20.4688 L 50.401 22.4393 L 49.3951 22.4393 L 49.3951 20.4688 L 50.401 20.4688 Z M 52.3464 20.4688 L 52.3464 22.4393 L 51.3405 22.4393 L 51.3405 20.4688 L 52.3464 20.4688 Z M 54.2919 22.4393 L 53.286 22.4393 L 53.286 20.4688 L 54.2919 20.4688 L 54.2919 22.4393 Z M 47.449 17.562 L 54.2919 17.562 L 54.2919 19.5325 L 47.449 19.5325 L 47.449 17.562 Z" stroke-linecap="round" />
</g>
		<g transform="matrix(1 0 0 1 4.9 11.14)"  >
<path style="stroke: none; stroke-width: 1; stroke-dasharray: none; stroke-linecap: butt; stroke-dashoffset: 0; stroke-linejoin: miter; stroke-miterlimit: 4; fill: rgb(255,255,255); fill-rule: nonzero; opacity: 1;" vector-effect="non-scaling-stroke"  transform=" translate(-49.9, -31.14)" d="M 49.899 30.1895 C 49.6397 30.1895 49.4292 30.399 49.4292 30.6573 L 49.4292 31.626 C 49.4292 31.8843 49.6397 32.0938 49.899 32.0938 C 50.1583 32.0938 50.3687 31.8843 50.3687 31.626 L 50.3687 30.6573 C 50.3687 30.399 50.1583 30.1895 49.899 30.1895 Z" stroke-linecap="round" />
</g>
		<g transform="matrix(1 0 0 1 0.03 0)"  >
<path style="stroke: none; stroke-width: 1; stroke-dasharray: none; stroke-linecap: butt; stroke-dashoffset: 0; stroke-linejoin: miter; stroke-miterlimit: 4; fill: rgb(255,255,255); fill-rule: nonzero; opacity: 1;" vector-effect="non-scaling-stroke"  transform=" translate(-45.03, -20)" d="M 60.5992 34.0643 L 59.1235 34.0643 L 59.1235 31.0796 C 59.5895 30.9885 60.018 30.762 60.3612 30.4202 C 60.8172 29.9661 61.0683 29.3617 61.0683 28.7192 L 61.0683 24.8443 C 61.0683 23.5181 59.9848 22.439 58.6531 22.439 C 58.0976 22.439 57.5858 22.6274 57.1768 22.9424 L 57.1768 17.3221 C 57.1768 17.0639 56.9664 16.8543 56.7071 16.8543 C 56.4478 16.8543 56.2373 17.0639 56.2373 17.3221 L 56.2373 34.0643 L 54.2587 34.0643 L 54.2587 26.7817 C 54.2587 26.5235 54.0482 26.3139 53.7889 26.3139 L 47.952 26.3139 C 47.6927 26.3139 47.4822 26.5235 47.4822 26.7817 L 47.4822 34.0643 L 45.5036 34.0643 L 45.5036 7.87375 L 56.2373 7.87375 L 56.2373 15.283 C 56.2373 15.5412 56.4478 15.7508 56.7071 15.7508 C 56.9664 15.7508 57.1768 15.5412 57.1768 15.283 L 57.1768 7.40591 C 57.1768 7.14767 56.9664 6.93808 56.7071 6.93808 L 56.2041 6.93808 L 56.2041 5.46783 C 56.2041 5.20959 55.9937 5 55.7344 5 L 51.8942 5 C 51.6349 5 51.4245 5.20959 51.4245 5.46783 C 51.4245 5.72608 51.6349 5.93567 51.8942 5.93567 L 55.2646 5.93567 L 55.2646 6.93808 L 46.4763 6.93808 L 46.4763 5.93567 L 49.8467 5.93567 C 50.106 5.93567 50.3165 5.72608 50.3165 5.46783 C 50.3165 5.20959 50.106 5 49.8467 5 L 46.0066 5 C 45.7473 5 45.5368 5.20959 45.5368 5.46783 L 45.5368 6.93808 L 45.0376 6.93808 C 45.0376 6.93808 45.0351 6.93808 45.0339 6.93808 L 44.5309 6.93808 L 44.5309 5.46783 C 44.5309 5.20959 44.3204 5 44.0611 5 L 40.221 5 C 39.9617 5 39.7512 5.20959 39.7512 5.46783 C 39.7512 5.72608 39.9617 5.93567 40.221 5.93567 L 43.5914 5.93567 L 43.5914 6.93808 L 34.8037 6.93808 L 34.8037 5.93567 L 38.1741 5.93567 C 38.4334 5.93567 38.6439 5.72608 38.6439 5.46783 C 38.6439 5.20959 38.4334 5 38.1741 5 L 34.334 5 C 34.0747 5 33.8642 5.20959 33.8642 5.46783 L 33.8642 6.93808 L 33.3613 6.93808 C 33.1019 6.93808 32.8915 7.14767 32.8915 7.40591 L 32.8915 22.9424 C 32.4831 22.6274 31.9714 22.439 31.4158 22.439 C 30.0842 22.439 29.0006 23.5181 29.0006 24.8443 L 29.0006 28.7192 C 29.0006 29.885 29.8387 30.86 30.9461 31.0783 L 30.9461 34.0637 L 29.4698 34.0637 C 29.2105 34.0637 29 34.2733 29 34.5315 C 29 34.7898 29.2105 34.9994 29.4698 34.9994 L 31.4127 34.9994 C 31.4127 34.9994 31.4146 34.9994 31.4152 34.9994 C 31.4158 34.9994 31.4171 34.9994 31.4177 34.9994 L 45.032 34.9994 C 45.032 34.9994 45.0339 34.9994 45.0345 34.9994 L 56.7077 34.9994 C 56.7077 34.9994 56.7096 34.9994 56.7102 34.9994 L 58.6513 34.9994 C 58.6513 34.9994 58.6531 34.9994 58.6538 34.9994 C 58.6544 34.9994 58.6557 34.9994 58.6563 34.9994 L 60.5992 34.9994 C 60.8585 34.9994 61.069 34.7898 61.069 34.5315 C 61.069 34.2733 60.8585 34.0637 60.5992 34.0637 L 60.5992 34.0643 Z M 48.4224 27.2496 L 53.3198 27.2496 L 53.3198 34.0643 L 48.4224 34.0643 L 48.4224 27.2496 Z M 29.9395 28.7198 L 29.9395 24.8449 C 29.9395 24.0346 30.6016 23.3753 31.4152 23.3753 C 32.2288 23.3753 32.8909 24.0346 32.8909 24.8449 L 32.8909 28.7198 C 32.8909 29.1122 32.7374 29.4814 32.4587 29.759 C 32.18 30.0366 31.811 30.1888 31.4183 30.1894 C 31.4171 30.1894 31.4158 30.1894 31.4152 30.1894 C 31.4139 30.1894 31.4133 30.1894 31.4121 30.1894 C 30.5997 30.1875 29.9395 29.5288 29.9395 28.7198 Z M 31.885 31.0802 C 32.2514 31.0084 32.5946 30.8531 32.8915 30.6236 L 32.8915 34.065 L 31.885 34.065 L 31.885 31.0802 Z M 33.8304 7.87375 L 34.3302 7.87375 C 34.3302 7.87375 34.3327 7.87375 34.334 7.87375 L 44.0618 7.87375 C 44.0618 7.87375 44.0643 7.87375 44.0655 7.87375 L 44.5647 7.87375 L 44.5647 34.0643 L 42.5861 34.0643 L 42.5861 26.7817 C 42.5861 26.5235 42.3756 26.3139 42.1163 26.3139 L 36.2794 26.3139 C 36.0201 26.3139 35.8096 26.5235 35.8096 26.7817 L 35.8096 34.0643 L 33.831 34.0643 L 33.831 7.87375 L 33.8304 7.87375 Z M 36.7485 34.0643 L 36.7485 27.2496 L 41.6459 27.2496 L 41.6459 34.0643 L 36.7492 34.0643 L 36.7485 34.0643 Z M 57.1775 24.8443 C 57.1775 24.034 57.8395 23.3746 58.6531 23.3746 C 59.4668 23.3746 60.1288 24.034 60.1288 24.8443 L 60.1288 28.7192 C 60.1288 29.1115 59.9754 29.4808 59.6966 29.7584 C 59.4179 30.036 59.0496 30.1882 58.6563 30.1888 C 58.655 30.1888 58.6544 30.1888 58.6531 30.1888 C 58.6519 30.1888 58.6506 30.1888 58.65 30.1888 C 57.8376 30.1869 57.1775 29.5288 57.1775 28.7192 L 57.1775 24.8443 Z M 58.184 31.0789 L 58.184 34.0643 L 57.1775 34.0643 L 57.1775 30.6211 C 57.4681 30.845 57.8107 31.0047 58.184 31.0783 L 58.184 31.0789 Z" stroke-linecap="round" />
</g>
</g>
</g>
</svg>