<svg xmlns="http://www.w3.org/2000/svg" width="260" height="100" viewBox="0 0 260 100" fill="none">
    <path d="M60.1367 47.5781H67.9821" stroke="#EAEAEA" stroke-width="1.81046"/>
    <path d="M78.5888 73.6199L78.5888 77.634M78.5888 66.9359L78.5888 47.6243L78.5888 34.0007L61.0425 34.0007L61.0425 47.6243L32.3318 47.6243L32.3318 77.4969L18.7852 77.4969L18.7984 95.6016L42.0327 95.6016M71.5585 77.634L78.5888 77.634M78.5888 77.634L78.5888 95.6016L42.0327 95.6016M42.0327 95.6016L42.0327 77.634M63.1547 95.6016L63.1547 77.634M40.5239 77.4969L54.1024 77.4969M61.0425 77.4969L65.5687 77.4969" stroke="#EAEAEA" stroke-width="1.81046"/>
    <path d="M72.207 77.7528L68.2844 73.8301" stroke="#EAEAEA" stroke-width="1.81046" stroke-linecap="round"/>
    <path d="M78.241 66.5898L74.3184 70.5125" stroke="#EAEAEA" stroke-width="1.81046" stroke-linecap="round"/>
    <path d="M61.3438 77.7528L57.4211 73.8301" stroke="#EAEAEA" stroke-width="1.81046" stroke-linecap="round"/>
    <path d="M40.2207 77.7528L36.298 73.8301" stroke="#EAEAEA" stroke-width="1.81046" stroke-linecap="round"/>
    <path d="M106.562 96.257H102.548M113.246 96.257H132.557V50L102.685 50V65.0872L84.5801 65.1004V79.8727M102.548 89.2267V96.257M102.548 96.257H84.5801V79.8727M84.5801 79.8727H102.548" stroke="#e6ff4c" stroke-width="1.81046"/>
    <path d="M102.686 76.5847V82.8925M102.686 70.2769V65.6895" stroke="#888888" stroke-width="1.81046"/>
    <path d="M106.307 96.1668L110.229 92.2441" stroke="#e6ff4c" stroke-width="1.81046" stroke-linecap="round"/>
    <path d="M102.686 76.8543L106.608 72.9316" stroke="#e6ff4c" stroke-width="1.81046" stroke-linecap="round"/>
    <path d="M102.686 89.5301L106.608 85.6074" stroke="#e6ff4c" stroke-width="1.81046" stroke-linecap="round"/>
    <path d="M160.269 96.257H156.255M166.953 96.257H186.264V50L156.392 50V65.0872L138.287 65.1004V79.8727M156.255 89.2267V96.257M156.255 96.257H138.287V79.8727M138.287 79.8727H156.255" stroke="#EAEAEA" stroke-width="1.81046"/>
    <path d="M156.393 76.5847V82.8925M156.393 70.2769V65.6895" stroke="#EAEAEA" stroke-width="1.81046"/>
    <path d="M160.014 96.1668L163.936 92.2441" stroke="#EAEAEA" stroke-width="1.81046" stroke-linecap="round"/>
    <path d="M156.393 76.8543L160.315 72.9316" stroke="#EAEAEA" stroke-width="1.81046" stroke-linecap="round"/>
    <path d="M156.393 89.5301L160.315 85.6074" stroke="#EAEAEA" stroke-width="1.81046" stroke-linecap="round"/>
    <path d="M213.982 96.257H209.968M220.666 96.257H239.977V50L210.105 50V65.0872L192 65.1004V79.8727M209.968 89.2267V96.257M209.968 96.257H192V79.8727M192 79.8727H209.968" stroke="#e6ff4c" stroke-width="1.81046"/>
    <path d="M210.104 76.5847V82.8925M210.104 70.2769V65.6895" stroke="#888888" stroke-width="1.81046"/>
    <path d="M213.725 96.1668L217.647 92.2441" stroke="#e6ff4c" stroke-width="1.81046" stroke-linecap="round"/>
    <path d="M210.104 76.8543L214.026 72.9316" stroke="#e6ff4c" stroke-width="1.81046" stroke-linecap="round"/>
    <path d="M210.104 89.5301L214.026 85.6074" stroke="#e6ff4c" stroke-width="1.81046" stroke-linecap="round"/>
    <path d="M59.865 13.0643C59.865 19.175 53.517 25.7883 48.8251 30.4906C43.5811 25.7883 37.7852 19.175 37.7852 13.0643C37.7852 6.95366 42.7279 2 48.8251 2C54.9223 2 59.865 6.95366 59.865 13.0643Z" fill="#e6ff4c"/>
    <path d="M46.5785 9.97363V8.49212H49.5416V18.877H47.9034V9.97363H46.5785Z" fill="#273720"/>
    <path d="M174.57 13.0643C174.57 19.175 168.222 25.7883 163.53 30.4906C158.286 25.7883 152.49 19.175 152.49 13.0643C152.49 6.95366 157.433 2 163.53 2C169.627 2 174.57 6.95366 174.57 13.0643Z" fill="#e6ff4c"/>
    <path d="M161.284 9.97363V8.49212H164.247V18.877H162.608V9.97363H161.284Z" fill="#273720"/>
    </svg>