<svg xmlns="http://www.w3.org/2000/svg" width="260" height="101" viewBox="0 0 260 101" fill="none">
    <path d="M27.5781 100.082L231.743 100.082" stroke="#e6ff4c" stroke-width="1.56331" stroke-linecap="round"/>
    <mask id="mask0_1136_25926" style="mask-type:alpha" maskUnits="userSpaceOnUse" x="34" y="14" width="180" height="98">
    <rect x="35.6567" y="30.4985" width="51.0682" height="20.3231" rx="3.38718" stroke="#EAEAEA" stroke-width="1.56331"/>
    <rect x="97.6684" y="30.4985" width="41.1672" height="20.3231" rx="3.38718" stroke="#EAEAEA" stroke-width="1.56331"/>
    <rect x="149.778" y="30.4985" width="63.0536" height="20.3231" rx="3.38718" stroke="#EAEAEA" stroke-width="1.56331"/>
    <rect x="149.778" y="60.2016" width="63.0536" height="20.3231" rx="3.38718" stroke="#EAEAEA" stroke-width="1.56331"/>
    <rect x="149.778" y="89.9047" width="63.0536" height="20.3231" rx="3.38718" stroke="#EAEAEA" stroke-width="1.56331"/>
    <rect x="97.6684" y="60.2035" width="41.1672" height="20.3231" rx="3.38718" stroke="#EAEAEA" stroke-width="1.56331"/>
    <rect x="97.6684" y="88.8637" width="41.1672" height="20.3231" rx="3.38718" stroke="#EAEAEA" stroke-width="1.56331"/>
    <rect x="35.6567" y="60.2035" width="51.0682" height="20.3231" rx="3.38718" stroke="#EAEAEA" stroke-width="1.56331"/>
    <rect x="35.6567" y="88.8637" width="51.0682" height="20.3231" rx="3.38718" stroke="#EAEAEA" stroke-width="1.56331"/>
    <path d="M51.2178 38.0492V44.9277H49.2272L47.0907 41.207L46.5696 40.1857H46.5591L46.6008 41.4572V44.9277H45.0167V38.0492H47.0073L49.1438 41.7698L49.6649 42.7912H49.6753L49.6337 41.5197V38.0492H51.2178ZM52.3878 44.9277V39.7167H53.9511L54.024 40.8423C54.1561 40.4532 54.3506 40.1509 54.6077 39.9356C54.8717 39.7202 55.2052 39.6125 55.6082 39.6125C55.7402 39.6125 55.8514 39.6229 55.9417 39.6437C56.039 39.6646 56.1154 39.6924 56.171 39.7271L55.9938 41.1862C55.9243 41.1584 55.834 41.1376 55.7228 41.1237C55.6186 41.1028 55.4901 41.0924 55.3372 41.0924C55.1288 41.0924 54.9342 41.1376 54.7536 41.2279C54.5729 41.3182 54.427 41.4537 54.3159 41.6344C54.2116 41.8081 54.1595 42.0304 54.1595 42.3014V44.9277H52.3878ZM56.7595 43.1351C57.0861 43.1351 57.3397 43.2185 57.5203 43.3853C57.7079 43.552 57.8017 43.7848 57.8017 44.0835C57.8017 44.3754 57.7079 44.6046 57.5203 44.7714C57.3397 44.9382 57.0861 45.0215 56.7595 45.0215C56.4399 45.0215 56.1863 44.9382 55.9987 44.7714C55.8111 44.6046 55.7173 44.3754 55.7173 44.0835C55.7173 43.7848 55.8111 43.552 55.9987 43.3853C56.1863 43.2185 56.4399 43.1351 56.7595 43.1351ZM62.7455 44.9277V40.9673C62.7455 40.7867 62.7455 40.6026 62.7455 40.415C62.7525 40.2204 62.756 40.0224 62.756 39.8209C62.5267 40.0294 62.2731 40.2135 61.9952 40.3733C61.7172 40.5261 61.4254 40.6304 61.1197 40.6859L60.9529 39.206C61.1336 39.1921 61.3247 39.1469 61.5262 39.0705C61.7346 38.9941 61.9396 38.9003 62.1411 38.7891C62.3426 38.678 62.5232 38.5598 62.683 38.4348C62.8428 38.3028 62.9644 38.1742 63.0478 38.0492H64.4756V44.9277H62.7455ZM67.0255 44.9277V40.9673C67.0255 40.7867 67.0255 40.6026 67.0255 40.415C67.0325 40.2204 67.036 40.0224 67.036 39.8209C66.8067 40.0294 66.5531 40.2135 66.2751 40.3733C65.9972 40.5261 65.7054 40.6304 65.3997 40.6859L65.2329 39.206C65.4136 39.1921 65.6046 39.1469 65.8061 39.0705C66.0146 38.9941 66.2196 38.9003 66.421 38.7891C66.6225 38.678 66.8032 38.5598 66.963 38.4348C67.1228 38.3028 67.2444 38.1742 67.3278 38.0492H68.7556V44.9277H67.0255Z" fill="white"/>
    <path d="M41.837 15.1214V22H39.8463L37.7098 18.2793L37.1887 17.2579H37.1783L37.22 18.5294V22H35.6358V15.1214H37.6264L39.763 18.8421L40.2841 19.8635H40.2945L40.2528 18.592V15.1214H41.837ZM44.7581 22.1042C44.4037 22.1042 44.0911 22.0452 43.8201 21.927C43.5561 21.802 43.3476 21.604 43.1948 21.333C43.0419 21.062 42.9655 20.7077 42.9655 20.2699V16.789H44.7372V19.853C44.7372 20.1866 44.8032 20.4193 44.9353 20.5513C45.0673 20.6833 45.2549 20.7493 45.498 20.7493C45.6231 20.7493 45.7412 20.7285 45.8524 20.6868C45.9636 20.6382 46.0608 20.5687 46.1442 20.4784C46.2276 20.3811 46.2901 20.2595 46.3318 20.1136C46.3804 19.9607 46.4048 19.7836 46.4048 19.5821V16.789H48.1765V22H46.5924L46.5403 21.0203C46.3735 21.3886 46.1407 21.663 45.842 21.8437C45.5432 22.0174 45.1819 22.1042 44.7581 22.1042ZM49.241 22V16.789H50.8252L50.8773 17.7999C51.0441 17.4316 51.2768 17.1537 51.5756 16.9661C51.8813 16.7785 52.2322 16.6847 52.6282 16.6847C53.0173 16.6847 53.3543 16.7716 53.6392 16.9453C53.924 17.119 54.136 17.3761 54.2749 17.7165C54.3861 17.4872 54.5285 17.2962 54.7022 17.1433C54.8829 16.9904 55.0878 16.8758 55.3171 16.7994C55.5464 16.7229 55.7826 16.6847 56.0258 16.6847C56.3732 16.6847 56.6789 16.7542 56.943 16.8932C57.207 17.0252 57.4154 17.2302 57.5683 17.5081C57.7281 17.7791 57.808 18.1195 57.808 18.5294V22H56.0362V18.9359C56.0362 18.6024 55.9702 18.3696 55.8382 18.2376C55.7132 18.1056 55.5429 18.0396 55.3275 18.0396C55.1538 18.0396 54.994 18.0848 54.8481 18.1751C54.7092 18.2585 54.6015 18.387 54.525 18.5607C54.4486 18.7344 54.4104 18.9533 54.4104 19.2173V22H52.6386V18.9359C52.6386 18.6024 52.5726 18.3696 52.4406 18.2376C52.3086 18.1056 52.1384 18.0396 51.9299 18.0396C51.7701 18.0396 51.6173 18.0813 51.4714 18.1647C51.3324 18.248 51.2212 18.3801 51.1379 18.5607C51.0545 18.7344 51.0128 18.9637 51.0128 19.2486V22H49.241ZM62.1895 22.1042C61.8491 22.1042 61.5468 22.0278 61.2828 21.8749C61.0257 21.7221 60.8138 21.5136 60.647 21.2496C60.4803 20.9786 60.3726 20.6729 60.324 20.3325L60.4907 20.1136L60.3969 22H58.844V14.5795H60.6158V18.4252L60.449 18.1751C60.5463 17.7443 60.7443 17.39 61.0431 17.112C61.3419 16.8272 61.7448 16.6847 62.252 16.6847C62.655 16.6847 63.0129 16.7924 63.3255 17.0078C63.6451 17.2232 63.8918 17.5359 64.0655 17.9458C64.2461 18.3488 64.3365 18.8386 64.3365 19.4153C64.3365 19.9781 64.2461 20.461 64.0655 20.864C63.8848 21.267 63.6347 21.5762 63.3151 21.7916C62.9955 22 62.6203 22.1042 62.1895 22.1042ZM61.5746 20.8015C61.8803 20.8015 62.12 20.6903 62.2937 20.468C62.4674 20.2387 62.5543 19.8808 62.5543 19.3945C62.5543 18.9081 62.4674 18.5538 62.2937 18.3314C62.12 18.1021 61.8803 17.9875 61.5746 17.9875C61.3731 17.9875 61.1994 18.0466 61.0535 18.1647C60.9145 18.2758 60.8069 18.4356 60.7304 18.6441C60.654 18.8525 60.6158 19.1061 60.6158 19.4049C60.6158 19.7037 60.654 19.9573 60.7304 20.1657C60.8069 20.3742 60.918 20.534 61.0639 20.6451C61.2098 20.7493 61.3801 20.8015 61.5746 20.8015ZM67.7127 22.1042C67.136 22.1042 66.6358 21.9965 66.212 21.7811C65.7951 21.5657 65.472 21.2566 65.2427 20.8536C65.0134 20.4506 64.8988 19.9642 64.8988 19.3945C64.8988 18.8247 65.0134 18.3384 65.2427 17.9354C65.472 17.5324 65.7916 17.2232 66.2015 17.0078C66.6184 16.7924 67.0944 16.6847 67.6294 16.6847C68.1783 16.6847 68.6438 16.7924 69.0259 17.0078C69.415 17.2163 69.7103 17.5081 69.9118 17.8833C70.1133 18.2515 70.214 18.6754 70.214 19.1548C70.214 19.2798 70.2106 19.4049 70.2036 19.53C70.1967 19.655 70.1862 19.7592 70.1724 19.8426H66.0452V18.8942H69.3907L68.5465 19.2173C68.5465 18.8004 68.4701 18.4808 68.3172 18.2585C68.1713 18.0361 67.942 17.925 67.6294 17.925C67.407 17.925 67.216 17.9771 67.0561 18.0813C66.9033 18.1855 66.7852 18.3488 66.7018 18.5711C66.6254 18.7935 66.5872 19.0783 66.5872 19.4257C66.5872 19.7662 66.6323 20.0441 66.7226 20.2595C66.813 20.468 66.9415 20.6208 67.1083 20.7181C67.275 20.8084 67.4765 20.8536 67.7127 20.8536C67.9768 20.8536 68.1852 20.8015 68.3381 20.6972C68.4979 20.593 68.616 20.4471 68.6924 20.2595L70.1098 20.7285C70.0125 21.0273 69.8423 21.2809 69.5991 21.4893C69.3629 21.6908 69.078 21.8437 68.7445 21.9479C68.418 22.0521 68.074 22.1042 67.7127 22.1042ZM70.9968 22V16.789H72.5601L72.633 17.9145C72.765 17.5254 72.9596 17.2232 73.2167 17.0078C73.4807 16.7924 73.8142 16.6847 74.2172 16.6847C74.3492 16.6847 74.4604 16.6952 74.5507 16.716C74.648 16.7368 74.7244 16.7646 74.78 16.7994L74.6028 18.2585C74.5333 18.2307 74.443 18.2098 74.3318 18.1959C74.2276 18.1751 74.0991 18.1647 73.9462 18.1647C73.7378 18.1647 73.5432 18.2098 73.3626 18.3002C73.1819 18.3905 73.036 18.526 72.9248 18.7066C72.8206 18.8803 72.7685 19.1027 72.7685 19.3736V22H70.9968Z" fill="white"/>
    <path d="M100.336 15.0172C100.976 15.0172 101.538 15.1179 102.025 15.3194C102.518 15.514 102.945 15.8023 103.307 16.1845L102.442 17.3413C102.143 17.0287 101.82 16.7959 101.472 16.643C101.132 16.4832 100.743 16.4033 100.305 16.4033C100.048 16.4033 99.8396 16.4311 99.6798 16.4867C99.52 16.5423 99.4054 16.6187 99.3359 16.716C99.2664 16.8133 99.2317 16.9244 99.2317 17.0495C99.2317 17.1954 99.2977 17.3205 99.4297 17.4247C99.5687 17.522 99.791 17.6054 100.097 17.6748L101.254 17.9354C101.941 18.0952 102.445 18.3279 102.765 18.6337C103.084 18.9394 103.244 19.3458 103.244 19.853C103.244 20.3394 103.119 20.7528 102.869 21.0933C102.619 21.4268 102.275 21.6804 101.837 21.8541C101.399 22.0208 100.899 22.1042 100.336 22.1042C99.8779 22.1042 99.4401 22.0556 99.0232 21.9583C98.6064 21.8541 98.2312 21.7082 97.8977 21.5206C97.5642 21.333 97.2828 21.1176 97.0535 20.8744L97.9185 19.6759C98.0922 19.8774 98.3041 20.058 98.5543 20.2178C98.8113 20.3707 99.0893 20.4923 99.388 20.5826C99.6937 20.6729 100.003 20.7181 100.316 20.7181C100.559 20.7181 100.76 20.6938 100.92 20.6451C101.087 20.5965 101.208 20.5235 101.285 20.4263C101.361 20.329 101.399 20.2143 101.399 20.0823C101.399 19.9364 101.347 19.8148 101.243 19.7176C101.139 19.6133 100.941 19.5265 100.649 19.457L99.3776 19.1756C98.9885 19.0853 98.6411 18.9672 98.3354 18.8213C98.0366 18.6684 97.8004 18.4669 97.6267 18.2168C97.453 17.9597 97.3661 17.6401 97.3661 17.2579C97.3661 16.8272 97.4843 16.445 97.7205 16.1115C97.9567 15.7711 98.2972 15.5036 98.7419 15.309C99.1865 15.1145 99.7181 15.0172 100.336 15.0172ZM104.897 16.1845C104.536 16.1845 104.272 16.1185 104.105 15.9865C103.945 15.8475 103.865 15.6321 103.865 15.3403C103.865 15.0415 103.945 14.8261 104.105 14.6941C104.272 14.5552 104.536 14.4857 104.897 14.4857C105.251 14.4857 105.512 14.5552 105.679 14.6941C105.845 14.8261 105.929 15.0415 105.929 15.3403C105.929 15.6321 105.845 15.8475 105.679 15.9865C105.512 16.1185 105.251 16.1845 104.897 16.1845ZM105.783 16.789V22H104.011V16.789H105.783ZM106.565 22V20.9161L108.639 18.5607L109.191 18.0083L108.368 18.0292H106.585V16.789H111.15V17.8729L109.108 20.2074L108.534 20.7806L109.452 20.7598H111.244V22H106.565ZM114.513 22.1042C113.937 22.1042 113.437 21.9965 113.013 21.7811C112.596 21.5657 112.273 21.2566 112.043 20.8536C111.814 20.4506 111.7 19.9642 111.7 19.3945C111.7 18.8247 111.814 18.3384 112.043 17.9354C112.273 17.5324 112.592 17.2232 113.002 17.0078C113.419 16.7924 113.895 16.6847 114.43 16.6847C114.979 16.6847 115.445 16.7924 115.827 17.0078C116.216 17.2163 116.511 17.5081 116.713 17.8833C116.914 18.2515 117.015 18.6754 117.015 19.1548C117.015 19.2798 117.011 19.4049 117.004 19.53C116.997 19.655 116.987 19.7592 116.973 19.8426H112.846V18.8942H116.191L115.347 19.2173C115.347 18.8004 115.271 18.4808 115.118 18.2585C114.972 18.0361 114.743 17.925 114.43 17.925C114.208 17.925 114.017 17.9771 113.857 18.0813C113.704 18.1855 113.586 18.3488 113.503 18.5711C113.426 18.7935 113.388 19.0783 113.388 19.4257C113.388 19.7662 113.433 20.0441 113.523 20.2595C113.614 20.468 113.742 20.6208 113.909 20.7181C114.076 20.8084 114.277 20.8536 114.513 20.8536C114.778 20.8536 114.986 20.8015 115.139 20.6972C115.299 20.593 115.417 20.4471 115.493 20.2595L116.911 20.7285C116.813 21.0273 116.643 21.2809 116.4 21.4893C116.164 21.6908 115.879 21.8437 115.545 21.9479C115.219 22.0521 114.875 22.1042 114.513 22.1042Z" fill="white"/>
    <path d="M152.915 15.1214C153.478 15.1214 153.957 15.2117 154.353 15.3924C154.749 15.573 155.051 15.8336 155.26 16.174C155.468 16.5145 155.572 16.9279 155.572 17.4143C155.572 17.9006 155.468 18.3141 155.26 18.6545C155.051 18.995 154.749 19.2555 154.353 19.4362C153.957 19.6168 153.478 19.7071 152.915 19.7071H151.55V22H149.757V15.1214H152.915ZM152.633 18.3627C153.009 18.3627 153.29 18.2863 153.478 18.1334C153.672 17.9736 153.769 17.7339 153.769 17.4143C153.769 17.0947 153.672 16.8584 153.478 16.7056C153.29 16.5458 153.009 16.4659 152.633 16.4659H151.55V18.3627H152.633ZM156.385 22V16.789H157.948L158.021 17.9145C158.153 17.5254 158.348 17.2232 158.605 17.0078C158.869 16.7924 159.202 16.6847 159.605 16.6847C159.737 16.6847 159.849 16.6952 159.939 16.716C160.036 16.7368 160.113 16.7646 160.168 16.7994L159.991 18.2585C159.922 18.2307 159.831 18.2098 159.72 18.1959C159.616 18.1751 159.487 18.1647 159.334 18.1647C159.126 18.1647 158.931 18.2098 158.751 18.3002C158.57 18.3905 158.424 18.526 158.313 18.7066C158.209 18.8803 158.157 19.1027 158.157 19.3736V22H156.385ZM161.541 16.1845C161.179 16.1845 160.915 16.1185 160.749 15.9865C160.589 15.8475 160.509 15.6321 160.509 15.3403C160.509 15.0415 160.589 14.8261 160.749 14.6941C160.915 14.5552 161.179 14.4857 161.541 14.4857C161.895 14.4857 162.156 14.5552 162.322 14.6941C162.489 14.8261 162.572 15.0415 162.572 15.3403C162.572 15.6321 162.489 15.8475 162.322 15.9865C162.156 16.1185 161.895 16.1845 161.541 16.1845ZM162.427 16.789V22H160.655V16.789H162.427ZM165.949 16.6847C166.477 16.6847 166.915 16.7612 167.263 16.914C167.617 17.0599 167.891 17.2579 168.086 17.5081C168.287 17.7513 168.413 18.0153 168.461 18.3002L166.825 18.8421C166.776 18.5433 166.686 18.321 166.554 18.1751C166.429 18.0222 166.245 17.9458 166.002 17.9458C165.779 17.9458 165.592 17.9979 165.439 18.1021C165.293 18.1994 165.182 18.3592 165.105 18.5816C165.029 18.7969 164.991 19.0749 164.991 19.4153C164.991 19.7558 165.032 20.0337 165.116 20.2491C165.199 20.4575 165.317 20.6104 165.47 20.7077C165.623 20.798 165.804 20.8431 166.012 20.8431C166.186 20.8431 166.328 20.8119 166.439 20.7493C166.557 20.6799 166.655 20.5826 166.731 20.4575C166.808 20.3325 166.856 20.1796 166.877 19.999L168.472 20.5096C168.423 20.8154 168.291 21.0898 168.076 21.333C167.867 21.5692 167.589 21.7568 167.242 21.8958C166.894 22.0347 166.488 22.1042 166.022 22.1042C165.453 22.1042 164.956 22 164.532 21.7916C164.108 21.5762 163.782 21.267 163.552 20.864C163.323 20.4541 163.208 19.9642 163.208 19.3945C163.208 18.8247 163.323 18.3384 163.552 17.9354C163.782 17.5254 164.101 17.2163 164.511 17.0078C164.928 16.7924 165.407 16.6847 165.949 16.6847ZM171.727 22.1042C171.151 22.1042 170.65 21.9965 170.226 21.7811C169.81 21.5657 169.486 21.2566 169.257 20.8536C169.028 20.4506 168.913 19.9642 168.913 19.3945C168.913 18.8247 169.028 18.3384 169.257 17.9354C169.486 17.5324 169.806 17.2232 170.216 17.0078C170.633 16.7924 171.109 16.6847 171.644 16.6847C172.193 16.6847 172.658 16.7924 173.04 17.0078C173.43 17.2163 173.725 17.5081 173.926 17.8833C174.128 18.2515 174.229 18.6754 174.229 19.1548C174.229 19.2798 174.225 19.4049 174.218 19.53C174.211 19.655 174.201 19.7592 174.187 19.8426H170.06V18.8942H173.405L172.561 19.2173C172.561 18.8004 172.485 18.4808 172.332 18.2585C172.186 18.0361 171.957 17.925 171.644 17.925C171.422 17.925 171.23 17.9771 171.071 18.0813C170.918 18.1855 170.8 18.3488 170.716 18.5711C170.64 18.7935 170.602 19.0783 170.602 19.4257C170.602 19.7662 170.647 20.0441 170.737 20.2595C170.827 20.468 170.956 20.6208 171.123 20.7181C171.29 20.8084 171.491 20.8536 171.727 20.8536C171.991 20.8536 172.2 20.8015 172.353 20.6972C172.512 20.593 172.63 20.4471 172.707 20.2595L174.124 20.7285C174.027 21.0273 173.857 21.2809 173.614 21.4893C173.377 21.6908 173.093 21.8437 172.759 21.9479C172.432 22.0521 172.089 22.1042 171.727 22.1042Z" fill="white"/>
    <path d="M105.38 44.9277V43.4165H102.024V42.2909C102.087 42.1798 102.167 42.0443 102.264 41.8845C102.368 41.7247 102.49 41.5406 102.629 41.3321L104.87 38.0492H106.964V42.1867H108.017V43.4165H106.964V44.9277H105.38ZM103.463 42.1867H105.401V40.1023C105.401 39.9633 105.405 39.8209 105.412 39.675C105.418 39.5221 105.425 39.3693 105.432 39.2164H105.412C105.342 39.3623 105.259 39.5152 105.161 39.675C105.071 39.8279 104.984 39.9668 104.901 40.0919L103.681 41.8741C103.647 41.9296 103.612 41.9818 103.577 42.0304C103.542 42.079 103.504 42.1311 103.463 42.1867ZM108.609 44.9277V43.7813C109.199 43.4131 109.703 43.0691 110.12 42.7495C110.537 42.4299 110.874 42.1277 111.131 41.8428C111.395 41.5579 111.589 41.2869 111.714 41.0299C111.839 40.7728 111.902 40.5227 111.902 40.2795C111.902 40.0155 111.822 39.7966 111.662 39.6229C111.509 39.4422 111.28 39.3519 110.974 39.3519C110.648 39.3519 110.394 39.4735 110.214 39.7167C110.033 39.9529 109.936 40.3003 109.922 40.7589L108.39 40.2899C108.404 39.7757 108.525 39.345 108.755 38.9976C108.991 38.6502 109.31 38.3896 109.713 38.2159C110.116 38.0353 110.575 37.9449 111.089 37.9449C111.541 37.9449 111.93 38.0109 112.256 38.143C112.59 38.268 112.861 38.4382 113.069 38.6536C113.278 38.8621 113.431 39.0983 113.528 39.3623C113.632 39.6194 113.684 39.8834 113.684 40.1544C113.684 40.5991 113.57 41.016 113.34 41.4051C113.111 41.7872 112.777 42.1589 112.34 42.5202C111.909 42.8746 111.384 43.2324 110.766 43.5937V43.6041C110.884 43.5972 111.023 43.5902 111.183 43.5833C111.343 43.5763 111.509 43.5729 111.683 43.5729C111.857 43.5659 112.013 43.5624 112.152 43.5624H113.768V44.9277H108.609ZM117.393 44.9277V39.7167H118.977L119.029 40.7276C119.196 40.3594 119.429 40.0815 119.727 39.8939C120.033 39.7063 120.384 39.6125 120.78 39.6125C121.169 39.6125 121.506 39.6993 121.791 39.873C122.076 40.0467 122.288 40.3038 122.427 40.6443C122.538 40.415 122.68 40.2239 122.854 40.071C123.035 39.9182 123.24 39.8035 123.469 39.7271C123.698 39.6507 123.934 39.6125 124.178 39.6125C124.525 39.6125 124.831 39.6819 125.095 39.8209C125.359 39.9529 125.567 40.1579 125.72 40.4358C125.88 40.7068 125.96 41.0472 125.96 41.4572V44.9277H124.188V41.8636C124.188 41.5301 124.122 41.2974 123.99 41.1654C123.865 41.0333 123.695 40.9673 123.479 40.9673C123.306 40.9673 123.146 41.0125 123 41.1028C122.861 41.1862 122.753 41.3147 122.677 41.4884C122.6 41.6621 122.562 41.881 122.562 42.145V44.9277H120.79V41.8636C120.79 41.5301 120.724 41.2974 120.592 41.1654C120.46 41.0333 120.29 40.9673 120.082 40.9673C119.922 40.9673 119.769 41.009 119.623 41.0924C119.484 41.1758 119.373 41.3078 119.29 41.4884C119.206 41.6621 119.165 41.8914 119.165 42.1763V44.9277H117.393ZM126.985 44.9277V43.7813C127.576 43.4131 128.08 43.0691 128.497 42.7495C128.913 42.4299 129.25 42.1277 129.507 41.8428C129.771 41.5579 129.966 41.2869 130.091 41.0299C130.216 40.7728 130.279 40.5227 130.279 40.2795C130.279 40.0155 130.199 39.7966 130.039 39.6229C129.886 39.4422 129.657 39.3519 129.351 39.3519C129.025 39.3519 128.771 39.4735 128.59 39.7167C128.41 39.9529 128.312 40.3003 128.299 40.7589L126.766 40.2899C126.78 39.7757 126.902 39.345 127.131 38.9976C127.367 38.6502 127.687 38.3896 128.09 38.2159C128.493 38.0353 128.952 37.9449 129.466 37.9449C129.917 37.9449 130.306 38.0109 130.633 38.143C130.967 38.268 131.238 38.4382 131.446 38.6536C131.654 38.8621 131.807 39.0983 131.905 39.3623C132.009 39.6194 132.061 39.8834 132.061 40.1544C132.061 40.5991 131.946 41.016 131.717 41.4051C131.488 41.7872 131.154 42.1589 130.716 42.5202C130.286 42.8746 129.761 43.2324 129.143 43.5937V43.6041C129.261 43.5972 129.4 43.5902 129.56 43.5833C129.719 43.5763 129.886 43.5729 130.06 43.5729C130.234 43.5659 130.39 43.5624 130.529 43.5624H132.144V44.9277H126.985Z" fill="white"/>
    <path d="M158.805 44.9277V40.9673C158.805 40.7867 158.805 40.6026 158.805 40.415C158.812 40.2204 158.815 40.0224 158.815 39.8209C158.586 40.0294 158.333 40.2135 158.055 40.3733C157.777 40.5261 157.485 40.6304 157.179 40.6859L157.012 39.206C157.193 39.1921 157.384 39.1469 157.586 39.0705C157.794 38.9941 157.999 38.9003 158.201 38.7891C158.402 38.678 158.583 38.5598 158.743 38.4348C158.902 38.3028 159.024 38.1742 159.107 38.0492H160.535V44.9277H158.805ZM164.231 45.032C163.495 45.032 162.88 44.8895 162.387 44.6046C161.9 44.3128 161.563 43.889 161.376 43.3332L163.023 42.6245C163.057 42.8746 163.12 43.0761 163.21 43.2289C163.307 43.3748 163.436 43.4825 163.596 43.552C163.756 43.6146 163.943 43.6458 164.159 43.6458C164.353 43.6458 164.516 43.6146 164.648 43.552C164.787 43.4825 164.895 43.3853 164.971 43.2602C165.048 43.1351 165.086 42.9858 165.086 42.812C165.086 42.6314 165.048 42.4855 164.971 42.3743C164.902 42.2632 164.798 42.1832 164.659 42.1346C164.527 42.086 164.363 42.0617 164.169 42.0617C164.079 42.0617 163.995 42.0651 163.919 42.0721C163.842 42.0721 163.756 42.079 163.658 42.0929V40.9257C163.714 40.9326 163.769 40.9395 163.825 40.9465C163.881 40.9465 163.947 40.9465 164.023 40.9465C164.35 40.9465 164.582 40.8805 164.721 40.7485C164.867 40.6095 164.94 40.3941 164.94 40.1023C164.94 39.8522 164.867 39.6611 164.721 39.5291C164.582 39.3971 164.384 39.3311 164.127 39.3311C163.856 39.3311 163.634 39.404 163.46 39.5499C163.287 39.6889 163.175 39.9286 163.127 40.2691L161.553 39.7271C161.629 39.345 161.793 39.0219 162.043 38.7579C162.293 38.4938 162.606 38.2923 162.981 38.1534C163.363 38.0144 163.783 37.9449 164.242 37.9449C164.77 37.9449 165.215 38.0214 165.576 38.1742C165.937 38.3271 166.212 38.5459 166.399 38.8308C166.587 39.1157 166.681 39.4492 166.681 39.8313C166.681 40.1301 166.632 40.3802 166.535 40.5817C166.444 40.7832 166.326 40.9465 166.18 41.0716C166.041 41.1966 165.899 41.2904 165.753 41.353C165.607 41.4085 165.486 41.4433 165.388 41.4572V41.4884C165.513 41.4884 165.656 41.5128 165.816 41.5614C165.975 41.61 166.132 41.6899 166.285 41.8011C166.437 41.9053 166.563 42.0512 166.66 42.2388C166.764 42.4264 166.816 42.6592 166.816 42.9371C166.816 43.3679 166.702 43.7396 166.472 44.0523C166.25 44.3649 165.944 44.6081 165.555 44.7818C165.166 44.9486 164.725 45.032 164.231 45.032ZM170.42 45.032C169.482 45.032 168.77 44.7332 168.283 44.1357C167.804 43.5381 167.564 42.6557 167.564 41.4884C167.564 40.3212 167.804 39.4388 168.283 38.8412C168.77 38.2437 169.482 37.9449 170.42 37.9449C171.358 37.9449 172.067 38.2437 172.546 38.8412C173.032 39.4388 173.275 40.3212 173.275 41.4884C173.275 42.6557 173.032 43.5381 172.546 44.1357C172.067 44.7332 171.358 45.032 170.42 45.032ZM170.42 43.6354C170.677 43.6354 170.885 43.5659 171.045 43.427C171.205 43.281 171.32 43.0518 171.389 42.7391C171.466 42.4195 171.504 42.0026 171.504 41.4884C171.504 40.9743 171.466 40.5609 171.389 40.2482C171.32 39.9286 171.205 39.6993 171.045 39.5604C170.885 39.4144 170.677 39.3415 170.42 39.3415C170.17 39.3415 169.961 39.4144 169.795 39.5604C169.635 39.6993 169.517 39.9286 169.44 40.2482C169.371 40.5609 169.336 40.9743 169.336 41.4884C169.336 42.0026 169.371 42.4195 169.44 42.7391C169.517 43.0518 169.635 43.281 169.795 43.427C169.961 43.5659 170.17 43.6354 170.42 43.6354ZM174.972 43.1351C175.299 43.1351 175.552 43.2185 175.733 43.3853C175.921 43.552 176.014 43.7848 176.014 44.0835C176.014 44.3754 175.921 44.6046 175.733 44.7714C175.552 44.9382 175.299 45.0215 174.972 45.0215C174.652 45.0215 174.399 44.9382 174.211 44.7714C174.024 44.6046 173.93 44.3754 173.93 44.0835C173.93 43.7848 174.024 43.552 174.211 43.3853C174.399 43.2185 174.652 43.1351 174.972 43.1351ZM179.529 45.032C178.591 45.032 177.879 44.7332 177.393 44.1357C176.913 43.5381 176.674 42.6557 176.674 41.4884C176.674 40.3212 176.913 39.4388 177.393 38.8412C177.879 38.2437 178.591 37.9449 179.529 37.9449C180.467 37.9449 181.176 38.2437 181.656 38.8412C182.142 39.4388 182.385 40.3212 182.385 41.4884C182.385 42.6557 182.142 43.5381 181.656 44.1357C181.176 44.7332 180.467 45.032 179.529 45.032ZM179.529 43.6354C179.786 43.6354 179.995 43.5659 180.155 43.427C180.315 43.281 180.429 43.0518 180.499 42.7391C180.575 42.4195 180.613 42.0026 180.613 41.4884C180.613 40.9743 180.575 40.5609 180.499 40.2482C180.429 39.9286 180.315 39.6993 180.155 39.5604C179.995 39.4144 179.786 39.3415 179.529 39.3415C179.279 39.3415 179.071 39.4144 178.904 39.5604C178.744 39.6993 178.626 39.9286 178.55 40.2482C178.48 40.5609 178.446 40.9743 178.446 41.4884C178.446 42.0026 178.48 42.4195 178.55 42.7391C178.626 43.0518 178.744 43.281 178.904 43.427C179.071 43.5659 179.279 43.6354 179.529 43.6354ZM186.028 45.032C185.09 45.032 184.378 44.7332 183.892 44.1357C183.412 43.5381 183.172 42.6557 183.172 41.4884C183.172 40.3212 183.412 39.4388 183.892 38.8412C184.378 38.2437 185.09 37.9449 186.028 37.9449C186.966 37.9449 187.675 38.2437 188.154 38.8412C188.641 39.4388 188.884 40.3212 188.884 41.4884C188.884 42.6557 188.641 43.5381 188.154 44.1357C187.675 44.7332 186.966 45.032 186.028 45.032ZM186.028 43.6354C186.285 43.6354 186.494 43.5659 186.653 43.427C186.813 43.281 186.928 43.0518 186.997 42.7391C187.074 42.4195 187.112 42.0026 187.112 41.4884C187.112 40.9743 187.074 40.5609 186.997 40.2482C186.928 39.9286 186.813 39.6993 186.653 39.5604C186.494 39.4144 186.285 39.3415 186.028 39.3415C185.778 39.3415 185.57 39.4144 185.403 39.5604C185.243 39.6993 185.125 39.9286 185.048 40.2482C184.979 40.5609 184.944 40.9743 184.944 41.4884C184.944 42.0026 184.979 42.4195 185.048 42.7391C185.125 43.0518 185.243 43.281 185.403 43.427C185.57 43.5659 185.778 43.6354 186.028 43.6354ZM192.527 45.032C191.589 45.032 190.877 44.7332 190.39 44.1357C189.911 43.5381 189.671 42.6557 189.671 41.4884C189.671 40.3212 189.911 39.4388 190.39 38.8412C190.877 38.2437 191.589 37.9449 192.527 37.9449C193.465 37.9449 194.174 38.2437 194.653 38.8412C195.139 39.4388 195.383 40.3212 195.383 41.4884C195.383 42.6557 195.139 43.5381 194.653 44.1357C194.174 44.7332 193.465 45.032 192.527 45.032ZM192.527 43.6354C192.784 43.6354 192.992 43.5659 193.152 43.427C193.312 43.281 193.427 43.0518 193.496 42.7391C193.573 42.4195 193.611 42.0026 193.611 41.4884C193.611 40.9743 193.573 40.5609 193.496 40.2482C193.427 39.9286 193.312 39.6993 193.152 39.5604C192.992 39.4144 192.784 39.3415 192.527 39.3415C192.277 39.3415 192.068 39.4144 191.902 39.5604C191.742 39.6993 191.624 39.9286 191.547 40.2482C191.478 40.5609 191.443 40.9743 191.443 41.4884C191.443 42.0026 191.478 42.4195 191.547 42.7391C191.624 43.0518 191.742 43.281 191.902 43.427C192.068 43.5659 192.277 43.6354 192.527 43.6354ZM198.704 41.2383V40.5609H203.696L203.467 41.2383H198.704ZM198.704 42.5619V41.8741H203.279L203.06 42.5619H198.704ZM202.748 37.9449C203.199 37.9449 203.609 38.0109 203.978 38.143C204.346 38.268 204.658 38.4521 204.916 38.6953C205.173 38.9316 205.353 39.2234 205.457 39.5708L204.144 40.1648C204.082 39.8313 203.925 39.5881 203.675 39.4353C203.425 39.2755 203.133 39.1956 202.8 39.1956C202.425 39.1956 202.112 39.2824 201.862 39.4561C201.619 39.6298 201.435 39.8904 201.309 40.2378C201.191 40.5782 201.132 40.9951 201.132 41.4884C201.132 42.2249 201.261 42.7912 201.518 43.1872C201.782 43.5833 202.213 43.7813 202.81 43.7813C203.158 43.7813 203.446 43.6945 203.675 43.5208C203.905 43.3401 204.057 43.0691 204.134 42.7078L205.499 43.1143C205.395 43.5381 205.214 43.8925 204.957 44.1773C204.707 44.4622 204.391 44.6776 204.009 44.8235C203.634 44.9625 203.217 45.032 202.758 45.032C202.077 45.032 201.494 44.893 201.007 44.6151C200.521 44.3302 200.146 43.9237 199.882 43.3957C199.625 42.8676 199.496 42.2319 199.496 41.4884C199.496 40.745 199.628 40.1093 199.892 39.5812C200.163 39.0531 200.542 38.6502 201.028 38.3722C201.514 38.0874 202.088 37.9449 202.748 37.9449Z" fill="white"/>
    <path d="M158.805 74.6309V70.6705C158.805 70.4898 158.805 70.3057 158.805 70.1181C158.812 69.9235 158.815 69.7255 158.815 69.524C158.586 69.7325 158.333 69.9166 158.055 70.0764C157.777 70.2293 157.485 70.3335 157.179 70.3891L157.012 68.9091C157.193 68.8952 157.384 68.8501 157.586 68.7736C157.794 68.6972 157.999 68.6034 158.201 68.4922C158.402 68.3811 158.583 68.263 158.743 68.1379C158.902 68.0059 159.024 67.8773 159.107 67.7523H160.535V74.6309H158.805ZM164.357 67.6689C164.878 67.6689 165.329 67.7453 165.711 67.8982C166.094 68.051 166.389 68.2699 166.597 68.5548C166.813 68.8327 166.92 69.1662 166.92 69.5553C166.92 69.9235 166.83 70.2397 166.649 70.5037C166.469 70.7677 166.201 70.9692 165.847 71.1082V71.1186C166.264 71.2576 166.587 71.4625 166.816 71.7335C167.045 71.9975 167.16 72.338 167.16 72.7549C167.16 73.1579 167.045 73.5087 166.816 73.8075C166.594 74.0993 166.274 74.3286 165.857 74.4954C165.44 74.6552 164.94 74.7351 164.357 74.7351C163.78 74.7351 163.283 74.6552 162.866 74.4954C162.449 74.3286 162.126 74.0993 161.897 73.8075C161.675 73.5087 161.563 73.1579 161.563 72.7549C161.563 72.338 161.678 71.9975 161.907 71.7335C162.137 71.4625 162.46 71.2576 162.877 71.1186V71.1082C162.529 70.9762 162.262 70.7782 162.074 70.5141C161.887 70.2432 161.793 69.9235 161.793 69.5553C161.793 69.1662 161.897 68.8327 162.105 68.5548C162.321 68.2699 162.623 68.051 163.012 67.8982C163.401 67.7453 163.849 67.6689 164.357 67.6689ZM164.367 68.9717C164.089 68.9717 163.867 69.0411 163.7 69.1801C163.533 69.3191 163.45 69.5136 163.45 69.7637C163.45 70.0069 163.533 70.2015 163.7 70.3474C163.867 70.4863 164.089 70.5558 164.367 70.5558C164.645 70.5558 164.864 70.4863 165.024 70.3474C165.19 70.2015 165.274 70.0069 165.274 69.7637C165.274 69.5136 165.19 69.3191 165.024 69.1801C164.864 69.0411 164.645 68.9717 164.367 68.9717ZM164.367 73.4323C164.589 73.4323 164.777 73.4011 164.93 73.3385C165.09 73.269 165.211 73.1683 165.295 73.0363C165.378 72.9043 165.42 72.7514 165.42 72.5777C165.42 72.3971 165.378 72.2442 165.295 72.1191C165.211 71.9871 165.09 71.8898 164.93 71.8273C164.77 71.7578 164.582 71.7231 164.367 71.7231C164.152 71.7231 163.961 71.7578 163.794 71.8273C163.634 71.8898 163.512 71.9871 163.429 72.1191C163.346 72.2442 163.304 72.3971 163.304 72.5777C163.304 72.7514 163.346 72.9043 163.429 73.0363C163.512 73.1683 163.634 73.269 163.794 73.3385C163.954 73.4011 164.145 73.4323 164.367 73.4323ZM170.985 67.6481C171.353 67.6481 171.693 67.6967 172.006 67.794C172.325 67.8912 172.603 68.051 172.84 68.2734C173.076 68.4957 173.253 68.7945 173.371 69.1697L171.912 69.8575C171.843 69.6144 171.721 69.4233 171.547 69.2843C171.381 69.1384 171.155 69.0655 170.87 69.0655C170.675 69.0655 170.495 69.1141 170.328 69.2114C170.168 69.3017 170.029 69.4337 169.911 69.6074C169.793 69.7811 169.703 69.993 169.64 70.2432C169.584 70.4933 169.557 70.7747 169.557 71.0873C169.557 71.1082 169.557 71.1325 169.557 71.1603C169.557 71.1811 169.557 71.2124 169.557 71.2541L169.578 71.3166C169.661 71.1082 169.789 70.9345 169.963 70.7955C170.144 70.6496 170.349 70.5385 170.578 70.462C170.807 70.3856 171.037 70.3474 171.266 70.3474C171.69 70.3474 172.068 70.4308 172.402 70.5975C172.735 70.7643 172.996 71.004 173.184 71.3166C173.378 71.6223 173.475 71.9941 173.475 72.4318C173.475 72.9043 173.368 73.3142 173.152 73.6616C172.937 74.0021 172.638 74.2661 172.256 74.4537C171.874 74.6413 171.419 74.7351 170.891 74.7351C170.3 74.7351 169.779 74.6065 169.327 74.3495C168.883 74.0854 168.535 73.6963 168.285 73.1822C168.042 72.6611 167.92 72.0184 167.92 71.2541C167.92 70.4342 168.056 69.7603 168.327 69.2322C168.598 68.7042 168.963 68.3081 169.421 68.0441C169.887 67.7801 170.408 67.6481 170.985 67.6481ZM170.859 71.5563C170.679 71.5563 170.512 71.5946 170.359 71.671C170.213 71.7405 170.095 71.8447 170.005 71.9836C169.921 72.1226 169.88 72.2859 169.88 72.4735C169.88 72.6541 169.925 72.8139 170.015 72.9529C170.106 73.0919 170.224 73.1996 170.37 73.276C170.516 73.3524 170.679 73.3906 170.859 73.3906C171.172 73.3906 171.412 73.3107 171.579 73.1509C171.752 72.9911 171.839 72.7653 171.839 72.4735C171.839 72.2789 171.801 72.1157 171.724 71.9836C171.648 71.8447 171.537 71.7405 171.391 71.671C171.252 71.5946 171.075 71.5563 170.859 71.5563ZM175.145 72.8383C175.472 72.8383 175.725 72.9216 175.906 73.0884C176.094 73.2551 176.187 73.4879 176.187 73.7867C176.187 74.0785 176.094 74.3078 175.906 74.4745C175.725 74.6413 175.472 74.7247 175.145 74.7247C174.826 74.7247 174.572 74.6413 174.384 74.4745C174.197 74.3078 174.103 74.0785 174.103 73.7867C174.103 73.4879 174.197 73.2551 174.384 73.0884C174.572 72.9216 174.826 72.8383 175.145 72.8383ZM179.702 74.7351C178.764 74.7351 178.052 74.4363 177.566 73.8388C177.086 73.2412 176.847 72.3588 176.847 71.1916C176.847 70.0243 177.086 69.1419 177.566 68.5444C178.052 67.9468 178.764 67.6481 179.702 67.6481C180.64 67.6481 181.349 67.9468 181.829 68.5444C182.315 69.1419 182.558 70.0243 182.558 71.1916C182.558 72.3588 182.315 73.2412 181.829 73.8388C181.349 74.4363 180.64 74.7351 179.702 74.7351ZM179.702 73.3385C179.96 73.3385 180.168 73.269 180.328 73.1301C180.488 72.9842 180.602 72.7549 180.672 72.4422C180.748 72.1226 180.786 71.7057 180.786 71.1916C180.786 70.6774 180.748 70.264 180.672 69.9513C180.602 69.6317 180.488 69.4024 180.328 69.2635C180.168 69.1176 179.96 69.0446 179.702 69.0446C179.452 69.0446 179.244 69.1176 179.077 69.2635C178.917 69.4024 178.799 69.6317 178.723 69.9513C178.653 70.264 178.619 70.6774 178.619 71.1916C178.619 71.7057 178.653 72.1226 178.723 72.4422C178.799 72.7549 178.917 72.9842 179.077 73.1301C179.244 73.269 179.452 73.3385 179.702 73.3385ZM186.201 74.7351C185.263 74.7351 184.551 74.4363 184.065 73.8388C183.585 73.2412 183.346 72.3588 183.346 71.1916C183.346 70.0243 183.585 69.1419 184.065 68.5444C184.551 67.9468 185.263 67.6481 186.201 67.6481C187.139 67.6481 187.848 67.9468 188.327 68.5444C188.814 69.1419 189.057 70.0243 189.057 71.1916C189.057 72.3588 188.814 73.2412 188.327 73.8388C187.848 74.4363 187.139 74.7351 186.201 74.7351ZM186.201 73.3385C186.458 73.3385 186.667 73.269 186.827 73.1301C186.986 72.9842 187.101 72.7549 187.17 72.4422C187.247 72.1226 187.285 71.7057 187.285 71.1916C187.285 70.6774 187.247 70.264 187.17 69.9513C187.101 69.6317 186.986 69.4024 186.827 69.2635C186.667 69.1176 186.458 69.0446 186.201 69.0446C185.951 69.0446 185.743 69.1176 185.576 69.2635C185.416 69.4024 185.298 69.6317 185.221 69.9513C185.152 70.264 185.117 70.6774 185.117 71.1916C185.117 71.7057 185.152 72.1226 185.221 72.4422C185.298 72.7549 185.416 72.9842 185.576 73.1301C185.743 73.269 185.951 73.3385 186.201 73.3385ZM192.7 74.7351C191.762 74.7351 191.05 74.4363 190.563 73.8388C190.084 73.2412 189.844 72.3588 189.844 71.1916C189.844 70.0243 190.084 69.1419 190.563 68.5444C191.05 67.9468 191.762 67.6481 192.7 67.6481C193.638 67.6481 194.347 67.9468 194.826 68.5444C195.312 69.1419 195.556 70.0243 195.556 71.1916C195.556 72.3588 195.312 73.2412 194.826 73.8388C194.347 74.4363 193.638 74.7351 192.7 74.7351ZM192.7 73.3385C192.957 73.3385 193.165 73.269 193.325 73.1301C193.485 72.9842 193.6 72.7549 193.669 72.4422C193.746 72.1226 193.784 71.7057 193.784 71.1916C193.784 70.6774 193.746 70.264 193.669 69.9513C193.6 69.6317 193.485 69.4024 193.325 69.2635C193.165 69.1176 192.957 69.0446 192.7 69.0446C192.45 69.0446 192.241 69.1176 192.075 69.2635C191.915 69.4024 191.797 69.6317 191.72 69.9513C191.651 70.264 191.616 70.6774 191.616 71.1916C191.616 71.7057 191.651 72.1226 191.72 72.4422C191.797 72.7549 191.915 72.9842 192.075 73.1301C192.241 73.269 192.45 73.3385 192.7 73.3385ZM198.877 70.9414V70.264H203.869L203.64 70.9414H198.877ZM198.877 72.265V71.5772H203.452L203.233 72.265H198.877ZM202.921 67.6481C203.372 67.6481 203.782 67.7141 204.151 67.8461C204.519 67.9711 204.831 68.1553 205.089 68.3984C205.346 68.6347 205.526 68.9265 205.63 69.2739L204.317 69.868C204.255 69.5345 204.098 69.2913 203.848 69.1384C203.598 68.9786 203.306 68.8987 202.973 68.8987C202.598 68.8987 202.285 68.9856 202.035 69.1593C201.792 69.333 201.608 69.5935 201.482 69.9409C201.364 70.2814 201.305 70.6983 201.305 71.1916C201.305 71.9281 201.434 72.4943 201.691 72.8904C201.955 73.2864 202.386 73.4844 202.983 73.4844C203.331 73.4844 203.619 73.3976 203.848 73.2239C204.078 73.0432 204.23 72.7723 204.307 72.411L205.672 72.8174C205.568 73.2412 205.387 73.5956 205.13 73.8805C204.88 74.1653 204.564 74.3807 204.182 74.5266C203.807 74.6656 203.39 74.7351 202.931 74.7351C202.25 74.7351 201.667 74.5961 201.18 74.3182C200.694 74.0333 200.319 73.6269 200.055 73.0988C199.798 72.5708 199.669 71.935 199.669 71.1916C199.669 70.4481 199.801 69.8124 200.065 69.2843C200.336 68.7563 200.715 68.3533 201.201 68.0754C201.687 67.7905 202.261 67.6481 202.921 67.6481Z" fill="white"/>
    <path d="M158.805 103.291V99.3306C158.805 99.15 158.805 98.9658 158.805 98.7782C158.812 98.5837 158.815 98.3857 158.815 98.1842C158.586 98.3926 158.333 98.5768 158.055 98.7366C157.777 98.8894 157.485 98.9936 157.179 99.0492L157.012 97.5693C157.193 97.5554 157.384 97.5102 157.586 97.4338C157.794 97.3574 157.999 97.2636 158.201 97.1524C158.402 97.0412 158.583 96.9231 158.743 96.7981C158.902 96.666 159.024 96.5375 159.107 96.4124H160.535V103.291H158.805ZM164.075 103.395C163.478 103.395 162.957 103.281 162.512 103.051C162.074 102.815 161.706 102.433 161.407 101.905L162.981 101.123C163.057 101.401 163.179 101.623 163.346 101.79C163.519 101.957 163.776 102.04 164.117 102.04C164.332 102.04 164.516 102.002 164.669 101.926C164.822 101.849 164.94 101.738 165.024 101.592C165.114 101.439 165.159 101.255 165.159 101.04C165.159 100.831 165.117 100.658 165.034 100.519C164.958 100.38 164.843 100.276 164.69 100.206C164.537 100.13 164.346 100.091 164.117 100.091C163.95 100.091 163.801 100.109 163.669 100.144C163.537 100.171 163.415 100.216 163.304 100.279C163.2 100.335 163.102 100.408 163.012 100.498L161.657 100.248L162.095 96.4124H166.431V97.7986H163.398L163.221 99.1743L163.189 99.341H163.2C163.339 99.1812 163.533 99.0596 163.783 98.9763C164.033 98.8929 164.311 98.8512 164.617 98.8512C165.069 98.8512 165.454 98.9415 165.774 99.1222C166.094 99.3028 166.34 99.5495 166.514 99.8621C166.688 100.175 166.774 100.533 166.774 100.936C166.774 101.359 166.702 101.728 166.556 102.04C166.417 102.346 166.219 102.6 165.962 102.801C165.711 103.003 165.423 103.152 165.097 103.249C164.777 103.347 164.436 103.395 164.075 103.395ZM167.587 103.291V102.145C168.178 101.776 168.682 101.432 169.099 101.113C169.516 100.793 169.853 100.491 170.11 100.206C170.374 99.9212 170.568 99.6502 170.693 99.3932C170.818 99.1361 170.881 98.8859 170.881 98.6428C170.881 98.3787 170.801 98.1599 170.641 97.9862C170.488 97.8055 170.259 97.7152 169.953 97.7152C169.627 97.7152 169.373 97.8368 169.192 98.08C169.012 98.3162 168.915 98.6636 168.901 99.1222L167.369 98.6532C167.383 98.139 167.504 97.7082 167.733 97.3608C167.97 97.0134 168.289 96.7529 168.692 96.5792C169.095 96.3985 169.554 96.3082 170.068 96.3082C170.52 96.3082 170.909 96.3742 171.235 96.5062C171.569 96.6313 171.84 96.8015 172.048 97.0169C172.257 97.2254 172.409 97.4616 172.507 97.7256C172.611 97.9827 172.663 98.2467 172.663 98.5177C172.663 98.9624 172.548 99.3793 172.319 99.7683C172.09 100.15 171.756 100.522 171.319 100.884C170.888 101.238 170.363 101.596 169.745 101.957V101.967C169.863 101.96 170.002 101.954 170.162 101.947C170.322 101.94 170.488 101.936 170.662 101.936C170.836 101.929 170.992 101.926 171.131 101.926H172.746V103.291H167.587ZM174.473 101.498C174.8 101.498 175.054 101.582 175.234 101.749C175.422 101.915 175.516 102.148 175.516 102.447C175.516 102.739 175.422 102.968 175.234 103.135C175.054 103.301 174.8 103.385 174.473 103.385C174.154 103.385 173.9 103.301 173.713 103.135C173.525 102.968 173.431 102.739 173.431 102.447C173.431 102.148 173.525 101.915 173.713 101.749C173.9 101.582 174.154 101.498 174.473 101.498ZM179.031 103.395C178.093 103.395 177.381 103.096 176.894 102.499C176.415 101.901 176.175 101.019 176.175 99.8517C176.175 98.6845 176.415 97.802 176.894 97.2045C177.381 96.607 178.093 96.3082 179.031 96.3082C179.969 96.3082 180.677 96.607 181.157 97.2045C181.643 97.802 181.886 98.6845 181.886 99.8517C181.886 101.019 181.643 101.901 181.157 102.499C180.677 103.096 179.969 103.395 179.031 103.395ZM179.031 101.999C179.288 101.999 179.496 101.929 179.656 101.79C179.816 101.644 179.93 101.415 180 101.102C180.076 100.783 180.115 100.366 180.115 99.8517C180.115 99.3376 180.076 98.9242 180 98.6115C179.93 98.2919 179.816 98.0626 179.656 97.9236C179.496 97.7777 179.288 97.7048 179.031 97.7048C178.781 97.7048 178.572 97.7777 178.405 97.9236C178.246 98.0626 178.127 98.2919 178.051 98.6115C177.982 98.9242 177.947 99.3376 177.947 99.8517C177.947 100.366 177.982 100.783 178.051 101.102C178.127 101.415 178.246 101.644 178.405 101.79C178.572 101.929 178.781 101.999 179.031 101.999ZM185.529 103.395C184.591 103.395 183.879 103.096 183.393 102.499C182.913 101.901 182.674 101.019 182.674 99.8517C182.674 98.6845 182.913 97.802 183.393 97.2045C183.879 96.607 184.591 96.3082 185.529 96.3082C186.467 96.3082 187.176 96.607 187.656 97.2045C188.142 97.802 188.385 98.6845 188.385 99.8517C188.385 101.019 188.142 101.901 187.656 102.499C187.176 103.096 186.467 103.395 185.529 103.395ZM185.529 101.999C185.787 101.999 185.995 101.929 186.155 101.79C186.315 101.644 186.429 101.415 186.499 101.102C186.575 100.783 186.613 100.366 186.613 99.8517C186.613 99.3376 186.575 98.9242 186.499 98.6115C186.429 98.2919 186.315 98.0626 186.155 97.9236C185.995 97.7777 185.787 97.7048 185.529 97.7048C185.279 97.7048 185.071 97.7777 184.904 97.9236C184.744 98.0626 184.626 98.2919 184.55 98.6115C184.48 98.9242 184.446 99.3376 184.446 99.8517C184.446 100.366 184.48 100.783 184.55 101.102C184.626 101.415 184.744 101.644 184.904 101.79C185.071 101.929 185.279 101.999 185.529 101.999ZM192.028 103.395C191.09 103.395 190.378 103.096 189.892 102.499C189.412 101.901 189.173 101.019 189.173 99.8517C189.173 98.6845 189.412 97.802 189.892 97.2045C190.378 96.607 191.09 96.3082 192.028 96.3082C192.966 96.3082 193.675 96.607 194.154 97.2045C194.641 97.802 194.884 98.6845 194.884 99.8517C194.884 101.019 194.641 101.901 194.154 102.499C193.675 103.096 192.966 103.395 192.028 103.395ZM192.028 101.999C192.285 101.999 192.494 101.929 192.654 101.79C192.813 101.644 192.928 101.415 192.997 101.102C193.074 100.783 193.112 100.366 193.112 99.8517C193.112 99.3376 193.074 98.9242 192.997 98.6115C192.928 98.2919 192.813 98.0626 192.654 97.9236C192.494 97.7777 192.285 97.7048 192.028 97.7048C191.778 97.7048 191.57 97.7777 191.403 97.9236C191.243 98.0626 191.125 98.2919 191.049 98.6115C190.979 98.9242 190.944 99.3376 190.944 99.8517C190.944 100.366 190.979 100.783 191.049 101.102C191.125 101.415 191.243 101.644 191.403 101.79C191.57 101.929 191.778 101.999 192.028 101.999ZM198.205 99.6016V98.9242H203.197L202.968 99.6016H198.205ZM198.205 100.925V100.237H202.781L202.562 100.925H198.205ZM202.249 96.3082C202.701 96.3082 203.111 96.3742 203.479 96.5062C203.847 96.6313 204.16 96.8154 204.417 97.0586C204.674 97.2948 204.855 97.5867 204.959 97.9341L203.646 98.5281C203.583 98.1946 203.427 97.9514 203.177 97.7986C202.926 97.6388 202.635 97.5589 202.301 97.5589C201.926 97.5589 201.613 97.6457 201.363 97.8194C201.12 97.9931 200.936 98.2537 200.811 98.6011C200.693 98.9415 200.634 99.3584 200.634 99.8517C200.634 100.588 200.762 101.154 201.019 101.551C201.283 101.947 201.714 102.145 202.312 102.145C202.659 102.145 202.947 102.058 203.177 101.884C203.406 101.703 203.559 101.432 203.635 101.071L205 101.478C204.896 101.901 204.716 102.256 204.458 102.541C204.208 102.825 203.892 103.041 203.51 103.187C203.135 103.326 202.718 103.395 202.259 103.395C201.579 103.395 200.995 103.256 200.509 102.978C200.022 102.693 199.647 102.287 199.383 101.759C199.126 101.231 198.997 100.595 198.997 99.8517C198.997 99.1083 199.129 98.4725 199.393 97.9445C199.664 97.4164 200.043 97.0134 200.529 96.7355C201.016 96.4506 201.589 96.3082 202.249 96.3082Z" fill="white"/>
    <path d="M105.141 67.6481C105.509 67.6481 105.849 67.6967 106.162 67.794C106.482 67.8912 106.759 68.051 106.996 68.2734C107.232 68.4957 107.409 68.7945 107.527 69.1697L106.068 69.8575C105.999 69.6144 105.877 69.4233 105.703 69.2843C105.537 69.1384 105.311 69.0655 105.026 69.0655C104.831 69.0655 104.651 69.1141 104.484 69.2114C104.324 69.3017 104.185 69.4337 104.067 69.6074C103.949 69.7811 103.859 69.993 103.796 70.2432C103.74 70.4933 103.713 70.7747 103.713 71.0873C103.713 71.1082 103.713 71.1325 103.713 71.1603C103.713 71.1811 103.713 71.2124 103.713 71.2541L103.734 71.3166C103.817 71.1082 103.945 70.9345 104.119 70.7955C104.3 70.6496 104.505 70.5385 104.734 70.462C104.963 70.3856 105.193 70.3474 105.422 70.3474C105.846 70.3474 106.224 70.4308 106.558 70.5975C106.891 70.7643 107.152 71.004 107.34 71.3166C107.534 71.6223 107.631 71.9941 107.631 72.4318C107.631 72.9043 107.524 73.3142 107.308 73.6616C107.093 74.0021 106.794 74.2661 106.412 74.4537C106.03 74.6413 105.575 74.7351 105.047 74.7351C104.456 74.7351 103.935 74.6065 103.483 74.3495C103.039 74.0854 102.691 73.6963 102.441 73.1822C102.198 72.6611 102.076 72.0184 102.076 71.2541C102.076 70.4342 102.212 69.7603 102.483 69.2322C102.754 68.7042 103.119 68.3081 103.577 68.0441C104.043 67.7801 104.564 67.6481 105.141 67.6481ZM105.015 71.5563C104.835 71.5563 104.668 71.5946 104.515 71.671C104.369 71.7405 104.251 71.8447 104.161 71.9836C104.077 72.1226 104.036 72.2859 104.036 72.4735C104.036 72.6541 104.081 72.8139 104.171 72.9529C104.262 73.0919 104.38 73.1996 104.526 73.276C104.672 73.3524 104.835 73.3906 105.015 73.3906C105.328 73.3906 105.568 73.3107 105.735 73.1509C105.908 72.9911 105.995 72.7653 105.995 72.4735C105.995 72.2789 105.957 72.1157 105.88 71.9836C105.804 71.8447 105.693 71.7405 105.547 71.671C105.408 71.5946 105.231 71.5563 105.015 71.5563ZM110.771 74.7351C110.173 74.7351 109.652 74.6204 109.207 74.3912C108.77 74.1549 108.401 73.7728 108.103 73.2447L109.676 72.4631C109.753 72.741 109.874 72.9633 110.041 73.1301C110.215 73.2968 110.472 73.3802 110.812 73.3802C111.028 73.3802 111.212 73.342 111.365 73.2656C111.518 73.1891 111.636 73.078 111.719 72.9321C111.809 72.7792 111.855 72.5951 111.855 72.3797C111.855 72.1712 111.813 71.9975 111.729 71.8586C111.653 71.7196 111.538 71.6154 111.386 71.5459C111.233 71.4695 111.042 71.4313 110.812 71.4313C110.646 71.4313 110.496 71.4486 110.364 71.4834C110.232 71.5112 110.111 71.5563 109.999 71.6189C109.895 71.6745 109.798 71.7474 109.708 71.8377L108.353 71.5876L108.79 67.7523H113.126V69.1384H110.093L109.916 70.5141L109.885 70.6809H109.895C110.034 70.5211 110.229 70.3995 110.479 70.3161C110.729 70.2327 111.007 70.191 111.313 70.191C111.764 70.191 112.15 70.2814 112.469 70.462C112.789 70.6427 113.036 70.8893 113.209 71.202C113.383 71.5147 113.47 71.8725 113.47 72.2755C113.47 72.6993 113.397 73.0675 113.251 73.3802C113.112 73.6859 112.914 73.9395 112.657 74.141C112.407 74.3425 112.119 74.4919 111.792 74.5892C111.472 74.6864 111.132 74.7351 110.771 74.7351ZM117.067 74.6309V69.4198H118.651L118.703 70.4308C118.87 70.0625 119.103 69.7846 119.402 69.597C119.707 69.4094 120.058 69.3156 120.454 69.3156C120.843 69.3156 121.18 69.4024 121.465 69.5761C121.75 69.7498 121.962 70.0069 122.101 70.3474C122.212 70.1181 122.355 69.927 122.528 69.7742C122.709 69.6213 122.914 69.5067 123.143 69.4302C123.372 69.3538 123.609 69.3156 123.852 69.3156C124.199 69.3156 124.505 69.3851 124.769 69.524C125.033 69.656 125.241 69.861 125.394 70.1389C125.554 70.4099 125.634 70.7504 125.634 71.1603V74.6309H123.862V71.5668C123.862 71.2333 123.796 71.0005 123.664 70.8685C123.539 70.7365 123.369 70.6705 123.154 70.6705C122.98 70.6705 122.82 70.7156 122.674 70.806C122.535 70.8893 122.427 71.0179 122.351 71.1916C122.275 71.3653 122.236 71.5841 122.236 71.8482V74.6309H120.465V71.5668C120.465 71.2333 120.399 71.0005 120.267 70.8685C120.135 70.7365 119.964 70.6705 119.756 70.6705C119.596 70.6705 119.443 70.7122 119.297 70.7955C119.158 70.8789 119.047 71.0109 118.964 71.1916C118.881 71.3653 118.839 71.5946 118.839 71.8794V74.6309H117.067ZM126.66 74.6309V73.4844C127.25 73.1162 127.754 72.7723 128.171 72.4526C128.588 72.133 128.925 71.8308 129.182 71.5459C129.446 71.261 129.64 70.9901 129.765 70.733C129.89 70.4759 129.953 70.2258 129.953 69.9826C129.953 69.7186 129.873 69.4997 129.713 69.326C129.56 69.1454 129.331 69.055 129.025 69.055C128.699 69.055 128.445 69.1766 128.265 69.4198C128.084 69.656 127.987 70.0034 127.973 70.462L126.441 69.993C126.455 69.4789 126.576 69.0481 126.806 68.7007C127.042 68.3533 127.361 68.0927 127.764 67.919C128.167 67.7384 128.626 67.6481 129.14 67.6481C129.592 67.6481 129.981 67.7141 130.307 67.8461C130.641 67.9711 130.912 68.1414 131.12 68.3568C131.329 68.5652 131.482 68.8014 131.579 69.0655C131.683 69.3225 131.735 69.5866 131.735 69.8575C131.735 70.3022 131.621 70.7191 131.391 71.1082C131.162 71.4903 130.828 71.8621 130.391 72.2234C129.96 72.5777 129.435 72.9355 128.817 73.2968V73.3073C128.935 73.3003 129.074 73.2934 129.234 73.2864C129.394 73.2795 129.56 73.276 129.734 73.276C129.908 73.269 130.064 73.2656 130.203 73.2656H131.819V74.6309H126.66Z" fill="white"/>
    <path d="M105.141 96.3082C105.509 96.3082 105.849 96.3568 106.162 96.4541C106.482 96.5514 106.759 96.7112 106.996 96.9335C107.232 97.1559 107.409 97.4546 107.527 97.8298L106.068 98.5177C105.999 98.2745 105.877 98.0834 105.703 97.9445C105.537 97.7986 105.311 97.7256 105.026 97.7256C104.831 97.7256 104.651 97.7743 104.484 97.8715C104.324 97.9619 104.185 98.0939 104.067 98.2676C103.949 98.4413 103.859 98.6532 103.796 98.9033C103.74 99.1534 103.713 99.4348 103.713 99.7475C103.713 99.7683 103.713 99.7927 103.713 99.8205C103.713 99.8413 103.713 99.8726 103.713 99.9143L103.734 99.9768C103.817 99.7683 103.945 99.5946 104.119 99.4557C104.3 99.3098 104.505 99.1986 104.734 99.1222C104.963 99.0457 105.193 99.0075 105.422 99.0075C105.846 99.0075 106.224 99.0909 106.558 99.2577C106.891 99.4244 107.152 99.6641 107.34 99.9768C107.534 100.283 107.631 100.654 107.631 101.092C107.631 101.564 107.524 101.974 107.308 102.322C107.093 102.662 106.794 102.926 106.412 103.114C106.03 103.301 105.575 103.395 105.047 103.395C104.456 103.395 103.935 103.267 103.483 103.01C103.039 102.746 102.691 102.357 102.441 101.842C102.198 101.321 102.076 100.679 102.076 99.9143C102.076 99.0944 102.212 98.4204 102.483 97.8924C102.754 97.3643 103.119 96.9683 103.577 96.7043C104.043 96.4402 104.564 96.3082 105.141 96.3082ZM105.015 100.216C104.835 100.216 104.668 100.255 104.515 100.331C104.369 100.401 104.251 100.505 104.161 100.644C104.077 100.783 104.036 100.946 104.036 101.134C104.036 101.314 104.081 101.474 104.171 101.613C104.262 101.752 104.38 101.86 104.526 101.936C104.672 102.013 104.835 102.051 105.015 102.051C105.328 102.051 105.568 101.971 105.735 101.811C105.908 101.651 105.995 101.425 105.995 101.134C105.995 100.939 105.957 100.776 105.88 100.644C105.804 100.505 105.693 100.401 105.547 100.331C105.408 100.255 105.231 100.216 105.015 100.216ZM110.927 103.395C110.19 103.395 109.576 103.253 109.082 102.968C108.596 102.676 108.259 102.252 108.071 101.696L109.718 100.988C109.753 101.238 109.815 101.439 109.906 101.592C110.003 101.738 110.131 101.846 110.291 101.915C110.451 101.978 110.639 102.009 110.854 102.009C111.049 102.009 111.212 101.978 111.344 101.915C111.483 101.846 111.591 101.749 111.667 101.623C111.743 101.498 111.782 101.349 111.782 101.175C111.782 100.995 111.743 100.849 111.667 100.738C111.597 100.626 111.493 100.547 111.354 100.498C111.222 100.449 111.059 100.425 110.864 100.425C110.774 100.425 110.691 100.428 110.614 100.435C110.538 100.435 110.451 100.442 110.354 100.456V99.2889C110.409 99.2959 110.465 99.3028 110.521 99.3098C110.576 99.3098 110.642 99.3098 110.719 99.3098C111.045 99.3098 111.278 99.2438 111.417 99.1118C111.563 98.9728 111.636 98.7574 111.636 98.4656C111.636 98.2155 111.563 98.0244 111.417 97.8924C111.278 97.7604 111.08 97.6944 110.823 97.6944C110.552 97.6944 110.329 97.7673 110.156 97.9132C109.982 98.0522 109.871 98.2919 109.822 98.6323L108.249 98.0904C108.325 97.7082 108.488 97.3852 108.738 97.1211C108.988 96.8571 109.301 96.6556 109.676 96.5167C110.058 96.3777 110.479 96.3082 110.937 96.3082C111.465 96.3082 111.91 96.3846 112.271 96.5375C112.633 96.6904 112.907 96.9092 113.095 97.1941C113.282 97.479 113.376 97.8125 113.376 98.1946C113.376 98.4934 113.328 98.7435 113.23 98.945C113.14 99.1465 113.022 99.3098 112.876 99.4348C112.737 99.5599 112.595 99.6537 112.449 99.7162C112.303 99.7718 112.181 99.8066 112.084 99.8205V99.8517C112.209 99.8517 112.351 99.876 112.511 99.9247C112.671 99.9733 112.827 100.053 112.98 100.164C113.133 100.269 113.258 100.415 113.355 100.602C113.46 100.79 113.512 101.022 113.512 101.3C113.512 101.731 113.397 102.103 113.168 102.416C112.945 102.728 112.64 102.971 112.251 103.145C111.862 103.312 111.42 103.395 110.927 103.395ZM117.169 103.291V98.08H118.753L118.805 99.0909C118.972 98.7227 119.205 98.4447 119.503 98.2571C119.809 98.0695 120.16 97.9757 120.556 97.9757C120.945 97.9757 121.282 98.0626 121.567 98.2363C121.852 98.41 122.064 98.6671 122.203 99.0075C122.314 98.7782 122.456 98.5872 122.63 98.4343C122.811 98.2815 123.016 98.1668 123.245 98.0904C123.474 98.014 123.71 97.9757 123.954 97.9757C124.301 97.9757 124.607 98.0452 124.871 98.1842C125.135 98.3162 125.343 98.5212 125.496 98.7991C125.656 99.0701 125.736 99.4105 125.736 99.8205V103.291H123.964V100.227C123.964 99.8934 123.898 99.6607 123.766 99.5286C123.641 99.3966 123.471 99.3306 123.255 99.3306C123.082 99.3306 122.922 99.3758 122.776 99.4661C122.637 99.5495 122.529 99.678 122.453 99.8517C122.376 100.025 122.338 100.244 122.338 100.508V103.291H120.566V100.227C120.566 99.8934 120.5 99.6607 120.368 99.5286C120.236 99.3966 120.066 99.3306 119.858 99.3306C119.698 99.3306 119.545 99.3723 119.399 99.4557C119.26 99.5391 119.149 99.6711 119.066 99.8517C118.982 100.025 118.941 100.255 118.941 100.54V103.291H117.169ZM126.761 103.291V102.145C127.352 101.776 127.856 101.432 128.273 101.113C128.689 100.793 129.026 100.491 129.284 100.206C129.548 99.9212 129.742 99.6502 129.867 99.3932C129.992 99.1361 130.055 98.8859 130.055 98.6428C130.055 98.3787 129.975 98.1599 129.815 97.9862C129.662 97.8055 129.433 97.7152 129.127 97.7152C128.801 97.7152 128.547 97.8368 128.366 98.08C128.186 98.3162 128.088 98.6636 128.075 99.1222L126.543 98.6532C126.556 98.139 126.678 97.7082 126.907 97.3608C127.144 97.0134 127.463 96.7529 127.866 96.5792C128.269 96.3985 128.728 96.3082 129.242 96.3082C129.693 96.3082 130.083 96.3742 130.409 96.5062C130.743 96.6313 131.014 96.8015 131.222 97.0169C131.431 97.2254 131.583 97.4616 131.681 97.7256C131.785 97.9827 131.837 98.2467 131.837 98.5177C131.837 98.9624 131.722 99.3793 131.493 99.7683C131.264 100.15 130.93 100.522 130.493 100.884C130.062 101.238 129.537 101.596 128.919 101.957V101.967C129.037 101.96 129.176 101.954 129.336 101.947C129.495 101.94 129.662 101.936 129.836 101.936C130.01 101.929 130.166 101.926 130.305 101.926H131.92V103.291H126.761Z" fill="white"/>
    <path d="M51.2178 67.7523V74.6309H49.2272L47.0907 70.9102L46.5696 69.8888H46.5591L46.6008 71.1603V74.6309H45.0167V67.7523H47.0073L49.1438 71.473L49.6649 72.4943H49.6753L49.6337 71.2228V67.7523H51.2178ZM52.3878 74.6309V69.4198H53.9511L54.024 70.5454C54.1561 70.1563 54.3506 69.8541 54.6077 69.6387C54.8717 69.4233 55.2052 69.3156 55.6082 69.3156C55.7402 69.3156 55.8514 69.326 55.9417 69.3469C56.039 69.3677 56.1154 69.3955 56.171 69.4302L55.9938 70.8893C55.9243 70.8615 55.834 70.8407 55.7228 70.8268C55.6186 70.806 55.4901 70.7955 55.3372 70.7955C55.1288 70.7955 54.9342 70.8407 54.7536 70.931C54.5729 71.0213 54.427 71.1568 54.3159 71.3375C54.2116 71.5112 54.1595 71.7335 54.1595 72.0045V74.6309H52.3878ZM56.7595 72.8383C57.0861 72.8383 57.3397 72.9216 57.5203 73.0884C57.7079 73.2551 57.8017 73.4879 57.8017 73.7867C57.8017 74.0785 57.7079 74.3078 57.5203 74.4745C57.3397 74.6413 57.0861 74.7247 56.7595 74.7247C56.4399 74.7247 56.1863 74.6413 55.9987 74.4745C55.8111 74.3078 55.7173 74.0785 55.7173 73.7867C55.7173 73.4879 55.8111 73.2551 55.9987 73.0884C56.1863 72.9216 56.4399 72.8383 56.7595 72.8383ZM62.7455 74.6309V70.6705C62.7455 70.4898 62.7455 70.3057 62.7455 70.1181C62.7525 69.9235 62.756 69.7255 62.756 69.524C62.5267 69.7325 62.2731 69.9166 61.9952 70.0764C61.7172 70.2293 61.4254 70.3335 61.1197 70.3891L60.9529 68.9091C61.1336 68.8952 61.3247 68.8501 61.5262 68.7736C61.7346 68.6972 61.9396 68.6034 62.1411 68.4922C62.3426 68.3811 62.5232 68.263 62.683 68.1379C62.8428 68.0059 62.9644 67.8773 63.0478 67.7523H64.4756V74.6309H62.7455ZM65.6602 74.6309V73.4844C66.2508 73.1162 66.7546 72.7723 67.1714 72.4526C67.5883 72.133 67.9253 71.8308 68.1824 71.5459C68.4464 71.261 68.641 70.9901 68.766 70.733C68.8911 70.4759 68.9536 70.2258 68.9536 69.9826C68.9536 69.7186 68.8737 69.4997 68.7139 69.326C68.5611 69.1454 68.3318 69.055 68.026 69.055C67.6995 69.055 67.4459 69.1766 67.2652 69.4198C67.0846 69.656 66.9873 70.0034 66.9734 70.462L65.4414 69.993C65.4553 69.4789 65.5769 69.0481 65.8061 68.7007C66.0424 68.3533 66.362 68.0927 66.765 67.919C67.168 67.7384 67.6265 67.6481 68.1407 67.6481C68.5923 67.6481 68.9814 67.7141 69.308 67.8461C69.6415 67.9711 69.9124 68.1414 70.1209 68.3568C70.3293 68.5652 70.4822 68.8014 70.5795 69.0655C70.6837 69.3225 70.7358 69.5866 70.7358 69.8575C70.7358 70.3022 70.6212 70.7191 70.3919 71.1082C70.1626 71.4903 69.8291 71.8621 69.3913 72.2234C68.9606 72.5777 68.436 72.9355 67.8176 73.2968V73.3073C67.9357 73.3003 68.0747 73.2934 68.2345 73.2864C68.3943 73.2795 68.5611 73.276 68.7348 73.276C68.9085 73.269 69.0648 73.2656 69.2037 73.2656H70.8192V74.6309H65.6602Z" fill="white"/>
    <path d="M51.2178 96.4124V103.291H49.2272L47.0907 99.5703L46.5696 98.549H46.5591L46.6008 99.8205V103.291H45.0167V96.4124H47.0073L49.1438 100.133L49.6649 101.154H49.6753L49.6337 99.883V96.4124H51.2178ZM52.3878 103.291V98.08H53.9511L54.024 99.2056C54.1561 98.8165 54.3506 98.5142 54.6077 98.2988C54.8717 98.0834 55.2052 97.9757 55.6082 97.9757C55.7402 97.9757 55.8514 97.9862 55.9417 98.007C56.039 98.0279 56.1154 98.0557 56.171 98.0904L55.9938 99.5495C55.9243 99.5217 55.834 99.5008 55.7228 99.487C55.6186 99.4661 55.4901 99.4557 55.3372 99.4557C55.1288 99.4557 54.9342 99.5008 54.7536 99.5912C54.5729 99.6815 54.427 99.817 54.3159 99.9976C54.2116 100.171 54.1595 100.394 54.1595 100.665V103.291H52.3878ZM56.7595 101.498C57.0861 101.498 57.3397 101.582 57.5203 101.749C57.7079 101.915 57.8017 102.148 57.8017 102.447C57.8017 102.739 57.7079 102.968 57.5203 103.135C57.3397 103.301 57.0861 103.385 56.7595 103.385C56.4399 103.385 56.1863 103.301 55.9987 103.135C55.8111 102.968 55.7173 102.739 55.7173 102.447C55.7173 102.148 55.8111 101.915 55.9987 101.749C56.1863 101.582 56.4399 101.498 56.7595 101.498ZM62.7455 103.291V99.3306C62.7455 99.15 62.7455 98.9658 62.7455 98.7782C62.7525 98.5837 62.756 98.3857 62.756 98.1842C62.5267 98.3926 62.2731 98.5768 61.9952 98.7366C61.7172 98.8894 61.4254 98.9936 61.1197 99.0492L60.9529 97.5693C61.1336 97.5554 61.3247 97.5102 61.5262 97.4338C61.7346 97.3574 61.9396 97.2636 62.1411 97.1524C62.3426 97.0412 62.5232 96.9231 62.683 96.7981C62.8428 96.666 62.9644 96.5375 63.0478 96.4124H64.4756V103.291H62.7455ZM68.172 103.395C67.4355 103.395 66.8206 103.253 66.3272 102.968C65.8409 102.676 65.5039 102.252 65.3163 101.696L66.963 100.988C66.9977 101.238 67.0603 101.439 67.1506 101.592C67.2479 101.738 67.3764 101.846 67.5362 101.915C67.696 101.978 67.8836 102.009 68.099 102.009C68.2935 102.009 68.4568 101.978 68.5888 101.915C68.7278 101.846 68.8355 101.749 68.9119 101.623C68.9884 101.498 69.0266 101.349 69.0266 101.175C69.0266 100.995 68.9884 100.849 68.9119 100.738C68.8424 100.626 68.7382 100.547 68.5993 100.498C68.4673 100.449 68.304 100.425 68.1094 100.425C68.0191 100.425 67.9357 100.428 67.8593 100.435C67.7829 100.435 67.696 100.442 67.5987 100.456V99.2889C67.6543 99.2959 67.7099 99.3028 67.7655 99.3098C67.8211 99.3098 67.8871 99.3098 67.9635 99.3098C68.2901 99.3098 68.5228 99.2438 68.6618 99.1118C68.8077 98.9728 68.8807 98.7574 68.8807 98.4656C68.8807 98.2155 68.8077 98.0244 68.6618 97.8924C68.5228 97.7604 68.3248 97.6944 68.0677 97.6944C67.7968 97.6944 67.5744 97.7673 67.4007 97.9132C67.227 98.0522 67.1159 98.2919 67.0672 98.6323L65.4935 98.0904C65.5699 97.7082 65.7332 97.3852 65.9833 97.1211C66.2334 96.8571 66.5461 96.6556 66.9213 96.5167C67.3035 96.3777 67.7238 96.3082 68.1824 96.3082C68.7104 96.3082 69.1551 96.3846 69.5164 96.5375C69.8777 96.6904 70.1522 96.9092 70.3398 97.1941C70.5274 97.479 70.6212 97.8125 70.6212 98.1946C70.6212 98.4934 70.5725 98.7435 70.4752 98.945C70.3849 99.1465 70.2668 99.3098 70.1209 99.4348C69.9819 99.5599 69.8395 99.6537 69.6936 99.7162C69.5477 99.7718 69.4261 99.8066 69.3288 99.8205V99.8517C69.4539 99.8517 69.5963 99.876 69.7561 99.9247C69.9159 99.9733 70.0723 100.053 70.2251 100.164C70.378 100.269 70.503 100.415 70.6003 100.602C70.7045 100.79 70.7566 101.022 70.7566 101.3C70.7566 101.731 70.642 102.103 70.4127 102.416C70.1904 102.728 69.8847 102.971 69.4956 103.145C69.1065 103.312 68.6653 103.395 68.172 103.395Z" fill="white"/>
    </mask>
    <g mask="url(#mask0_1136_25926)">
    <rect x="24.9727" y="-1.02539" width="207.399" height="101.094" fill="#e6ff4c"/>
    </g>
    </svg>