<svg width="56" height="56" viewBox="0 0 56 56" fill="none" xmlns="http://www.w3.org/2000/svg">
<g clip-path="url(#clip0_534_19735)">
<path d="M47.7972 8.20082C42.5156 2.90887 35.4802 -0.00195312 28.0026 -0.00195312C20.5249 -0.00195312 13.4896 2.90887 8.20277 8.20082C2.91083 13.4876 0 20.5178 0 28.0006C0 35.4834 2.91083 42.5085 8.20277 47.8004C13.4896 53.0872 20.5249 56.0032 28.0026 56.0032C35.4802 56.0032 42.5156 53.0924 47.8024 47.8004C53.0892 42.5136 56.0051 35.4783 56.0051 28.0006C56.0051 20.523 53.0943 13.4876 47.8024 8.20082H47.7972ZM54.8892 27.4503H54.8069C51.7212 27.4503 49.1549 25.1669 48.6715 22.1172C47.8384 16.9076 45.8944 12.1196 42.999 8.25739C42.9321 8.16996 42.8601 8.08254 42.7933 7.99511C43.5081 7.70197 44.2127 7.3934 44.8915 7.05397C45.6321 7.65054 46.347 8.28825 47.0258 8.97224C51.9783 13.9248 54.7503 20.4664 54.8892 27.4452V27.4503ZM41.7236 47.5793C40.3453 47.0701 38.9053 46.6381 37.4139 46.2884C39.291 41.3513 40.3402 35.144 40.3967 28.5458H41.0602C45.0304 28.5458 48.0184 32.2383 47.1132 36.1057C46.1001 40.4256 44.2744 44.365 41.739 47.5793H41.7236ZM14.2661 47.5793C11.7256 44.365 9.8999 40.4256 8.88677 36.1057C7.98163 32.2383 10.9696 28.5509 14.9398 28.5509H15.6033C15.6598 35.1491 16.709 41.3565 18.5861 46.2936C17.0895 46.6433 15.6547 47.0753 14.2764 47.5844H14.2661V47.5793ZM14.2764 8.41682C15.6547 8.92596 17.0947 9.35795 18.5861 9.70766C16.709 14.6448 15.6598 20.8521 15.6033 27.4503H14.9398C10.9696 27.4503 7.98163 23.7578 8.88677 19.8956C9.8999 15.5756 11.7256 11.6362 14.2661 8.42196H14.2764V8.41682ZM16.7038 28.5766C19.5118 28.7155 22.1346 29.8572 24.1403 31.8629C26.2746 33.9971 27.4523 36.8411 27.4523 39.8599V45.2444C24.7986 45.2753 22.1912 45.5582 19.6764 46.0673C17.8095 41.2382 16.7604 35.108 16.7038 28.5766ZM27.4523 9.65623C24.9375 9.62538 22.4689 9.36309 20.0878 8.88996C20.0981 8.86424 20.1084 8.82824 20.1238 8.80253C22.1398 4.14315 24.7215 1.44317 27.4574 1.12432V9.65623H27.4523ZM19.6764 9.93394C22.1912 10.4482 24.7935 10.7259 27.4523 10.7568V16.1413C27.4523 19.1653 26.2746 22.0041 24.1403 24.1384C22.1346 26.1441 19.5118 27.2858 16.7038 27.4246C16.7604 20.8933 17.8095 14.763 19.6764 9.93394ZM27.4523 46.3399V54.8666C24.7215 54.5478 22.1346 51.8529 20.1187 47.1884C20.1084 47.1576 20.0981 47.1267 20.0827 47.101C22.4638 46.6279 24.9323 46.3707 27.4523 46.3399ZM28.5477 46.3399C31.0625 46.3707 33.5311 46.633 35.9173 47.101C35.9071 47.1318 35.8968 47.1627 35.8813 47.1884C33.8654 51.8478 31.2837 54.5478 28.5477 54.8666V46.3399ZM36.3236 46.0673C33.8139 45.5582 31.2065 45.2753 28.5477 45.2444V39.8599C28.5477 36.836 29.7254 33.9971 31.8597 31.8629C33.8654 29.8623 36.4882 28.7155 39.2962 28.5766C39.2396 35.108 38.1905 41.2382 36.3236 46.0673ZM31.8597 24.1384C29.7254 22.0041 28.5477 19.1601 28.5477 16.1413V10.7568C31.2014 10.7259 33.8088 10.4431 36.3236 9.93394C38.1905 14.763 39.2396 20.8933 39.2962 27.4246C36.4882 27.2858 33.8654 26.1441 31.8597 24.1384ZM28.5477 9.65623V1.12946C31.2837 1.44832 33.8654 4.14829 35.8813 8.80767C35.8916 8.83338 35.9019 8.86938 35.9173 8.8951C33.5311 9.36824 31.0677 9.62538 28.5529 9.66138L28.5477 9.65623ZM36.8893 8.37053C35.6036 5.39285 34.0608 3.15573 32.374 1.7466C35.5419 2.69288 38.4836 4.65743 40.9881 7.52711C39.7179 7.97968 38.391 8.36539 37.0128 8.6791C36.9716 8.58139 36.9356 8.46825 36.8945 8.37053H36.8893ZM19.1107 8.37053C19.0695 8.46825 19.0335 8.57624 18.9924 8.6791C17.6192 8.36539 16.2924 7.97968 15.017 7.52711C17.5164 4.65743 20.4632 2.69288 23.626 1.7466C21.9341 3.15573 20.3964 5.39285 19.1107 8.37053ZM18.9924 47.3221C19.0335 47.4198 19.0695 47.533 19.1107 47.6307C20.3964 50.6084 21.9341 52.8455 23.626 54.2546C20.4581 53.3135 17.5164 51.3438 15.0118 48.4741C16.2873 48.0216 17.6141 47.6358 18.9872 47.3221H18.9924ZM36.8893 47.6256C36.9305 47.5278 36.9665 47.4198 37.0076 47.317C38.3807 47.6307 39.7076 48.0164 40.983 48.469C38.4836 51.3387 35.5368 53.3032 32.3688 54.2495C34.0608 52.8404 35.5985 50.6032 36.8842 47.6256H36.8893ZM40.3967 27.4503C40.3402 20.8521 39.291 14.6396 37.4139 9.70766C38.9105 9.35795 40.3453 8.92596 41.7236 8.41682H41.7339C44.2744 11.6362 46.1001 15.5705 47.1132 19.8904C48.0184 23.7578 45.0304 27.4503 41.0602 27.4503H40.3967ZM43.9144 6.30313C43.3178 6.58598 42.7007 6.85341 42.0733 7.10026C40.5253 5.26428 38.8025 3.76258 36.9613 2.62088C39.4402 3.49515 41.7801 4.72943 43.9144 6.30313ZM13.9319 7.10026C13.3044 6.85341 12.6873 6.58598 12.0907 6.30313C14.225 4.72943 16.565 3.49515 19.0438 2.62088C17.2027 3.76258 15.4798 5.26942 13.9319 7.10026ZM8.97934 8.97738C9.66333 8.29339 10.3782 7.65568 11.1136 7.05912C11.7925 7.3934 12.4919 7.70711 13.2067 8.00025C13.1399 8.08768 13.0679 8.16996 13.001 8.26253C10.1056 12.1248 8.16163 16.9127 7.3285 22.1224C6.83993 25.1721 4.27881 27.4555 1.19313 27.4555H1.11085C1.2497 20.4767 4.02682 13.935 8.97934 8.98253V8.97738ZM1.11085 28.5458H1.19313C4.27881 28.5458 6.83993 30.8292 7.3285 33.8788C8.16163 39.0885 10.1005 43.8765 13.001 47.7387C13.0679 47.8261 13.1399 47.9136 13.2067 48.001C12.4919 48.2941 11.7873 48.6027 11.1136 48.9421C10.373 48.3456 9.65819 47.7078 8.97934 47.0239C4.02682 42.0713 1.25484 35.5297 1.11085 28.5509V28.5458ZM12.0907 49.693C12.6873 49.4101 13.3044 49.1427 13.9319 48.8958C15.4798 50.7318 17.1975 52.2335 19.0438 53.3752C16.5701 52.5009 14.2301 51.2667 12.0907 49.693ZM42.0733 48.8958C42.7007 49.1427 43.3178 49.4101 43.9144 49.693C41.7801 51.2667 39.4402 52.5009 36.9613 53.3752C38.8025 52.2335 40.5253 50.7267 42.0733 48.8958ZM47.0258 47.0239C46.3418 47.7078 45.627 48.3456 44.8915 48.9421C44.2127 48.6078 43.5133 48.2941 42.7933 48.001C42.8601 47.9136 42.9321 47.8313 42.999 47.7387C45.8944 43.8765 47.8384 39.0885 48.6715 33.8788C49.1601 30.8292 51.7212 28.5458 54.8069 28.5458H54.8892C54.7503 35.5245 51.9732 42.0662 47.0258 47.0187V47.0239Z" fill="#0063FF"/>
</g>
<defs>
<clipPath id="clip0_534_19735">
<rect width="56" height="56" fill="white" transform="translate(0 -0.00195312)"/>
</clipPath>
</defs>
</svg>
