<svg width="110" height="113" viewBox="0 0 110 113" fill="none" xmlns="http://www.w3.org/2000/svg">
<path d="M11.6694 38.8261L10.4946 38.4186L8.9684 42.8017L6.19292 41.8379L7.54517 37.9615L6.37748 37.554L5.02522 41.4304L2.23909 40.4631L3.76525 36.08L2.61531 35.6831L0.627745 41.3879L9.67825 44.5308L11.6694 38.8261Z" fill="#E5EFFF" fill-opacity="0.6"/>
<path d="M11.7758 38.3796L12.5283 36.9729L10.381 33.0611L14.8353 32.6819L15.5877 31.2752L9.72794 31.8563L7.08732 26.8603L6.34198 28.2492L8.36504 31.9839L4.13792 32.356L3.38904 33.752L9.02519 33.1922L11.7758 38.3796Z" fill="#E5EFFF" fill-opacity="0.6"/>
<path d="M16.7163 29.8615L13.7421 27.5725L15.3854 25.4394C15.8432 24.8477 16.0065 24.1638 15.8716 23.3843C15.7368 22.6047 15.3676 21.9811 14.7536 21.5099C14.1467 21.0421 13.444 20.8437 12.6489 20.9039C11.8504 20.9677 11.2257 21.2937 10.7679 21.8854L8.26566 25.1276L15.8574 30.967L16.7128 29.8579L16.7163 29.8615ZM10.0864 24.7626L11.6623 22.7217C11.9214 22.3851 12.2834 22.2008 12.7483 22.1654C13.2133 22.1299 13.625 22.2504 13.987 22.5268C14.3597 22.8138 14.5868 23.1823 14.6755 23.6358C14.7607 24.0894 14.672 24.4862 14.4094 24.8299L12.8335 26.8709L10.09 24.7591L10.0864 24.7626Z" fill="#E5EFFF" fill-opacity="0.6"/>
<path d="M24.0597 21.7012L23.1937 20.8118L20.7376 23.1965L14.9204 17.2295L13.9125 18.2075L20.5992 25.0638L24.0597 21.7012Z" fill="#E5EFFF" fill-opacity="0.6"/>
<path d="M24.3046 19.7276C25.5681 19.9933 26.7571 19.7347 27.8715 18.9445C28.9789 18.1614 29.6177 17.1303 29.7881 15.8476C29.9585 14.5649 29.6461 13.3638 28.8476 12.237C28.049 11.1138 27.0162 10.4193 25.7491 10.1535C24.482 9.88777 23.293 10.15 22.1892 10.933C21.0748 11.7197 20.4359 12.7543 20.2656 14.0335C20.0988 15.3126 20.4111 16.5138 21.2097 17.6406C22.0082 18.7673 23.0375 19.4618 24.3046 19.7276ZM21.5681 14.246C21.6782 13.3354 22.1431 12.5913 22.9559 12.0173C23.7722 11.4397 24.624 11.2555 25.5149 11.4575C26.4057 11.6594 27.1475 12.1803 27.7438 13.0201C28.3365 13.8527 28.5778 14.7209 28.4714 15.6244C28.3649 16.5279 27.9035 17.265 27.0907 17.8425C26.2779 18.4165 25.419 18.6079 24.5246 18.4095C23.6267 18.211 22.8849 17.7008 22.2993 16.8716C21.703 16.0319 21.4617 15.1567 21.5717 14.246H21.5681Z" fill="#E5EFFF" fill-opacity="0.6"/>
<path d="M31.836 11.8862L33.5645 11.0925L37.316 13.5799L38.7321 12.9279L34.7996 10.4228C35.3071 10.072 35.6301 9.57241 35.7756 8.92398C35.9212 8.27556 35.8573 7.65902 35.5875 7.07083C35.2646 6.36925 34.7357 5.86256 33.9975 5.55074C33.2628 5.23893 32.553 5.23893 31.8751 5.55074L28.1448 7.26571L32.1554 15.9539L33.4367 15.3657L31.8325 11.8933L31.836 11.8862ZM29.9372 7.77595L32.34 6.67043C32.7162 6.49681 33.1102 6.50035 33.5148 6.68106C33.923 6.86177 34.2211 7.1665 34.4198 7.5917C34.6186 8.02398 34.6576 8.45272 34.5299 8.87438C34.4021 9.29603 34.1501 9.59367 33.7703 9.76729L31.3675 10.8728L29.9372 7.77241V7.77595Z" fill="#E5EFFF" fill-opacity="0.6"/>
<path d="M45.2237 11.1031L44.8865 9.91257L40.4109 11.1669L39.6159 8.34288L43.5733 7.23382L43.2396 6.04681L39.2823 7.15587L38.4837 4.32121L42.9593 3.06333L42.6292 1.89404L36.8049 3.53105L39.3958 12.7401L45.2237 11.1031Z" fill="#E5EFFF" fill-opacity="0.6"/>
<path d="M56.9609 8.79642C57.8163 7.82555 58.2244 6.64917 58.1854 5.27082C58.1464 3.89247 57.6708 2.74443 56.7657 1.82317C55.8571 0.901909 54.7249 0.458994 53.3691 0.49797C52.0062 0.536947 50.8989 1.0401 50.047 2.01097C49.1952 2.98184 48.7906 4.15822 48.8297 5.53657C48.8687 6.91492 49.3407 8.06296 50.2458 8.98422C51.1509 9.90548 52.2831 10.3484 53.646 10.3094C55.0018 10.2704 56.1056 9.76729 56.9609 8.79642ZM51.1544 8.01335C50.5191 7.35075 50.1855 6.51453 50.1571 5.50114C50.1287 4.47003 50.4126 3.609 51.0089 2.91451C51.6087 2.21648 52.4037 1.85506 53.4046 1.82671C54.4019 1.79837 55.2147 2.11372 55.8429 2.77632C56.4711 3.43893 56.8012 4.28224 56.8296 5.31334C56.858 6.33382 56.5776 7.1913 55.9884 7.88225C55.3993 8.5732 54.6042 8.93461 53.6069 8.96296C52.6096 8.99131 51.7933 8.67595 51.1544 8.01335Z" fill="#E5EFFF" fill-opacity="0.6"/>
<path d="M66.8313 8.32516L67.8961 1.97199L66.5225 1.74168L65.4968 7.86807C65.3939 8.48107 65.0709 8.9665 64.5314 9.32084C63.9919 9.67517 63.3992 9.79918 62.7532 9.68934C62.1073 9.5795 61.5962 9.27477 61.22 8.76808C60.8438 8.26138 60.7053 7.70154 60.8083 7.085L61.834 0.958602L60.4569 0.728286L59.3921 7.08146C59.2431 7.97083 59.4773 8.78579 60.0913 9.53343C60.7053 10.2775 61.5252 10.7346 62.5509 10.9082C63.5838 11.0819 64.5208 10.9153 65.3548 10.4122C66.1889 9.90903 66.6822 9.21454 66.8313 8.32516Z" fill="#E5EFFF" fill-opacity="0.6"/>
<path d="M68.5882 12.1378L69.8659 8.53422L71.6582 9.16847L72.6094 13.5622L74.0788 14.0795L73.0105 9.54761C73.6174 9.64682 74.203 9.51572 74.7567 9.1543C75.3139 8.78934 75.7008 8.3039 75.9173 7.69445C76.1764 6.96807 76.1515 6.2346 75.8428 5.49759C75.534 4.76058 75.0264 4.26806 74.3201 4.02003L70.4515 2.65231L67.2572 11.6736L68.5882 12.1413V12.1378ZM71.3743 4.26452L73.8694 5.14326C74.2598 5.28145 74.5402 5.55783 74.7035 5.96886C74.8667 6.38342 74.8738 6.80862 74.7141 7.25154C74.5544 7.70154 74.2811 8.03461 73.8942 8.24721C73.5074 8.45981 73.117 8.49879 72.7265 8.3606L70.2314 7.48185L71.3707 4.26452H71.3743Z" fill="#E5EFFF" fill-opacity="0.6"/>
<path d="M86.7034 13.3071L84.3041 20.3795L85.5889 21.3043L93.5072 15.2169L92.2827 14.3346L85.8515 19.5717L88.7264 11.7622L87.5836 10.9366L81.1062 16.1311L83.974 8.32871L82.7531 7.44642L79.5446 16.9354L80.8152 17.8567L86.7034 13.3071Z" fill="#E5EFFF" fill-opacity="0.6"/>
<path d="M89.163 22.8917C89.021 24.1744 89.3972 25.3296 90.2881 26.3607C91.1754 27.3847 92.265 27.9197 93.5604 27.9622C94.8559 28.0083 96.0236 27.5796 97.0671 26.676C98.1105 25.7725 98.7033 24.6811 98.8417 23.3949C98.9801 22.1087 98.6074 20.9571 97.7201 19.9331C96.8257 18.902 95.7361 18.3669 94.4442 18.3244C93.1523 18.2819 91.9846 18.7106 90.9411 19.6142C89.8977 20.5177 89.3049 21.6091 89.163 22.8917ZM91.8142 20.6169C92.5951 19.9437 93.4433 19.6177 94.3626 19.639C95.2818 19.6602 96.0662 20.05 96.7193 20.8012C97.3723 21.5559 97.642 22.3815 97.5249 23.2886C97.4078 24.1957 96.9606 24.9823 96.1833 25.6555C95.4096 26.3252 94.5684 26.6477 93.6598 26.63C92.7512 26.6122 91.9668 26.226 91.3138 25.4713C90.6607 24.7166 90.3875 23.8874 90.4975 22.9768C90.6075 22.0662 91.0441 21.2795 91.8142 20.6169Z" fill="#E5EFFF" fill-opacity="0.6"/>
<path d="M94.4052 31.5445L97.713 29.617L98.6713 31.2575L96.556 35.2225L97.3404 36.5654L99.4592 32.4162C99.8603 32.8875 100.389 33.1603 101.049 33.2418C101.709 33.3233 102.32 33.2028 102.881 32.8768C103.548 32.4871 104.002 31.913 104.244 31.1512C104.485 30.3894 104.417 29.6878 104.041 29.043L101.972 25.5032L93.6953 30.3256L94.4052 31.541V31.5445ZM101.631 27.3351L102.966 29.617C103.175 29.9748 103.211 30.3646 103.069 30.7863C102.927 31.2079 102.654 31.5374 102.249 31.7749C101.834 32.0158 101.411 32.0938 100.978 32.0052C100.545 31.9201 100.222 31.6969 100.013 31.339L98.6784 29.0571L101.631 27.3386V27.3351Z" fill="#E5EFFF" fill-opacity="0.6"/>
<path d="M98.1247 38.539L102.221 36.9906L99.6331 42.5217L100.272 44.2084L103.136 38.1776L109.014 40.2398L108.421 38.6737L102.927 36.7249L107.087 35.1552L106.59 33.8442L97.6278 37.228L98.1247 38.539Z" fill="#E5EFFF" fill-opacity="0.6"/>
<path d="M98.0857 75.6695L99.2534 76.0876L100.833 71.7258L103.594 72.7215L102.199 76.5801L103.36 77.0018L104.758 73.1396L107.534 74.1423L105.954 78.5041L107.097 78.9187L109.152 73.2352L100.141 69.986L98.0857 75.6695Z" fill="#E5EFFF" fill-opacity="0.6"/>
<path d="M97.9721 76.1124L97.2019 77.5085L99.3031 81.4451L94.8453 81.7746L94.0751 83.1707L99.9419 82.6569L102.526 87.6849L103.285 86.3065L101.308 82.5471L105.539 82.2246L106.306 80.8392L100.662 81.3317L97.9721 76.1124Z" fill="#E5EFFF" fill-opacity="0.6"/>
<path d="M92.9322 84.5703L95.8816 86.8947L94.2099 89.0065C93.745 89.5947 93.5746 90.275 93.6989 91.0546C93.8231 91.8341 94.1851 92.4648 94.7956 92.9432C95.3954 93.418 96.0946 93.627 96.8932 93.5739C97.6917 93.5207 98.3199 93.2018 98.7849 92.6136L101.326 89.4034L93.8053 83.4754L92.9358 84.5739L92.9322 84.5703ZM99.4983 89.7471L97.8976 91.7703C97.6349 92.1034 97.2694 92.2841 96.8044 92.3125C96.3395 92.3408 95.9278 92.2168 95.5728 91.9369C95.2037 91.6463 94.9801 91.2743 94.8985 90.8172C94.8169 90.3636 94.9127 89.9668 95.1789 89.6266L96.7796 87.6034L99.4983 89.7436V89.7471Z" fill="#E5EFFF" fill-opacity="0.6"/>
<path d="M85.4931 92.6455L86.3484 93.542L88.8293 91.1857L94.5791 97.2235L95.5941 96.2562L88.9926 89.3219L85.4931 92.6455Z" fill="#E5EFFF" fill-opacity="0.6"/>
<path d="M85.2233 94.6156C83.9634 94.3357 82.7708 94.5802 81.6493 95.3562C80.5348 96.1251 79.8818 97.1491 79.6972 98.4282C79.5091 99.7074 79.8108 100.916 80.5952 102.05C81.3795 103.183 82.4053 103.892 83.6688 104.168C84.9323 104.448 86.1248 104.2 87.2393 103.431C88.3608 102.659 89.0139 101.631 89.1985 100.356C89.383 99.0802 89.0813 97.8719 88.297 96.7381C87.5126 95.6042 86.4904 94.8955 85.2269 94.6156H85.2233ZM87.8959 100.125C87.7752 101.036 87.3032 101.773 86.4798 102.34C85.6599 102.907 84.8045 103.084 83.9172 102.872C83.0299 102.659 82.2917 102.127 81.7061 101.281C81.124 100.441 80.8933 99.5692 81.0104 98.6692C81.1275 97.7692 81.596 97.0357 82.4195 96.4688C83.2393 95.9018 84.0982 95.7247 84.9926 95.9302C85.887 96.1392 86.6217 96.6601 87.2002 97.4928C87.7859 98.3397 88.0201 99.2184 87.8959 100.125Z" fill="#E5EFFF" fill-opacity="0.6"/>
<path d="M76.038 98.8712L77.5996 102.365L75.8605 103.141L72.1409 100.611L70.7177 101.245L74.6183 103.796C74.1072 104.14 73.7771 104.636 73.6245 105.285C73.4719 105.929 73.5287 106.55 73.7913 107.141C74.1072 107.846 74.6289 108.36 75.3601 108.683C76.0912 109.005 76.7975 109.012 77.4825 108.707L81.2305 107.035L77.3228 98.3007L76.0344 98.8747L76.038 98.8712ZM79.4488 106.5L77.0353 107.577C76.6555 107.747 76.2616 107.74 75.8605 107.552C75.4559 107.368 75.1578 107.06 74.9661 106.631C74.7709 106.195 74.739 105.766 74.8738 105.345C75.0087 104.923 75.2642 104.629 75.644 104.459L78.061 103.382L79.4559 106.5H79.4488Z" fill="#E5EFFF" fill-opacity="0.6"/>
<path d="M64.2049 102.988L64.5278 104.186L69.0141 102.985L69.7771 105.82L65.8056 106.883L66.125 108.073L70.0966 107.01L70.8632 109.855L66.3735 111.057L66.6893 112.229L72.5349 110.663L70.0504 101.426L64.2049 102.988Z" fill="#E5EFFF" fill-opacity="0.6"/>
<path d="M55.7719 103.683C54.4161 103.704 53.3052 104.197 52.4392 105.157C51.5732 106.117 51.1508 107.287 51.1757 108.665C51.197 110.043 51.6584 111.198 52.5563 112.13C53.4543 113.062 54.5794 113.519 55.9352 113.494C57.2981 113.473 58.4126 112.981 59.275 112.02C60.1375 111.06 60.5563 109.891 60.535 108.513C60.5137 107.134 60.0558 105.979 59.1614 105.047C58.267 104.115 57.1384 103.662 55.7755 103.683H55.7719ZM58.3203 111.113C57.7134 111.804 56.9112 112.155 55.9139 112.173C54.9166 112.19 54.1073 111.861 53.4862 111.195C52.8651 110.525 52.5457 109.675 52.5315 108.647C52.5138 107.627 52.8048 106.773 53.4046 106.089C54.0044 105.405 54.7994 105.054 55.8003 105.037C56.7977 105.019 57.6104 105.345 58.2422 106.014C58.8739 106.684 59.1934 107.524 59.2111 108.537C59.2289 109.568 58.9343 110.426 58.3274 111.117L58.3203 111.113Z" fill="#E5EFFF" fill-opacity="0.6"/>
<path d="M46.874 102.981C45.8412 102.797 44.9078 102.95 44.0666 103.442C43.2254 103.935 42.725 104.626 42.5653 105.511L41.426 111.85L42.796 112.095L43.8962 105.983C44.0063 105.37 44.3328 104.888 44.8794 104.54C45.4224 104.193 46.0187 104.076 46.6646 104.193C47.3106 104.31 47.8181 104.622 48.1873 105.136C48.5564 105.646 48.6877 106.209 48.5777 106.822L47.4774 112.935L48.8545 113.183L49.9938 106.844C50.1535 105.958 49.9299 105.136 49.323 104.385C48.7161 103.633 47.9033 103.166 46.8776 102.981H46.874Z" fill="#E5EFFF" fill-opacity="0.6"/>
<path d="M40.8546 101.681L39.5343 105.27L37.749 104.615L36.8475 100.211L35.3817 99.6755L36.3968 104.222C35.7898 104.115 35.2042 104.239 34.6434 104.594C34.0827 104.948 33.6887 105.433 33.4687 106.039C33.2025 106.766 33.2202 107.496 33.5183 108.236C33.8165 108.977 34.3205 109.476 35.0232 109.731L38.8777 111.145L42.1784 102.163L40.8546 101.677V101.681ZM37.9726 109.522L35.4882 108.612C35.0977 108.47 34.8209 108.19 34.6612 107.776C34.5015 107.361 34.5015 106.932 34.6612 106.493C34.8245 106.046 35.1048 105.717 35.4917 105.508C35.8821 105.299 36.269 105.267 36.6629 105.409L39.1474 106.319L37.9691 109.522H37.9726Z" fill="#E5EFFF" fill-opacity="0.6"/>
<path d="M22.7536 100.299L25.2345 93.255L23.9638 92.3125L15.971 98.3078L17.1848 99.2042L23.6799 94.0452L20.7128 101.819L21.845 102.659L28.3826 97.5424L25.4226 105.309L26.6329 106.206L29.9549 96.7522L28.6914 95.8168L22.7536 100.299Z" fill="#E5EFFF" fill-opacity="0.6"/>
<path d="M20.404 90.6861C20.5601 89.4069 20.2017 88.2447 19.3179 87.2065C18.4413 86.1719 17.3588 85.6262 16.0633 85.566C14.7678 85.5057 13.5966 85.9203 12.5425 86.8097C11.4883 87.6991 10.885 88.7868 10.7288 90.0695C10.5727 91.3522 10.9347 92.5109 11.8078 93.5455C12.688 94.5873 13.774 95.1365 15.066 95.1932C16.3579 95.2499 17.5291 94.8353 18.5832 93.9459C19.6374 93.0566 20.2443 91.9723 20.4004 90.6896L20.404 90.6861ZM17.7279 92.929C16.9399 93.5951 16.0881 93.9105 15.1689 93.8786C14.2496 93.8467 13.4688 93.4499 12.8264 92.688C12.184 91.9262 11.9214 91.0936 12.0491 90.1936C12.1769 89.29 12.6312 88.5069 13.4191 87.8408C14.2 87.1817 15.0447 86.8664 15.9568 86.8947C16.8654 86.9231 17.6427 87.3199 18.2886 88.0782C18.9346 88.84 19.1937 89.6727 19.073 90.5833C18.9524 91.4939 18.5052 92.2735 17.7279 92.929Z" fill="#E5EFFF" fill-opacity="0.6"/>
<path d="M15.2683 81.9695L11.9356 83.8581L10.995 82.2069L13.16 78.2667L12.3898 76.9132L10.2213 81.0341C9.82732 80.5593 9.30203 80.2793 8.64188 80.1872C7.98527 80.0986 7.37126 80.212 6.80693 80.5309C6.13258 80.9136 5.67118 81.4805 5.42274 82.2388C5.17074 82.9971 5.23108 83.7022 5.6002 84.3506L7.6268 87.9152L15.9604 83.192L15.2647 81.966L15.2683 81.9695ZM7.99237 86.0939L6.68626 83.7979C6.4804 83.4364 6.45201 83.0467 6.59753 82.625C6.74305 82.2069 7.01989 81.8809 7.43159 81.6471C7.84685 81.4097 8.27276 81.3388 8.70221 81.4309C9.13522 81.523 9.45465 81.7498 9.6605 82.1112L10.9666 84.4073L7.99237 86.0939Z" fill="#E5EFFF" fill-opacity="0.6"/>
<path d="M11.6303 74.9325L7.51678 76.4313L10.168 70.9321L9.55048 69.2419L6.61527 75.2372L0.762615 73.1041L1.33759 74.6774L6.80693 76.69L2.6295 78.2136L3.10865 79.5282L12.113 76.2506L11.6303 74.9325Z" fill="#E5EFFF" fill-opacity="0.6"/>
<path d="M3.96496 61.2847C5.47972 60.9278 6.41785 59.4125 6.06034 57.9003C5.70282 56.388 4.18504 55.4515 2.67028 55.8084C1.15551 56.1653 0.21738 57.6806 0.574896 59.1928C0.932412 60.7051 2.45019 61.6416 3.96496 61.2847Z" fill="#E5EFFF" fill-opacity="0.6"/>
<path d="M108.673 60.5341C109.774 59.4354 109.774 57.654 108.673 56.5553C107.573 55.4566 105.788 55.4566 104.688 56.5553C103.587 57.654 103.587 59.4354 104.688 60.5341C105.788 61.6328 107.573 61.6328 108.673 60.5341Z" fill="#E5EFFF" fill-opacity="0.6"/>
</svg>
