<svg width="309" height="226" viewBox="0 0 309 226" fill="none" xmlns="http://www.w3.org/2000/svg">
<rect width="309" height="226" rx="14" fill="#000A19" fill-opacity="0.05"/>
<g clip-path="url(#clip0_900_160008)">
<path fill-rule="evenodd" clip-rule="evenodd" d="M173.704 81.89C173.886 82.0008 173.976 82.1921 173.976 82.3834L173.896 82.6753C172.587 84.8802 171.419 87.4072 170.432 90.2061C170.352 90.4276 170.151 90.5786 169.919 90.5887C169.889 90.5887 169.848 90.5887 169.818 90.5786C165.721 89.592 161.381 89.0181 156.911 88.8671C156.599 88.8671 156.347 88.5952 156.347 88.2831V77.0776C156.347 76.9165 156.418 76.7655 156.529 76.6547C156.629 76.5641 156.76 76.5037 156.891 76.5037C162.831 76.8964 168.64 78.7589 173.694 81.9001L173.704 81.89ZM135.296 81.89C135.114 82.0008 135.024 82.1921 135.024 82.3834L135.104 82.6753C136.413 84.8802 137.581 87.4072 138.568 90.2061C138.648 90.4276 138.849 90.5786 139.081 90.5887C139.111 90.5887 139.152 90.5887 139.182 90.5786C143.279 89.592 147.619 89.0181 152.089 88.8671C152.401 88.8671 152.653 88.5952 152.653 88.2831V77.0776C152.653 76.9165 152.582 76.7655 152.471 76.6547C152.371 76.5641 152.24 76.5037 152.109 76.5037C146.169 76.8964 140.36 78.7589 135.306 81.9001L135.296 81.89ZM131.319 84.7292C131.419 84.6486 131.53 84.6084 131.651 84.5983C131.671 84.5983 131.701 84.5983 131.721 84.5983C131.893 84.6285 132.034 84.7292 132.124 84.8802C133.201 86.7428 134.168 88.8369 134.993 91.1223L135.024 91.3236L134.963 91.5753C134.893 91.7163 134.772 91.827 134.621 91.8774C129.658 93.5386 125.429 95.7736 122.066 98.502C121.966 98.5826 121.855 98.6229 121.734 98.6329C121.623 98.6329 121.513 98.5826 121.412 98.5121C121.271 98.4014 121.19 98.2302 121.19 98.049L121.241 97.8074C123.546 92.7633 127.03 88.2429 131.309 84.7292H131.319ZM118.23 110.473V110.604C118.22 110.735 118.261 110.865 118.341 110.966C118.452 111.097 118.613 111.178 118.784 111.188H137.883C138.034 111.188 138.185 111.127 138.296 111.006C138.406 110.896 138.457 110.755 138.457 110.604V110.583C138.296 105.409 137.611 100.445 136.433 95.8542C136.393 95.6931 136.292 95.5622 136.151 95.4917C136.081 95.4515 135.99 95.4313 135.91 95.4213C135.859 95.4213 135.799 95.4313 135.749 95.4515C126.174 98.7336 119.62 104.351 118.23 110.473ZM152.099 92.5116C148.062 92.6727 144.125 93.2063 140.4 94.1124C140.249 94.1527 140.118 94.2433 140.037 94.3742L139.957 94.6762L139.977 94.8172C141.266 99.7706 142.011 105.096 142.172 110.624C142.172 110.936 142.434 111.188 142.756 111.188H152.079C152.401 111.188 152.663 110.926 152.663 110.604V93.0855C152.663 92.9244 152.602 92.7734 152.481 92.6627C152.381 92.562 152.25 92.5116 152.119 92.5016L152.099 92.5116ZM156.901 92.5116C156.76 92.5116 156.639 92.5721 156.539 92.6727C156.428 92.7835 156.358 92.9345 156.358 93.0956V110.614C156.358 110.936 156.619 111.198 156.941 111.198H166.264C166.576 111.198 166.838 110.946 166.848 110.634C167.009 105.107 167.754 99.7907 169.043 94.8273L169.063 94.6863L168.983 94.3843C168.902 94.2534 168.771 94.1527 168.62 94.1225C164.885 93.2164 160.948 92.6828 156.921 92.5217L156.901 92.5116ZM173.09 95.4213C173.01 95.4213 172.929 95.4515 172.849 95.4917C172.708 95.5723 172.607 95.7032 172.567 95.8542C171.389 100.445 170.704 105.399 170.543 110.583V110.604C170.543 110.755 170.604 110.896 170.704 111.006C170.815 111.117 170.956 111.178 171.117 111.188H190.216C190.387 111.188 190.548 111.107 190.659 110.966C190.739 110.865 190.79 110.735 190.79 110.604V110.473C189.38 104.351 182.836 98.7336 173.251 95.4515C173.201 95.4313 173.151 95.4213 173.09 95.4213ZM177.349 84.5983C177.349 84.5983 177.299 84.5983 177.279 84.5983C177.107 84.6285 176.966 84.7292 176.876 84.8802C175.799 86.7428 174.832 88.8369 174.007 91.1223L173.976 91.3236L174.037 91.5753C174.107 91.7163 174.228 91.827 174.379 91.8774C179.342 93.5386 183.571 95.7736 186.934 98.502C187.034 98.5826 187.145 98.6229 187.266 98.6329C187.377 98.6329 187.487 98.5826 187.588 98.5121C187.729 98.4014 187.81 98.2302 187.81 98.049L187.759 97.8074C185.454 92.7633 181.97 88.2429 177.691 84.7292C177.591 84.6486 177.48 84.6084 177.359 84.5983H177.349ZM171.117 114.822C170.966 114.822 170.815 114.893 170.704 115.003C170.594 115.114 170.543 115.255 170.543 115.406V115.426C170.704 120.601 171.389 125.554 172.567 130.155C172.607 130.317 172.708 130.447 172.849 130.518C172.929 130.558 173.01 130.578 173.09 130.588C173.141 130.588 173.191 130.578 173.241 130.558C182.816 127.276 189.37 121.658 190.759 115.537V115.406C190.77 115.275 190.729 115.144 190.649 115.044C190.538 114.913 190.377 114.832 190.206 114.822H171.107H171.117ZM156.931 114.822C156.609 114.822 156.347 115.084 156.347 115.406V132.924C156.347 133.085 156.408 133.236 156.529 133.347C156.629 133.448 156.76 133.498 156.891 133.508C160.928 133.357 164.865 132.813 168.6 131.907C168.751 131.867 168.882 131.776 168.963 131.646L169.043 131.343L169.023 131.203C167.734 126.239 166.989 120.923 166.828 115.396C166.828 115.084 166.566 114.832 166.244 114.832H156.921L156.931 114.822ZM142.746 114.822C142.434 114.822 142.172 115.074 142.162 115.386C141.991 120.913 141.256 126.229 139.967 131.192L139.947 131.333L140.027 131.635C140.108 131.766 140.239 131.867 140.39 131.897C144.125 132.803 148.062 133.337 152.099 133.498C152.24 133.498 152.361 133.428 152.461 133.337C152.572 133.226 152.642 133.075 152.642 132.914V115.396C152.642 115.074 152.381 114.812 152.059 114.812H142.736L142.746 114.822ZM118.794 114.822C118.623 114.822 118.462 114.903 118.351 115.044C118.271 115.144 118.22 115.275 118.22 115.406V115.537C119.63 121.658 126.174 127.276 135.749 130.558C135.799 130.578 135.849 130.588 135.9 130.588C135.98 130.588 136.071 130.558 136.141 130.518C136.282 130.437 136.383 130.306 136.423 130.155C137.601 125.554 138.286 120.601 138.447 115.426V115.406C138.447 115.255 138.386 115.114 138.286 115.003C138.175 114.893 138.034 114.832 137.873 114.822H118.774H118.794ZM121.422 127.487C121.513 127.417 121.633 127.377 121.744 127.367C121.865 127.367 121.976 127.417 122.076 127.498C125.439 130.236 129.657 132.461 134.631 134.122C134.782 134.173 134.903 134.283 134.973 134.424L135.034 134.676L134.993 134.877C134.158 137.173 133.201 139.277 132.134 141.119C132.054 141.27 131.903 141.371 131.731 141.401C131.711 141.401 131.691 141.401 131.661 141.401C131.54 141.401 131.419 141.351 131.319 141.27C127.04 137.747 123.556 133.226 121.251 128.182L121.2 127.941C121.2 127.769 121.281 127.588 121.422 127.477V127.487ZM135.024 143.626C135.024 143.818 135.124 144.009 135.296 144.12C140.35 147.251 146.159 149.123 152.099 149.516C152.24 149.516 152.371 149.456 152.471 149.355C152.592 149.244 152.653 149.093 152.653 148.932V137.727C152.653 137.414 152.401 137.153 152.089 137.143C147.619 136.992 143.279 136.418 139.182 135.431C139.152 135.431 139.111 135.421 139.081 135.421C138.849 135.431 138.648 135.582 138.568 135.804C137.581 138.602 136.413 141.14 135.104 143.334L135.024 143.626ZM169.929 135.411C169.929 135.411 169.859 135.411 169.828 135.421C165.731 136.408 161.391 136.981 156.921 137.132C156.609 137.143 156.358 137.404 156.358 137.716V148.922C156.358 149.083 156.428 149.234 156.539 149.345C156.639 149.435 156.77 149.496 156.911 149.506C162.851 149.113 168.66 147.251 173.715 144.11C173.896 143.999 173.986 143.808 173.986 143.616L173.906 143.324C172.597 141.119 171.439 138.592 170.442 135.793C170.362 135.572 170.161 135.421 169.929 135.411ZM187.256 127.367C187.367 127.367 187.487 127.417 187.578 127.487C187.729 127.598 187.8 127.769 187.8 127.951L187.749 128.192C185.444 133.236 181.96 137.757 177.681 141.28C177.581 141.361 177.47 141.401 177.339 141.411C177.319 141.411 177.289 141.411 177.269 141.411C177.097 141.381 176.956 141.28 176.866 141.129C175.799 139.287 174.832 137.183 174.007 134.887L173.966 134.686L174.027 134.434C174.097 134.293 174.218 134.183 174.369 134.132C179.332 132.471 183.551 130.236 186.924 127.508C187.024 127.427 187.135 127.387 187.256 127.377V127.367ZM174.782 147.261C196.277 137.928 220.5 119.222 220.5 113C220.5 107.332 196.76 88.7161 175.436 79.1314C169.416 75.4466 162.328 73.3223 154.747 73.3223C154.666 73.3223 154.576 73.3223 154.495 73.3223C154.414 73.3223 154.324 73.3223 154.243 73.3223C146.662 73.3223 139.584 75.4466 133.554 79.1314C112.24 88.7161 88.5 107.332 88.5 113C88.5 119.222 112.733 137.928 134.218 147.261C140.098 150.704 146.944 152.677 154.243 152.677C154.324 152.677 154.414 152.677 154.495 152.677C154.576 152.677 154.666 152.677 154.747 152.677C162.056 152.677 168.892 150.704 174.772 147.261H174.782Z" fill="#0063FF"/>
</g>
<defs>
<clipPath id="clip0_900_160008">
<rect width="132" height="132" fill="white" transform="translate(88.5 47)"/>
</clipPath>
</defs>
</svg>
