<svg width="70" height="70" viewBox="0 0 70 70" fill="none" xmlns="http://www.w3.org/2000/svg">
<g id="Vector">
<path d="M2.54293 32.0836H10.5956C11.2672 32.0836 11.9192 31.8162 12.3952 31.3403L31.2911 12.4443C31.7671 11.9683 32.0344 11.3228 32.0344 10.6447V2.5986C32.0344 1.19672 30.8934 0.0556641 29.4915 0.0556641H2.54293C1.14106 0.0556641 0 1.19672 0 2.5986V29.5472C0 30.949 1.14106 32.0901 2.54293 32.0901V32.0836Z" fill="#0063FF"/>
<path d="M67.3421 32.0836H59.2895C58.6179 32.0836 57.9658 31.8162 57.4899 31.3403L38.5939 12.4443C38.1179 11.9683 37.8506 11.3228 37.8506 10.6447V2.5986C37.8506 1.19672 38.9916 0.0556641 40.3935 0.0556641H67.3421C68.744 0.0556641 69.885 1.19672 69.885 2.5986V29.5472C69.885 30.949 68.744 32.0901 67.3421 32.0901V32.0836Z" fill="#0063FF"/>
<path d="M2.54293 37.9062H10.5956C11.2672 37.9062 11.9192 38.1736 12.3952 38.6496L31.2911 57.5455C31.7671 58.0215 32.0344 58.667 32.0344 59.3451V67.3978C32.0344 68.7996 30.8934 69.9407 29.4915 69.9407H2.54293C1.14106 69.9407 0 68.7996 0 67.3978V40.4492C0 39.0473 1.14106 37.9062 2.54293 37.9062Z" fill="#0063FF"/>
<path d="M67.3421 37.9062H59.2895C58.6179 37.9062 57.9658 38.1736 57.4899 38.6496L38.5939 57.5455C38.1179 58.0215 37.8506 58.667 37.8506 59.3451V67.3978C37.8506 68.7996 38.9916 69.9407 40.3935 69.9407H67.3421C68.744 69.9407 69.885 68.7996 69.885 67.3978V40.4492C69.885 39.0473 68.744 37.9062 67.3421 37.9062Z" fill="#0063FF"/>
<path d="M34.9425 49.5581C42.9837 49.5581 49.5024 43.0394 49.5024 34.9982C49.5024 26.957 42.9837 20.4383 34.9425 20.4383C26.9013 20.4383 20.3826 26.957 20.3826 34.9982C20.3826 43.0394 26.9013 49.5581 34.9425 49.5581Z" fill="#0063FF"/>
</g>
</svg>
