<svg width="309" height="226" viewBox="0 0 309 226" fill="none" xmlns="http://www.w3.org/2000/svg">
<rect width="309" height="226" rx="14" fill="#000A19" fill-opacity="0.05"/>
<g clip-path="url(#clip0_900_159986)">
<path fill-rule="evenodd" clip-rule="evenodd" d="M146.667 123.015L148.258 121.112H165.734C168.578 121.112 170.885 118.815 170.889 115.97V105.103H172.414C174.08 105.103 175.436 106.454 175.44 108.121V129.93C175.44 130.566 175.04 131.135 174.44 131.353C173.845 131.566 173.174 131.388 172.765 130.899L168.125 125.277H149.591C148.213 125.273 147.018 124.344 146.667 123.015ZM180.868 129.295C180.868 132.393 182.735 135.184 185.597 136.371C188.459 137.553 191.753 136.9 193.94 134.708C196.131 132.517 196.784 129.224 195.602 126.366C194.415 123.504 191.624 121.637 188.526 121.637C186.495 121.637 184.548 122.446 183.113 123.882C181.677 125.317 180.868 127.264 180.868 129.295ZM136.72 82.0621C144.076 77.5908 152.783 75.8886 161.276 77.253C169.774 78.6219 177.508 82.9687 183.09 89.5198C188.668 96.071 191.735 104.395 191.735 113.001V113.423L186.548 108.236V108.232C186.122 107.872 185.495 107.894 185.099 108.285C184.704 108.681 184.673 109.307 185.033 109.734L191.94 116.641C192.357 117.054 193.024 117.054 193.442 116.641L200.349 109.734C200.762 109.321 200.762 108.649 200.349 108.232C199.935 107.818 199.26 107.818 198.846 108.232L193.864 113.205C193.926 104.063 190.717 95.2005 184.819 88.2177C178.921 81.235 170.721 76.5904 161.699 75.1192C152.677 73.6525 143.427 75.457 135.618 80.2083C135.12 80.5239 134.969 81.1817 135.285 81.684C135.596 82.1817 136.258 82.3329 136.756 82.0173L136.72 82.0621ZM167.614 147.135C156.556 151.046 144.293 149.357 134.702 142.61C125.115 135.863 119.386 124.885 119.337 113.16L124.492 118.325H124.488C124.906 118.751 125.59 118.756 126.012 118.338C126.217 118.134 126.332 117.862 126.337 117.578C126.337 117.289 126.226 117.014 126.026 116.813L119.132 109.92V109.916C118.932 109.716 118.656 109.604 118.372 109.604C118.092 109.604 117.816 109.716 117.616 109.916L110.723 116.809V116.813C110.358 117.236 110.381 117.867 110.776 118.262C111.167 118.658 111.799 118.685 112.225 118.325L117.243 113.307C117.341 125.689 123.417 137.263 133.555 144.375C143.693 151.486 156.64 153.259 168.321 149.139C168.872 148.944 169.161 148.335 168.965 147.784C168.774 147.232 168.165 146.939 167.614 147.135ZM135.368 99.0485C136.062 98.4529 136.435 97.564 136.368 96.6484C135.786 87.8748 129.737 81.3016 120.439 81.3016C111.141 81.3016 105.065 87.8795 104.51 96.6484C104.434 97.5639 104.803 98.4572 105.501 99.0485C109.723 102.489 115.003 104.364 120.453 104.364C125.897 104.364 131.178 102.489 135.4 99.0485H135.368ZM120.416 77.2389C123.514 77.2389 126.305 75.3722 127.492 72.51C128.674 69.6521 128.021 66.3587 125.83 64.1675C123.639 61.9763 120.345 61.323 117.488 62.5053C114.625 63.692 112.759 66.4832 112.759 69.5811C112.759 73.8124 116.185 77.2389 120.416 77.2389ZM188.525 141.014C179.204 141.014 173.15 147.579 172.595 156.352C172.529 157.268 172.897 158.161 173.595 158.761C177.822 162.201 183.102 164.077 188.547 164.077C193.996 164.077 199.276 162.201 203.499 158.761C204.197 158.165 204.566 157.268 204.49 156.352C203.899 147.578 197.845 141.014 188.525 141.014ZM165.768 118.987H147.27L142.559 124.676C142.15 125.165 141.479 125.343 140.883 125.116C140.279 124.912 139.878 124.334 139.896 123.694V101.827C139.896 100.16 141.243 98.8133 142.91 98.8133H165.733C166.533 98.8133 167.302 99.1289 167.866 99.6933C168.431 100.262 168.751 101.027 168.751 101.827V115.97C168.751 117.636 167.4 118.988 165.733 118.988L165.768 118.987ZM157.088 111.681C157.088 111.396 156.973 111.129 156.773 110.929C156.573 110.729 156.301 110.618 156.017 110.623H146.799H146.803C146.501 110.592 146.199 110.689 145.977 110.894C145.75 111.094 145.621 111.383 145.621 111.685C145.621 111.987 145.75 112.276 145.977 112.481C146.199 112.685 146.501 112.783 146.803 112.752H156.021H156.017C156.595 112.734 157.053 112.258 157.053 111.681L157.088 111.681ZM162.946 106.174C162.946 105.889 162.835 105.618 162.635 105.418C162.435 105.218 162.159 105.103 161.879 105.103H146.768C146.177 105.103 145.697 105.583 145.697 106.174C145.697 106.765 146.177 107.245 146.768 107.245H161.879C162.159 107.245 162.435 107.129 162.635 106.929C162.835 106.729 162.946 106.458 162.946 106.174Z" fill="#0063FF"/>
</g>
<defs>
<clipPath id="clip0_900_159986">
<rect width="100" height="100" fill="white" transform="translate(104.5 63)"/>
</clipPath>
</defs>
</svg>
