<svg width="309" height="194" viewBox="0 0 309 194" fill="none" xmlns="http://www.w3.org/2000/svg">
<rect width="309" height="194" rx="14" fill="#000A19" fill-opacity="0.05"/>
<g clip-path="url(#clip0_900_159997)">
<path d="M204.5 78.6778C204.5 78.6778 204.5 78.592 204.491 78.5492C204.491 78.5492 204.491 78.5406 204.491 78.532C204.483 78.4892 204.466 78.4463 204.449 78.412C204.449 78.412 204.397 78.3349 204.371 78.3006L180.087 51.9419C180.087 51.9419 180.07 51.9248 180.07 51.9162C180.07 51.9162 180.061 51.8991 180.053 51.8991C180.044 51.8905 180.027 51.8734 180.019 51.8648C180.019 51.8648 180.001 51.8562 179.993 51.8477C179.976 51.8391 179.959 51.8305 179.941 51.8219C179.941 51.8219 179.933 51.8219 179.924 51.8134C179.873 51.7877 179.821 51.7791 179.77 51.7705C179.77 51.7705 179.77 51.7705 179.761 51.7705C179.744 51.7705 179.719 51.7705 179.693 51.7705H179.667C179.667 51.7705 179.633 51.7705 179.607 51.7705C179.607 51.7705 179.59 51.7705 179.573 51.7705C179.573 51.7705 179.556 51.7705 179.539 51.7705C179.539 51.7705 179.539 51.7705 179.53 51.7705C179.53 51.7705 179.513 51.7705 179.496 51.7705C179.479 51.7705 179.47 51.7877 179.453 51.7877C179.453 51.7877 179.453 51.7877 179.444 51.7877L154.534 62.4254L129.59 51.7877C129.59 51.7877 129.59 51.7877 129.581 51.7877C129.573 51.7877 129.556 51.7877 129.539 51.7705C129.53 51.7705 129.513 51.7705 129.504 51.7705C129.496 51.7705 129.479 51.7705 129.47 51.7705C129.47 51.7705 129.453 51.7705 129.436 51.7705C129.419 51.7705 129.401 51.7705 129.384 51.7705H129.359C129.359 51.7705 129.307 51.7705 129.281 51.7705C129.23 51.7791 129.179 51.7962 129.127 51.8134C129.127 51.8134 129.119 51.8134 129.11 51.8134C129.093 51.8219 129.076 51.8305 129.059 51.8477C129.059 51.8477 129.041 51.8562 129.033 51.8648C129.024 51.8734 129.007 51.8905 128.99 51.8991C128.99 51.8991 128.99 51.9077 128.973 51.9162C128.973 51.9162 128.964 51.9334 128.956 51.9419L104.654 78.2835C104.629 78.3177 104.594 78.352 104.577 78.3949H104.56C104.56 78.3949 104.526 78.4806 104.517 78.5235C104.517 78.5235 104.517 78.532 104.517 78.5406C104.517 78.5835 104.509 78.6263 104.5 78.6692V78.6949C104.5 78.6949 104.5 78.7806 104.517 78.8235H104.509C104.509 78.8235 104.509 78.8406 104.509 78.8492C104.509 78.8663 104.509 78.8835 104.526 78.8921L114.418 106.202C114.418 106.202 114.426 106.228 114.435 106.236C114.443 106.271 114.461 106.296 114.478 106.331C114.478 106.348 114.495 106.356 114.503 106.365C114.521 106.391 114.538 106.408 114.563 106.425C114.563 106.425 114.563 106.425 114.563 106.434L154.071 142.161C154.071 142.161 154.08 142.161 154.089 142.17C154.097 142.179 154.089 142.17 154.097 142.17C154.097 142.17 154.114 142.187 154.131 142.196C154.131 142.196 154.131 142.196 154.149 142.204C154.149 142.204 154.149 142.204 154.157 142.204C154.157 142.204 154.157 142.204 154.166 142.204C154.166 142.204 154.174 142.204 154.183 142.204C154.191 142.204 154.209 142.213 154.226 142.221C154.226 142.221 154.226 142.221 154.243 142.221C154.243 142.221 154.243 142.221 154.26 142.221C154.26 142.221 154.26 142.221 154.269 142.221C154.286 142.221 154.303 142.221 154.32 142.23C154.32 142.23 154.329 142.23 154.337 142.23C154.337 142.23 154.337 142.23 154.354 142.23H154.363C154.363 142.23 154.414 142.23 154.431 142.23C154.431 142.23 154.483 142.23 154.509 142.23H154.517C154.517 142.23 154.517 142.23 154.526 142.23C154.526 142.23 154.534 142.23 154.543 142.23C154.56 142.23 154.577 142.23 154.594 142.221C154.594 142.221 154.594 142.221 154.603 142.221C154.603 142.221 154.611 142.221 154.62 142.221C154.62 142.221 154.629 142.221 154.637 142.221C154.654 142.221 154.663 142.204 154.68 142.204C154.68 142.204 154.689 142.204 154.697 142.204C154.697 142.204 154.697 142.204 154.706 142.204C154.706 142.204 154.706 142.204 154.714 142.204C154.714 142.204 154.731 142.204 154.731 142.187C154.74 142.187 154.757 142.179 154.766 142.17C154.766 142.17 154.766 142.17 154.774 142.17C154.783 142.17 154.774 142.17 154.791 142.161L194.299 106.434C194.299 106.434 194.299 106.434 194.299 106.425C194.317 106.408 194.342 106.382 194.359 106.365C194.359 106.356 194.377 106.339 194.385 106.331C194.402 106.305 194.419 106.271 194.428 106.236C194.428 106.228 194.437 106.211 194.445 106.211L204.337 78.8921C204.337 78.8749 204.346 78.8663 204.354 78.8492C204.354 78.8492 204.354 78.8406 204.354 78.8321C204.354 78.7806 204.363 78.7378 204.371 78.6949C204.371 78.6949 204.371 78.6778 204.371 78.6692L204.5 78.6778ZM129.084 53.5449L140.399 90.7385L106.163 78.4377L129.084 53.5449ZM116.029 106.134L140.939 92.6157L153.386 139.924L116.029 106.134ZM153.891 137.044L152.263 130.864L141.976 91.7585L153.891 65.8542V137.035V137.044ZM178.681 53.4249L167.546 90.0098L158.623 70.6116L155.314 63.4112L178.681 53.4249ZM193.682 105.139L169.149 91.8271L202.897 79.7064L193.682 105.139ZM155.109 65.8627V137.044L156.737 130.864L167.024 91.7585L155.109 65.8542V65.8627ZM106.112 79.6978L115.326 105.131L139.859 91.8185L106.112 79.6978ZM179.916 53.5449L168.592 90.7385L202.837 78.4463L179.916 53.5449ZM130.31 53.4249L141.454 90.0098L150.377 70.6116L153.686 63.4112L130.31 53.4249ZM168.052 92.6157L155.606 139.924L192.962 106.142L168.044 92.6243L168.052 92.6157Z" fill="#0063FF"/>
</g>
<defs>
<clipPath id="clip0_900_159997">
<rect width="100" height="100" fill="white" transform="translate(104.5 47)"/>
</clipPath>
</defs>
</svg>
